<?xml version="1.0" encoding="utf-8"?>
<!-- Generator: Adobe Illustrator 24.1.2, SVG Export Plug-In . SVG Version: 6.00 Build 0)  -->
<svg version="1.1" id="Ebene_1" xmlns="http://www.w3.org/2000/svg" xmlns:xlink="http://www.w3.org/1999/xlink" x="0px" y="0px"
	 viewBox="0 0 198.1 167.1" style="enable-background:new 0 0 198.1 167.1;" xml:space="preserve">
<style type="text/css">
	.st0{display:none;fill:#5286A4;}
	.st1{fill:#5286A4;}
</style>
<g>
	<g>
		<g>
			<path class="st0" d="M156.1,90v-5.1H145v-18v-0.2c0-6-3.1-11.6-8.2-14.7l-29.6-18.1c-0.7-0.5-1.6-0.7-2.5-0.7H99h-5.7
				c-0.9,0-1.7,0.2-2.5,0.7L61.2,52c-5.1,3.1-8.2,8.7-8.2,14.7v0.2v18H41.9c0,0,0,5,0,5.1c-2.9,0-5.9,0-8.8,0v2.6h45.5l10.5-41.5
				l14.1,57.6l4.5-16.1h54.4V90H156.1z"/>
			<path class="st1" d="M164.6,95.2L164.6,95.2l-54.9,0.1l-4,14.2c-0.3,1-1.3,1.8-2.5,1.8s-2.2-0.8-2.5-2L89.1,61.8l-7.9,31.4
				c-0.3,1.2-1.3,2-2.5,2H41.9h-8.8v5H53v0.2c0,6,3.1,11.6,8.2,14.7l29.6,18.1c0.7,0.5,1.6,0.7,2.5,0.7H99h5.7
				c0.9,0,1.7-0.2,2.5-0.7l29.6-18.1c5.1-3.1,8.2-8.7,8.2-14.7v-0.2h19.7L164.6,95.2L164.6,95.2z"/>
		</g>
		<path class="st1" d="M86.6,50.5c0.3-1.2,1.3-2,2.5-2s2.2,0.8,2.5,2l11.7,48l1.8-6.5c0.3-1.1,1.3-1.9,2.5-1.9h48.5V90v-5.1H145v-18
			v-0.2c0-6-3.1-11.6-8.2-14.7l-29.6-18.1c-0.7-0.5-1.6-0.7-2.5-0.7H99h-5.7c-0.9,0-1.7,0.2-2.5,0.7L61.2,52
			c-5.1,3.1-8.2,8.7-8.2,14.7v0.2v18H41.9c0,0,0,5,0,5.1h34.7L86.6,50.5z"/>
	</g>
</g>
</svg>
