<?xml version="1.0" encoding="utf-8"?>
<!-- Generator: Adobe Illustrator 24.1.2, SVG Export Plug-In . SVG Version: 6.00 Build 0)  -->
<svg version="1.1" id="Ebene_1" xmlns="http://www.w3.org/2000/svg" xmlns:xlink="http://www.w3.org/1999/xlink" x="0px" y="0px"
	 viewBox="0 0 196.4 204.4" style="enable-background:new 0 0 196.4 204.4;" xml:space="preserve">
<style type="text/css">
	.st0{fill:#5286A4;}
	.st1{display:none;fill:#FFFFFF;}
	.st2{fill:#FFFFFF;}
</style>
<rect x="0.1" y="0" class="st0" width="196.2" height="204.3"/>
<g>
	<g>
		<g>
			<path class="st1" d="M155.6,83.5v-5.1h-11.1v-18v-0.2c0-6-3.1-11.6-8.2-14.7l-29.6-18.1c-0.7-0.5-1.6-0.7-2.5-0.7h-5.7h-5.7
				c-0.9,0-1.7,0.2-2.5,0.7L60.7,45.5c-5.1,3.1-8.2,8.7-8.2,14.7v0.2v18H41.4c0,0,0,5,0,5.1c-2.9,0-5.9,0-8.8,0v2.6h45.5l10.5-41.5
				l14.1,57.6l4.5-16.1h54.4v-2.6H155.6z"/>
			<path class="st2" d="M164.1,88.7L164.1,88.7l-54.9,0.1l-4,14.2c-0.3,1-1.3,1.8-2.5,1.8s-2.2-0.8-2.5-2L88.6,55.3l-7.9,31.4
				c-0.3,1.2-1.3,2-2.5,2H41.4h-8.8v5h19.9v0.2c0,6,3.1,11.6,8.2,14.7l29.6,18.1c0.7,0.5,1.6,0.7,2.5,0.7h5.7h5.7
				c0.9,0,1.7-0.2,2.5-0.7l29.6-18.1c5.1-3.1,8.2-8.7,8.2-14.7v-0.2h19.7L164.1,88.7L164.1,88.7z"/>
		</g>
		<path class="st2" d="M86.1,44c0.3-1.2,1.3-2,2.5-2s2.2,0.8,2.5,2l11.7,48l1.8-6.5c0.3-1.1,1.3-1.9,2.5-1.9h48.5v-0.1v-5.1h-11.1
			v-18v-0.2c0-6-3.1-11.6-8.2-14.7l-29.6-18.1c-0.7-0.5-1.6-0.7-2.5-0.7h-5.7h-5.7c-0.9,0-1.7,0.2-2.5,0.7L60.7,45.5
			c-5.1,3.1-8.2,8.7-8.2,14.7v0.2v18H41.4c0,0,0,5,0,5.1h34.7L86.1,44z"/>
	</g>
</g>
<g>
	<path class="st2" d="M34.4,177.9c-0.9,0-1.4-0.3-1.4-0.8v-20.9c0-1,0-1.9-0.1-2.5c-0.1-0.7-0.1-1.2-0.2-1.6
		c-0.1-0.4-0.1-0.6-0.1-0.7c0-0.2,0.1-0.3,0.3-0.4s0.4-0.2,0.7-0.2c0.2-0.1,0.5-0.1,0.7-0.1c0.2,0,0.4,0,0.5,0
		c0.5,0,0.8,0.3,0.9,0.8s0.2,1.1,0.3,1.8c0.6-0.9,1.2-1.7,2-2.1c0.8-0.5,1.6-0.7,2.4-0.7c1.2,0,2.3,0.4,3.2,1.3
		c0.9,0.9,1.6,2.1,2,3.6c0.5,1.5,0.7,3.3,0.7,5.2c0,3.2-0.6,5.6-1.7,7.3c-1.1,1.7-2.6,2.6-4.5,2.6c-0.9,0-1.7-0.2-2.3-0.5
		c-0.6-0.4-1.1-0.8-1.6-1.4v8.6c0,0.5-0.5,0.8-1.4,0.8H34.4z M39.4,167.5c1.2,0,2.1-0.6,2.7-1.8c0.6-1.2,0.9-3,0.9-5.3
		c0-2.3-0.3-4.1-0.8-5.4c-0.6-1.3-1.4-2-2.5-2c-0.6,0-1.2,0.2-1.8,0.7c-0.6,0.4-1.1,1.1-1.6,1.9v10.2c0.4,0.6,0.9,1,1.4,1.3
		C38.1,167.4,38.7,167.5,39.4,167.5z"/>
	<path class="st2" d="M52.6,170.2c-1,0-1.5-0.3-1.5-0.8v-13.2c0-1,0-1.9-0.1-2.5c-0.1-0.7-0.1-1.2-0.2-1.5c-0.1-0.3-0.1-0.6-0.1-0.6
		c0-0.2,0.1-0.3,0.2-0.4c0.2-0.1,0.4-0.2,0.6-0.3c0.2-0.1,0.4-0.1,0.7-0.1c0.2,0,0.4,0,0.5,0c0.3,0,0.5,0.1,0.7,0.4
		c0.2,0.3,0.3,0.6,0.4,1c0.1,0.4,0.2,0.8,0.2,1.1c0.6-0.9,1.2-1.6,1.9-2.1c0.7-0.5,1.4-0.7,2.1-0.7c0.4,0,0.8,0.1,1.1,0.2
		c0.3,0.1,0.5,0.3,0.7,0.5c0.1,0.2,0.2,0.5,0.2,0.7c0,0.2,0,0.5-0.1,0.8c-0.1,0.3-0.1,0.6-0.3,0.8c-0.1,0.2-0.2,0.4-0.4,0.4
		c-0.2,0-0.4-0.1-0.7-0.2s-0.6-0.2-1.2-0.2c-0.5,0-1,0.1-1.4,0.4c-0.4,0.3-0.8,0.6-1.1,1c-0.3,0.4-0.5,0.6-0.6,0.8v13.7
		c0,0.5-0.5,0.8-1.5,0.8H52.6z"/>
	<path class="st2" d="M63.8,147.4c-0.6,0-1-0.1-1.3-0.2c-0.3-0.1-0.4-0.3-0.4-0.6v-1.9c0-0.2,0.1-0.4,0.4-0.6
		c0.3-0.1,0.7-0.2,1.3-0.2c0.6,0,1,0.1,1.3,0.2s0.4,0.3,0.4,0.6v1.9c0,0.2-0.1,0.4-0.4,0.6C64.9,147.3,64.5,147.4,63.8,147.4z
		 M63.8,170.2c-1,0-1.5-0.3-1.5-0.8v-18.1c0-0.5,0.5-0.8,1.5-0.8h0.1c1,0,1.5,0.3,1.5,0.8v18.1c0,0.5-0.5,0.8-1.5,0.8H63.8z"/>
	<path class="st2" d="M72.9,170.2c-0.9,0-1.4-0.3-1.4-0.8v-13.2c0-1,0-1.9-0.1-2.5c-0.1-0.7-0.1-1.2-0.2-1.5
		c-0.1-0.3-0.1-0.6-0.1-0.6c0-0.2,0.1-0.3,0.3-0.4s0.4-0.2,0.7-0.3c0.2-0.1,0.5-0.1,0.7-0.1c0.2,0,0.4,0,0.5,0
		c0.5,0,0.8,0.3,0.9,0.8c0.1,0.5,0.2,1.1,0.3,1.7c0.5-0.9,1.2-1.6,2.1-2.1s1.7-0.7,2.7-0.7c1.5,0,2.7,0.5,3.6,1.6
		c0.8,1,1.3,2.5,1.3,4.3v13.2c0,0.2-0.1,0.4-0.3,0.6s-0.6,0.2-1.1,0.2h-0.4c-0.5,0-0.9-0.1-1.1-0.2c-0.2-0.1-0.4-0.3-0.4-0.6v-12.9
		c0-1.1-0.2-1.9-0.7-2.5c-0.4-0.6-1.1-0.9-2-0.9c-0.7,0-1.4,0.2-2,0.7c-0.6,0.5-1.1,1.1-1.5,1.9v13.7c0,0.5-0.5,0.8-1.4,0.8H72.9z"
		/>
	<path class="st2" d="M94.7,170.3c-0.6,0-1.2-0.1-1.8-0.3c-0.6-0.2-1.2-0.7-1.7-1.3c-0.5-0.6-0.7-1.6-0.7-2.9v-12.6h-1.2
		c-0.5,0-0.7-0.4-0.7-1.1v-0.4c0-0.7,0.2-1.1,0.7-1.1h1.2l0.4-3.9c0-0.5,0.4-0.8,1.2-0.8h0.4c0.7,0,1.1,0.3,1.1,0.8v3.9h2.5
		c0.5,0,0.7,0.4,0.7,1.1v0.4c0,0.7-0.2,1.1-0.7,1.1h-2.5v12c0,1,0.1,1.6,0.4,1.9c0.3,0.3,0.6,0.4,1,0.4c0.4,0,0.7,0,0.8-0.1
		c0.2-0.1,0.3-0.1,0.4-0.1c0.2,0,0.3,0.1,0.4,0.4s0.2,0.5,0.3,0.8c0.1,0.3,0.1,0.5,0.1,0.6c0,0.3-0.1,0.6-0.4,0.7
		c-0.3,0.1-0.6,0.2-1,0.3C95.3,170.3,94.9,170.3,94.7,170.3z"/>
	<path class="st2" d="M111.2,170.2c-0.7,0-1.1-0.3-1.1-0.8v-5.5h-9.2c-0.1,0-0.3-0.1-0.4-0.3c-0.1-0.2-0.3-0.5-0.4-0.8
		c-0.1-0.3-0.1-0.6-0.1-0.8c0-0.1,0-0.2,0-0.2c0-0.1,0-0.1,0.1-0.2l10-17.2c0.1-0.2,0.3-0.3,0.5-0.4s0.5-0.1,0.7-0.1h0.7
		c0.7,0,1.1,0.3,1.1,0.8v16.5h2.1c0.5,0,0.7,0.4,0.7,1.1v0.4c0,0.7-0.2,1.1-0.7,1.1h-2.1v5.5c0,0.5-0.4,0.8-1.1,0.8H111.2z
		 M103.3,161.1h6.8v-7.5c0-1.1,0-2,0.1-2.7c0.1-0.7,0.1-1.3,0.2-1.9l-0.1-0.1L103.3,161.1z"/>
	<path class="st2" d="M125.4,170.3c-0.5,0-1.1-0.1-1.7-0.3c-0.6-0.2-1.2-0.7-1.6-1.3s-0.7-1.6-0.7-2.9v-23c0-0.5,0.5-0.8,1.5-0.8
		h0.1c1,0,1.5,0.3,1.5,0.8v22.7c0,0.9,0.1,1.4,0.4,1.7s0.6,0.4,1,0.4c0.3,0,0.6,0,0.8-0.1c0.2-0.1,0.3-0.1,0.4-0.1
		c0.2,0,0.3,0.1,0.4,0.4c0.1,0.2,0.2,0.5,0.3,0.8c0.1,0.3,0.1,0.5,0.1,0.6c0,0.3-0.1,0.5-0.4,0.7c-0.3,0.2-0.6,0.3-1,0.4
		C126.1,170.3,125.7,170.3,125.4,170.3z"/>
	<path class="st2" d="M133,147.4c-0.6,0-1-0.1-1.3-0.2s-0.4-0.3-0.4-0.6v-1.9c0-0.2,0.1-0.4,0.4-0.6s0.7-0.2,1.3-0.2
		c0.6,0,1,0.1,1.3,0.2s0.4,0.3,0.4,0.6v1.9c0,0.2-0.1,0.4-0.4,0.6C134,147.3,133.6,147.4,133,147.4z M132.9,170.2
		c-1,0-1.5-0.3-1.5-0.8v-18.1c0-0.5,0.5-0.8,1.5-0.8h0.1c1,0,1.5,0.3,1.5,0.8v18.1c0,0.5-0.5,0.8-1.5,0.8H132.9z"/>
	<path class="st2" d="M142.7,170.2c-1,0-1.5-0.3-1.5-0.8v-16.1h-1.1c-0.5,0-0.7-0.4-0.7-1.1v-0.4c0-0.7,0.2-1.1,0.7-1.1h1.1v-4
		c0-1.4,0.2-2.4,0.7-3.1c0.5-0.7,1.1-1.1,1.7-1.3c0.7-0.2,1.3-0.3,1.8-0.3c0.4,0,0.8,0,1.2,0.1c0.4,0.1,0.7,0.2,1,0.4
		s0.4,0.4,0.4,0.7c0,0.1,0,0.3-0.1,0.6c-0.1,0.3-0.2,0.6-0.3,0.8c-0.1,0.2-0.3,0.4-0.5,0.4c-0.1,0-0.3,0-0.5-0.1
		c-0.2-0.1-0.5-0.1-0.9-0.1c-0.4,0-0.8,0.1-1.1,0.4c-0.3,0.3-0.5,0.9-0.5,2v3.7h2.5c0.5,0,0.7,0.4,0.7,1.1v0.4
		c0,0.7-0.2,1.1-0.7,1.1h-2.5v16.1c0,0.5-0.5,0.8-1.5,0.8H142.7z"/>
	<path class="st2" d="M158.3,170.3c-2.6,0-4.6-0.8-5.9-2.4c-1.3-1.6-1.9-4.1-1.9-7.4c0-2.2,0.3-4,0.8-5.6c0.5-1.5,1.4-2.6,2.5-3.4
		c1.1-0.8,2.5-1.2,4.1-1.2c2.2,0,3.8,0.8,4.9,2.5c1.1,1.7,1.6,4.1,1.6,7.3c0,0.1-0.1,0.3-0.2,0.6c-0.1,0.2-0.3,0.5-0.5,0.7
		c-0.2,0.2-0.4,0.3-0.5,0.3h-9.3c0.1,2.1,0.5,3.6,1.2,4.6c0.7,1,1.7,1.5,3.2,1.5c0.9,0,1.7-0.1,2.3-0.4c0.6-0.3,1.1-0.5,1.4-0.8
		s0.5-0.4,0.7-0.4c0.2,0,0.4,0.1,0.6,0.4s0.4,0.5,0.5,0.8c0.2,0.3,0.2,0.5,0.2,0.7c0,0.2-0.1,0.5-0.4,0.7c-0.3,0.3-0.7,0.5-1.2,0.8
		s-1.1,0.5-1.8,0.6C159.8,170.2,159.1,170.3,158.3,170.3z M153.8,158.9h7.2c0-2-0.3-3.4-0.8-4.4c-0.6-1-1.4-1.5-2.5-1.5
		c-1.2,0-2.2,0.5-2.8,1.5C154.3,155.5,153.9,156.9,153.8,158.9z"/>
</g>
</svg>
