<?xml version="1.0" encoding="utf-8"?>
<!-- Generator: Adobe Illustrator 24.1.2, SVG Export Plug-In . SVG Version: 6.00 Build 0)  -->
<svg version="1.1" id="Ebene_1" xmlns="http://www.w3.org/2000/svg" xmlns:xlink="http://www.w3.org/1999/xlink" x="0px" y="0px"
	 viewBox="0 0 476.5 145.3" style="enable-background:new 0 0 476.5 145.3;" xml:space="preserve">
<style type="text/css">
	.st0{display:none;fill:#5286A4;}
	.st1{fill:#5286A4;}
</style>
<g>
	<g>
		<g>
			<path class="st0" d="M175.5,78.9v-5.1h-11.1v-18v-0.2c0-6-3.1-11.6-8.2-14.7l-29.6-18.1c-0.7-0.5-1.6-0.7-2.5-0.7h-5.7h-5.7
				c-0.9,0-1.7,0.2-2.5,0.7L80.6,40.9c-5.1,3.1-8.2,8.7-8.2,14.7v0.2v18H61.3c0,0,0,5,0,5.1c-2.9,0-5.9,0-8.8,0v2.6H98L108.5,40
				l14.1,57.6l4.5-16.1h54.4v-2.6H175.5z"/>
			<path class="st1" d="M184,84.1L184,84.1l-54.9,0.1l-4,14.2c-0.3,1-1.3,1.8-2.5,1.8s-2.2-0.8-2.5-2l-11.6-47.5l-7.9,31.4
				c-0.3,1.2-1.3,2-2.5,2H61.3h-8.8v5h19.9v0.2c0,6,3.1,11.6,8.2,14.7l29.6,18.1c0.7,0.5,1.6,0.7,2.5,0.7h5.7h5.7
				c0.9,0,1.7-0.2,2.5-0.7l29.6-18.1c5.1-3.1,8.2-8.7,8.2-14.7v-0.2h19.7L184,84.1L184,84.1z"/>
		</g>
		<path class="st1" d="M106,39.4c0.3-1.2,1.3-2,2.5-2s2.2,0.8,2.5,2l11.7,48l1.8-6.5c0.3-1.1,1.3-1.9,2.5-1.9h48.5v-0.1v-5.1h-11.1
			v-18v-0.2c0-6-3.1-11.6-8.2-14.7l-29.6-18.1c-0.7-0.5-1.6-0.7-2.5-0.7h-5.7h-5.7c-0.9,0-1.7,0.2-2.5,0.7L80.6,40.9
			c-5.1,3.1-8.2,8.7-8.2,14.7v0.2v18H61.3c0,0,0,5,0,5.1H96L106,39.4z"/>
	</g>
</g>
<g>
	<path class="st1" d="M214.8,102.5c-1.5,0-2.3-0.4-2.3-1.3V67.6c0-1.6-0.1-3-0.2-4.1c-0.1-1.1-0.2-1.9-0.3-2.5
		c-0.1-0.6-0.1-0.9-0.1-1c0-0.3,0.1-0.5,0.4-0.7c0.3-0.2,0.6-0.3,1.1-0.4c0.4-0.1,0.8-0.2,1.2-0.2c0.4,0,0.6-0.1,0.8-0.1
		c0.8,0,1.2,0.4,1.4,1.3c0.2,0.8,0.3,1.8,0.5,2.8c0.9-1.5,2-2.6,3.2-3.4c1.2-0.7,2.5-1.1,3.9-1.1c2,0,3.6,0.7,5.1,2.1
		c1.4,1.4,2.5,3.3,3.3,5.7c0.8,2.4,1.1,5.2,1.1,8.4c0,5.1-0.9,9-2.8,11.8c-1.8,2.8-4.2,4.1-7.2,4.1c-1.5,0-2.7-0.3-3.7-0.9
		c-1-0.6-1.8-1.3-2.6-2.2v13.9c0,0.9-0.8,1.3-2.3,1.3H214.8z M222.8,85.9c2,0,3.4-1,4.4-2.9c1-1.9,1.4-4.8,1.4-8.5
		c0-3.7-0.4-6.6-1.3-8.7c-0.9-2.1-2.2-3.2-4-3.2c-1,0-2,0.4-2.9,1.1c-1,0.7-1.8,1.7-2.6,3.1v16.4c0.7,0.9,1.4,1.6,2.3,2
		C220.9,85.7,221.8,85.9,222.8,85.9z"/>
	<path class="st1" d="M244.1,90.1c-1.6,0-2.4-0.4-2.4-1.3V67.6c0-1.6-0.1-3-0.2-4.1c-0.1-1.1-0.2-1.9-0.4-2.5
		c-0.1-0.6-0.2-0.9-0.2-1c0-0.3,0.1-0.5,0.4-0.7c0.3-0.2,0.6-0.3,0.9-0.4c0.4-0.1,0.7-0.2,1.1-0.2c0.4,0,0.6-0.1,0.8-0.1
		c0.5,0,0.8,0.2,1.1,0.7c0.3,0.5,0.5,1,0.6,1.6c0.1,0.6,0.3,1.2,0.4,1.7c0.9-1.4,1.9-2.5,3-3.3c1.1-0.8,2.2-1.2,3.3-1.2
		c0.7,0,1.3,0.1,1.7,0.3c0.5,0.2,0.8,0.5,1,0.8c0.2,0.4,0.3,0.8,0.3,1.2c0,0.4-0.1,0.9-0.1,1.4c-0.1,0.5-0.2,0.9-0.4,1.3
		c-0.2,0.4-0.4,0.6-0.6,0.6c-0.4,0-0.7-0.1-1.1-0.3c-0.4-0.2-1-0.3-1.9-0.3c-0.8,0-1.5,0.2-2.2,0.7c-0.7,0.5-1.3,1-1.7,1.6
		s-0.8,1-0.9,1.3v22c0,0.9-0.8,1.3-2.4,1.3H244.1z"/>
	<path class="st1" d="M262.1,53.6c-0.9,0-1.6-0.1-2-0.3c-0.4-0.2-0.6-0.5-0.6-1v-3.1c0-0.4,0.2-0.7,0.6-1s1.1-0.4,2.1-0.4
		c0.9,0,1.6,0.1,2,0.4s0.6,0.6,0.6,1v3.1c0,0.4-0.2,0.7-0.6,1C263.8,53.5,263.1,53.6,262.1,53.6z M262,90.1c-1.6,0-2.4-0.4-2.4-1.3
		v-29c0-0.9,0.8-1.3,2.4-1.3h0.2c1.6,0,2.4,0.4,2.4,1.3v29c0,0.9-0.8,1.3-2.4,1.3H262z"/>
	<path class="st1" d="M276.6,90.1c-1.5,0-2.2-0.4-2.2-1.3V67.6c0-1.6-0.1-3-0.1-4.1c-0.1-1.1-0.2-1.9-0.3-2.5
		c-0.1-0.6-0.2-0.9-0.2-1c0-0.3,0.2-0.5,0.5-0.7s0.6-0.3,1-0.4c0.4-0.1,0.8-0.2,1.2-0.2c0.4,0,0.6-0.1,0.8-0.1
		c0.8,0,1.2,0.4,1.4,1.3c0.2,0.9,0.3,1.8,0.5,2.8c0.9-1.4,2-2.5,3.3-3.3c1.3-0.8,2.7-1.2,4.3-1.2c2.5,0,4.4,0.8,5.8,2.5
		c1.4,1.7,2,4,2,6.9v21.2c0,0.4-0.2,0.7-0.5,1c-0.4,0.2-0.9,0.4-1.7,0.4h-0.6c-0.8,0-1.4-0.1-1.8-0.4c-0.4-0.2-0.6-0.6-0.6-1V68.1
		c0-1.7-0.4-3.1-1-4c-0.7-1-1.8-1.4-3.2-1.4c-1.1,0-2.2,0.4-3.2,1.2c-1,0.8-1.8,1.8-2.4,3v22c0,0.9-0.8,1.3-2.3,1.3H276.6z"/>
	<path class="st1" d="M311.6,90.4c-0.9,0-1.9-0.2-2.9-0.5c-1-0.4-1.9-1.1-2.7-2.1c-0.7-1-1.1-2.6-1.1-4.6V63h-2
		c-0.8,0-1.2-0.6-1.2-1.8v-0.7c0-1.2,0.4-1.8,1.2-1.8h2l0.7-6.3c0.1-0.9,0.7-1.3,1.9-1.3h0.6c1.2,0,1.8,0.4,1.8,1.3v6.3h4
		c0.8,0,1.2,0.6,1.2,1.8v0.7c0,1.2-0.4,1.8-1.2,1.8h-4v19.3c0,1.6,0.2,2.6,0.7,3.1c0.5,0.5,1,0.7,1.6,0.7c0.6,0,1,0,1.4-0.2
		c0.3-0.1,0.5-0.1,0.7-0.1c0.3,0,0.5,0.2,0.7,0.6c0.2,0.4,0.3,0.8,0.4,1.3c0.1,0.5,0.1,0.8,0.1,1c0,0.5-0.2,0.9-0.7,1.1
		c-0.5,0.2-1,0.4-1.7,0.5C312.5,90.3,312,90.4,311.6,90.4z"/>
	<path class="st1" d="M338.1,90.1c-1.2,0-1.8-0.4-1.8-1.3V80h-14.8c-0.2,0-0.4-0.2-0.7-0.5c-0.2-0.4-0.4-0.8-0.6-1.2
		c-0.1-0.5-0.2-0.9-0.2-1.3c0-0.2,0-0.3,0-0.4c0-0.1,0-0.2,0.1-0.3l16.1-27.6c0.2-0.3,0.4-0.5,0.8-0.6c0.4-0.1,0.8-0.2,1.2-0.2h1.2
		c1.2,0,1.8,0.4,1.8,1.3v26.5h3.4c0.8,0,1.2,0.6,1.2,1.8v0.7c0,1.2-0.4,1.8-1.2,1.8h-3.4v8.8c0,0.9-0.6,1.3-1.8,1.3H338.1z
		 M325.5,75.7h10.9v-12c0-1.8,0-3.2,0.1-4.3c0.1-1.1,0.2-2.1,0.4-3.1l-0.2-0.1L325.5,75.7z"/>
	<path class="st1" d="M360.9,90.4c-0.8,0-1.7-0.2-2.7-0.5c-1-0.4-1.9-1.1-2.6-2.1c-0.7-1-1.1-2.6-1.1-4.6V46.2
		c0-0.9,0.8-1.3,2.4-1.3h0.2c1.6,0,2.4,0.4,2.4,1.3v36.4c0,1.4,0.2,2.3,0.7,2.8c0.4,0.4,1,0.7,1.6,0.7c0.6,0,1,0,1.2-0.2
		c0.3-0.1,0.5-0.1,0.7-0.1c0.3,0,0.5,0.2,0.7,0.6c0.2,0.4,0.3,0.8,0.4,1.3c0.1,0.5,0.2,0.8,0.2,0.9c0,0.4-0.2,0.8-0.7,1.1
		c-0.5,0.3-1,0.4-1.7,0.6S361.4,90.4,360.9,90.4z"/>
	<path class="st1" d="M373,53.6c-0.9,0-1.6-0.1-2-0.3c-0.4-0.2-0.6-0.5-0.6-1v-3.1c0-0.4,0.2-0.7,0.6-1s1.1-0.4,2.1-0.4
		c0.9,0,1.6,0.1,2,0.4s0.6,0.6,0.6,1v3.1c0,0.4-0.2,0.7-0.6,1C374.7,53.5,374,53.6,373,53.6z M372.9,90.1c-1.6,0-2.4-0.4-2.4-1.3
		v-29c0-0.9,0.8-1.3,2.4-1.3h0.2c1.6,0,2.4,0.4,2.4,1.3v29c0,0.9-0.8,1.3-2.4,1.3H372.9z"/>
	<path class="st1" d="M388.6,90.1c-1.6,0-2.4-0.4-2.4-1.3V63h-1.7c-0.8,0-1.2-0.6-1.2-1.8v-0.7c0-1.2,0.4-1.8,1.2-1.8h1.7v-6.4
		c0-2.2,0.4-3.8,1.2-4.9c0.8-1.1,1.7-1.8,2.8-2.2c1.1-0.4,2-0.5,2.9-0.5c0.6,0,1.2,0.1,1.9,0.2c0.6,0.1,1.2,0.3,1.6,0.6
		c0.4,0.3,0.7,0.6,0.7,1c0,0.2-0.1,0.5-0.1,0.9c-0.1,0.5-0.2,0.9-0.4,1.3c-0.2,0.4-0.4,0.6-0.8,0.6c-0.2,0-0.5-0.1-0.8-0.2
		c-0.3-0.1-0.7-0.2-1.4-0.2c-0.6,0-1.2,0.2-1.7,0.6c-0.5,0.4-0.8,1.5-0.8,3.2v5.9h4c0.8,0,1.2,0.6,1.2,1.8v0.7
		c0,1.2-0.4,1.8-1.2,1.8h-4v25.9c0,0.9-0.8,1.3-2.4,1.3H388.6z"/>
	<path class="st1" d="M413.6,90.4c-4.2,0-7.4-1.3-9.5-3.9c-2.1-2.6-3.1-6.6-3.1-11.9c0-3.5,0.4-6.5,1.3-8.9c0.9-2.4,2.2-4.2,4-5.5
		c1.8-1.2,3.9-1.9,6.5-1.9c3.5,0,6.1,1.3,7.9,4c1.8,2.7,2.6,6.6,2.6,11.7c0,0.2-0.1,0.6-0.3,1c-0.2,0.4-0.5,0.8-0.8,1
		c-0.3,0.3-0.6,0.5-0.8,0.5h-14.9c0.2,3.3,0.8,5.8,1.9,7.3c1.1,1.6,2.8,2.3,5.2,2.3c1.5,0,2.8-0.2,3.7-0.6c1-0.4,1.7-0.8,2.2-1.3
		c0.5-0.4,0.9-0.6,1.1-0.6c0.3,0,0.6,0.2,0.9,0.6c0.3,0.4,0.6,0.8,0.8,1.3c0.2,0.5,0.4,0.8,0.4,1.1c0,0.4-0.2,0.8-0.7,1.2
		c-0.5,0.4-1.1,0.9-1.9,1.3c-0.8,0.4-1.8,0.7-2.9,1C416.1,90.2,414.9,90.4,413.6,90.4z M406.5,72.1h11.6c0-3.2-0.5-5.5-1.3-7.1
		c-0.9-1.6-2.2-2.4-4-2.4c-2,0-3.5,0.8-4.5,2.4C407.2,66.5,406.6,68.9,406.5,72.1z"/>
</g>
</svg>
