<?xml version="1.0" encoding="utf-8"?>
<!-- Generator: Adobe Illustrator 24.1.2, SVG Export Plug-In . SVG Version: 6.00 Build 0)  -->
<svg version="1.1" id="Ebene_1" xmlns="http://www.w3.org/2000/svg" xmlns:xlink="http://www.w3.org/1999/xlink" x="0px" y="0px"
	 viewBox="0 0 196 164.8" style="enable-background:new 0 0 196 164.8;" xml:space="preserve">
<style type="text/css">
	.st0{fill:#5286A4;}
	.st1{display:none;fill:#FFFFFF;}
	.st2{fill:#FFFFFF;}
</style>
<rect x="-0.2" y="0.1" class="st0" width="195.9" height="165.1"/>
<g>
	<g>
		<g>
			<path class="st1" d="M155.1,89.1V84H144V66v-0.2c0-6-3.1-11.6-8.2-14.7L106.2,33c-0.7-0.5-1.6-0.7-2.5-0.7H98h-5.7
				c-0.9,0-1.7,0.2-2.5,0.7L60.2,51.1c-5.1,3.1-8.2,8.7-8.2,14.7V66v18H40.9c0,0,0,5,0,5.1c-2.9,0-5.9,0-8.8,0v2.6h45.5l10.5-41.5
				l14.1,57.6l4.5-16.1h54.4v-2.6H155.1z"/>
			<path class="st2" d="M163.6,94.3L163.6,94.3l-54.9,0.1l-4,14.2c-0.3,1-1.3,1.8-2.5,1.8s-2.2-0.8-2.5-2L88.1,60.9l-7.9,31.4
				c-0.3,1.2-1.3,2-2.5,2H40.9h-8.8v5H52v0.2c0,6,3.1,11.6,8.2,14.7l29.6,18.1c0.7,0.5,1.6,0.7,2.5,0.7H98h5.7
				c0.9,0,1.7-0.2,2.5-0.7l29.6-18.1c5.1-3.1,8.2-8.7,8.2-14.7v-0.2h19.7L163.6,94.3L163.6,94.3z"/>
		</g>
		<path class="st2" d="M85.6,49.6c0.3-1.2,1.3-2,2.5-2s2.2,0.8,2.5,2l11.7,48l1.8-6.5c0.3-1.1,1.3-1.9,2.5-1.9h48.5v-0.1V84H144V66
			v-0.2c0-6-3.1-11.6-8.2-14.7L106.2,33c-0.7-0.5-1.6-0.7-2.5-0.7H98h-5.7c-0.9,0-1.7,0.2-2.5,0.7L60.2,51.1
			c-5.1,3.1-8.2,8.7-8.2,14.7V66v18H40.9c0,0,0,5,0,5.1h34.7L85.6,49.6z"/>
	</g>
</g>
</svg>
