<?xml version="1.0" encoding="utf-8"?>
<!-- Generator: Adobe Illustrator 24.1.2, SVG Export Plug-In . SVG Version: 6.00 Build 0)  -->
<svg version="1.1" id="Ebene_1" xmlns="http://www.w3.org/2000/svg" xmlns:xlink="http://www.w3.org/1999/xlink" x="0px" y="0px"
	 viewBox="0 0 198.1 89.8" style="enable-background:new 0 0 198.1 89.8;" xml:space="preserve">
<style type="text/css">
	.st0{fill:#5286A4;}
</style>
<g>
	<path class="st0" d="M34.7,63.3c-0.9,0-1.4-0.3-1.4-0.8V41.5c0-1,0-1.9-0.1-2.5c-0.1-0.7-0.1-1.2-0.2-1.6c-0.1-0.4-0.1-0.6-0.1-0.7
		c0-0.2,0.1-0.3,0.3-0.4c0.2-0.1,0.4-0.2,0.7-0.2c0.2-0.1,0.5-0.1,0.7-0.1c0.2,0,0.4,0,0.5,0c0.5,0,0.8,0.3,0.9,0.8s0.2,1.1,0.3,1.8
		c0.6-0.9,1.2-1.7,2-2.1c0.8-0.5,1.6-0.7,2.4-0.7c1.2,0,2.3,0.4,3.2,1.3s1.6,2.1,2,3.6c0.5,1.5,0.7,3.3,0.7,5.2
		c0,3.2-0.6,5.6-1.7,7.3c-1.1,1.7-2.6,2.6-4.5,2.6c-0.9,0-1.7-0.2-2.3-0.5c-0.6-0.4-1.1-0.8-1.6-1.4v8.6c0,0.5-0.5,0.8-1.4,0.8H34.7
		z M39.7,52.9c1.2,0,2.1-0.6,2.7-1.8c0.6-1.2,0.9-3,0.9-5.3c0-2.3-0.3-4.1-0.8-5.4s-1.4-2-2.5-2c-0.6,0-1.2,0.2-1.8,0.7
		c-0.6,0.4-1.1,1.1-1.6,1.9v10.2c0.4,0.6,0.9,1,1.4,1.3C38.5,52.8,39,52.9,39.7,52.9z"/>
	<path class="st0" d="M52.9,55.6c-1,0-1.5-0.3-1.5-0.8V41.5c0-1,0-1.9-0.1-2.5c-0.1-0.7-0.2-1.2-0.2-1.5C51,37.1,51,36.9,51,36.8
		c0-0.2,0.1-0.3,0.2-0.4c0.2-0.1,0.4-0.2,0.6-0.3c0.2-0.1,0.4-0.1,0.7-0.1c0.2,0,0.4,0,0.5,0c0.3,0,0.5,0.1,0.7,0.4
		c0.2,0.3,0.3,0.6,0.4,1c0.1,0.4,0.2,0.8,0.2,1.1c0.6-0.9,1.2-1.6,1.9-2.1c0.7-0.5,1.4-0.7,2.1-0.7c0.4,0,0.8,0.1,1.1,0.2
		c0.3,0.1,0.5,0.3,0.7,0.5s0.2,0.5,0.2,0.7c0,0.2,0,0.5-0.1,0.8s-0.1,0.6-0.3,0.8c-0.1,0.2-0.2,0.4-0.4,0.4c-0.2,0-0.4-0.1-0.7-0.2
		s-0.6-0.2-1.2-0.2c-0.5,0-1,0.1-1.4,0.4c-0.4,0.3-0.8,0.6-1.1,1c-0.3,0.4-0.5,0.6-0.6,0.8v13.7c0,0.5-0.5,0.8-1.5,0.8H52.9z"/>
	<path class="st0" d="M64.2,32.8c-0.6,0-1-0.1-1.3-0.2s-0.4-0.3-0.4-0.6v-1.9c0-0.2,0.1-0.4,0.4-0.6s0.7-0.2,1.3-0.2
		c0.6,0,1,0.1,1.3,0.2s0.4,0.3,0.4,0.6V32c0,0.2-0.1,0.4-0.4,0.6C65.2,32.7,64.8,32.8,64.2,32.8z M64.1,55.6c-1,0-1.5-0.3-1.5-0.8
		V36.7c0-0.5,0.5-0.8,1.5-0.8h0.2c1,0,1.5,0.3,1.5,0.8v18.1c0,0.5-0.5,0.8-1.5,0.8H64.1z"/>
	<path class="st0" d="M73.2,55.6c-0.9,0-1.4-0.3-1.4-0.8V41.5c0-1,0-1.9-0.1-2.5c-0.1-0.7-0.1-1.2-0.2-1.5c-0.1-0.3-0.1-0.6-0.1-0.6
		c0-0.2,0.1-0.3,0.3-0.4c0.2-0.1,0.4-0.2,0.7-0.3c0.2-0.1,0.5-0.1,0.7-0.1c0.2,0,0.4,0,0.5,0c0.5,0,0.8,0.3,0.9,0.8
		c0.1,0.5,0.2,1.1,0.3,1.7c0.5-0.9,1.2-1.6,2.1-2.1c0.8-0.5,1.7-0.7,2.7-0.7c1.5,0,2.7,0.5,3.6,1.6c0.8,1,1.3,2.5,1.3,4.3v13.2
		c0,0.2-0.1,0.4-0.3,0.6s-0.6,0.2-1.1,0.2h-0.4c-0.5,0-0.9-0.1-1.1-0.2c-0.2-0.1-0.4-0.3-0.4-0.6V41.8c0-1.1-0.2-1.9-0.7-2.5
		c-0.4-0.6-1.1-0.9-2-0.9c-0.7,0-1.4,0.2-2,0.7S75.4,40.3,75,41v13.7c0,0.5-0.5,0.8-1.4,0.8H73.2z"/>
	<path class="st0" d="M95,55.7c-0.6,0-1.2-0.1-1.8-0.3c-0.6-0.2-1.2-0.7-1.7-1.3s-0.7-1.6-0.7-2.9V38.6h-1.2c-0.5,0-0.7-0.4-0.7-1.1
		V37c0-0.7,0.2-1.1,0.7-1.1h1.2l0.4-3.9c0-0.5,0.4-0.8,1.2-0.8h0.4c0.7,0,1.1,0.3,1.1,0.8v3.9h2.5c0.5,0,0.7,0.4,0.7,1.1v0.4
		c0,0.7-0.2,1.1-0.7,1.1h-2.5v12c0,1,0.1,1.6,0.4,1.9c0.3,0.3,0.6,0.4,1,0.4c0.4,0,0.7,0,0.8-0.1c0.2-0.1,0.3-0.1,0.4-0.1
		c0.2,0,0.3,0.1,0.4,0.4s0.2,0.5,0.3,0.8c0.1,0.3,0.1,0.5,0.1,0.6c0,0.3-0.1,0.6-0.4,0.7c-0.3,0.1-0.6,0.2-1,0.3
		C95.6,55.7,95.3,55.7,95,55.7z"/>
	<path class="st0" d="M111.6,55.6c-0.7,0-1.1-0.3-1.1-0.8v-5.5h-9.2c-0.1,0-0.3-0.1-0.4-0.3c-0.1-0.2-0.3-0.5-0.4-0.8
		c-0.1-0.3-0.1-0.6-0.1-0.8c0-0.1,0-0.2,0-0.2c0-0.1,0-0.1,0.1-0.2l10-17.2c0.1-0.2,0.3-0.3,0.5-0.4s0.5-0.1,0.7-0.1h0.7
		c0.7,0,1.1,0.3,1.1,0.8v16.5h2.1c0.5,0,0.7,0.4,0.7,1.1v0.4c0,0.7-0.2,1.1-0.7,1.1h-2.1v5.5c0,0.5-0.4,0.8-1.1,0.8H111.6z
		 M103.7,46.5h6.8v-7.5c0-1.1,0-2,0.1-2.7c0.1-0.7,0.1-1.3,0.2-1.9l-0.1-0.1L103.7,46.5z"/>
	<path class="st0" d="M125.7,55.7c-0.5,0-1.1-0.1-1.7-0.3c-0.6-0.2-1.2-0.7-1.6-1.3s-0.7-1.6-0.7-2.9v-23c0-0.5,0.5-0.8,1.5-0.8h0.1
		c1,0,1.5,0.3,1.5,0.8v22.7c0,0.9,0.1,1.4,0.4,1.7s0.6,0.4,1,0.4c0.3,0,0.6,0,0.8-0.1c0.2-0.1,0.3-0.1,0.4-0.1
		c0.2,0,0.3,0.1,0.4,0.4c0.1,0.2,0.2,0.5,0.3,0.8c0.1,0.3,0.1,0.5,0.1,0.6c0,0.3-0.1,0.5-0.4,0.7c-0.3,0.2-0.6,0.3-1,0.4
		C126.4,55.7,126,55.7,125.7,55.7z"/>
	<path class="st0" d="M133.3,32.8c-0.6,0-1-0.1-1.3-0.2s-0.4-0.3-0.4-0.6v-1.9c0-0.2,0.1-0.4,0.4-0.6s0.7-0.2,1.3-0.2
		c0.6,0,1,0.1,1.3,0.2s0.4,0.3,0.4,0.6V32c0,0.2-0.1,0.4-0.4,0.6C134.3,32.7,133.9,32.8,133.3,32.8z M133.2,55.6
		c-1,0-1.5-0.3-1.5-0.8V36.7c0-0.5,0.5-0.8,1.5-0.8h0.1c1,0,1.5,0.3,1.5,0.8v18.1c0,0.5-0.5,0.8-1.5,0.8H133.2z"/>
	<path class="st0" d="M143,55.6c-1,0-1.5-0.3-1.5-0.8V38.6h-1.1c-0.5,0-0.7-0.4-0.7-1.1V37c0-0.7,0.2-1.1,0.7-1.1h1.1v-4
		c0-1.4,0.2-2.4,0.7-3.1c0.5-0.7,1.1-1.1,1.7-1.3c0.7-0.2,1.3-0.3,1.8-0.3c0.4,0,0.8,0,1.2,0.1c0.4,0.1,0.7,0.2,1,0.4
		s0.4,0.4,0.4,0.7c0,0.1,0,0.3-0.1,0.6c-0.1,0.3-0.2,0.6-0.3,0.8c-0.1,0.2-0.3,0.4-0.5,0.4c-0.1,0-0.3,0-0.5-0.1
		c-0.2-0.1-0.5-0.1-0.9-0.1c-0.4,0-0.8,0.1-1.1,0.4c-0.3,0.3-0.5,0.9-0.5,2v3.7h2.5c0.5,0,0.7,0.4,0.7,1.1v0.4
		c0,0.7-0.2,1.1-0.7,1.1h-2.5v16.1c0,0.5-0.5,0.8-1.5,0.8H143z"/>
	<path class="st0" d="M158.6,55.7c-2.6,0-4.6-0.8-5.9-2.4c-1.3-1.6-1.9-4.1-1.9-7.4c0-2.2,0.3-4,0.8-5.6c0.5-1.5,1.4-2.6,2.5-3.4
		c1.1-0.8,2.5-1.2,4.1-1.2c2.2,0,3.8,0.8,4.9,2.5c1.1,1.7,1.6,4.1,1.6,7.3c0,0.1-0.1,0.3-0.2,0.6c-0.1,0.2-0.3,0.5-0.5,0.7
		c-0.2,0.2-0.4,0.3-0.5,0.3h-9.3c0.1,2.1,0.5,3.6,1.2,4.6c0.7,1,1.7,1.5,3.2,1.5c0.9,0,1.7-0.1,2.3-0.4c0.6-0.3,1.1-0.5,1.4-0.8
		s0.5-0.4,0.7-0.4c0.2,0,0.4,0.1,0.6,0.4s0.4,0.5,0.5,0.8c0.2,0.3,0.2,0.5,0.2,0.7c0,0.2-0.1,0.5-0.4,0.7c-0.3,0.3-0.7,0.5-1.2,0.8
		s-1.1,0.5-1.8,0.6C160.1,55.6,159.4,55.7,158.6,55.7z M154.1,44.3h7.2c0-2-0.3-3.4-0.8-4.4c-0.6-1-1.4-1.5-2.5-1.5
		c-1.2,0-2.2,0.5-2.8,1.5C154.6,40.9,154.2,42.3,154.1,44.3z"/>
</g>
</svg>
