<?xml version="1.0" encoding="utf-8"?>
<!-- Generator: Adobe Illustrator 24.1.2, SVG Export Plug-In . SVG Version: 6.00 Build 0)  -->
<svg version="1.1" id="Ebene_1" xmlns="http://www.w3.org/2000/svg" xmlns:xlink="http://www.w3.org/1999/xlink" x="0px" y="0px"
	 viewBox="0 0 198.4 206.1" style="enable-background:new 0 0 198.4 206.1;" xml:space="preserve">
<style type="text/css">
	.st0{display:none;fill:#DE5C47;}
	.st1{fill:#DE5C47;}
	.st2{fill:#40B39F;}
	.st3{fill:#FFFFFF;}
	.st4{fill:#5286A4;}
</style>
<g>
	<g>
		<g>
			<path class="st0" d="M156.9,84.3v-5.1h-11.1v-18V61c0-6-3.1-11.6-8.2-14.7L108,28.2c-0.7-0.5-1.6-0.7-2.5-0.7h-5.7h-5.7
				c-0.9,0-1.7,0.2-2.5,0.7L62,46.3c-5.1,3.1-8.2,8.7-8.2,14.7v0.2v18H42.7c0,0,0,5,0,5.1c-2.9,0-5.9,0-8.8,0v2.6h45.5l10.5-41.5
				L104,103l4.5-16.1h54.4v-2.6H156.9z"/>
			<path class="st1" d="M156.9,89.4v-2.6h-48.4l-4.5,16.1L89.9,45.4L79.4,86.9H42.7v2.6h-8.8v5h19.9v0.2c0,6,3.1,11.6,8.2,14.7
				l29.6,18.1c0.7,0.5,1.6,0.7,2.5,0.7h5.7h5.7c0.9,0,1.7-0.2,2.5-0.7l29.6-18.1c5.1-3.1,8.2-8.7,8.2-14.7v-0.2h19.7v-5L156.9,89.4
				L156.9,89.4z"/>
		</g>
		<path class="st2" d="M156.9,84.3v-5.1h-11.1v-18V61c0-6-3.1-11.6-8.2-14.7L108,28.2c-0.7-0.5-1.6-0.7-2.5-0.7h-5.7h-5.7
			c-0.9,0-1.7,0.2-2.5,0.7L62,46.3c-5.1,3.1-8.2,8.7-8.2,14.7v0.2v18H42.7c0,0,0,5,0,5.1l0,0v2.6h36.7l10.5-41.5L104,103l4.5-16.1
			h48.4V84.3L156.9,84.3z"/>
		<path class="st3" d="M104,105.6L104,105.6c-1.2,0-2.2-0.8-2.5-2L89.9,56.1L82,87.5c-0.3,1.2-1.3,2-2.5,2H33.8v-5.2h43.6l10-39.5
			c0.3-1.2,1.3-2,2.5-2l0,0c1.2,0,2.2,0.8,2.5,2l11.7,48l1.8-6.5c0.3-1.1,1.3-1.9,2.5-1.9h57v5.2h-54.9l-4,14.2
			C106.2,104.8,105.2,105.6,104,105.6z"/>
	</g>
</g>
<g>
	<path class="st4" d="M35.6,178.7c-0.9,0-1.4-0.3-1.4-0.8V157c0-1,0-1.9-0.1-2.5c-0.1-0.7-0.1-1.2-0.2-1.6c-0.1-0.4-0.1-0.6-0.1-0.7
		c0-0.2,0.1-0.3,0.3-0.4s0.4-0.2,0.7-0.2c0.2-0.1,0.5-0.1,0.7-0.1c0.2,0,0.4,0,0.5,0c0.5,0,0.8,0.3,0.9,0.8s0.2,1.1,0.3,1.8
		c0.6-0.9,1.2-1.7,2-2.1c0.8-0.5,1.6-0.7,2.4-0.7c1.2,0,2.3,0.4,3.2,1.3c0.9,0.9,1.6,2.1,2,3.6c0.5,1.5,0.7,3.3,0.7,5.2
		c0,3.2-0.6,5.6-1.7,7.3c-1.1,1.7-2.6,2.6-4.5,2.6c-0.9,0-1.7-0.2-2.3-0.5c-0.6-0.4-1.1-0.8-1.6-1.4v8.6c0,0.5-0.5,0.8-1.4,0.8H35.6
		z M40.6,168.4c1.2,0,2.1-0.6,2.7-1.8c0.6-1.2,0.9-3,0.9-5.3c0-2.3-0.3-4.1-0.8-5.4c-0.6-1.3-1.4-2-2.5-2c-0.6,0-1.2,0.2-1.8,0.7
		c-0.6,0.4-1.1,1.1-1.6,1.9v10.2c0.4,0.6,0.9,1,1.4,1.3C39.4,168.2,40,168.4,40.6,168.4z"/>
	<path class="st4" d="M53.9,171c-1,0-1.5-0.3-1.5-0.8V157c0-1,0-1.9-0.1-2.5c-0.1-0.7-0.1-1.2-0.2-1.5c-0.1-0.3-0.1-0.6-0.1-0.6
		c0-0.2,0.1-0.3,0.2-0.4c0.2-0.1,0.4-0.2,0.6-0.3c0.2-0.1,0.4-0.1,0.7-0.1c0.2,0,0.4,0,0.5,0c0.3,0,0.5,0.1,0.7,0.4
		c0.2,0.3,0.3,0.6,0.4,1c0.1,0.4,0.2,0.8,0.2,1.1c0.6-0.9,1.2-1.6,1.9-2.1c0.7-0.5,1.4-0.7,2.1-0.7c0.4,0,0.8,0.1,1.1,0.2
		c0.3,0.1,0.5,0.3,0.7,0.5c0.1,0.2,0.2,0.5,0.2,0.7c0,0.2,0,0.5-0.1,0.8c-0.1,0.3-0.1,0.6-0.3,0.8c-0.1,0.2-0.2,0.4-0.4,0.4
		c-0.2,0-0.4-0.1-0.7-0.2s-0.6-0.2-1.2-0.2c-0.5,0-1,0.1-1.4,0.4c-0.4,0.3-0.8,0.6-1.1,1c-0.3,0.4-0.5,0.6-0.6,0.8v13.7
		c0,0.5-0.5,0.8-1.5,0.8H53.9z"/>
	<path class="st4" d="M65.1,148.2c-0.6,0-1-0.1-1.3-0.2c-0.3-0.1-0.4-0.3-0.4-0.6v-1.9c0-0.2,0.1-0.4,0.4-0.6
		c0.3-0.1,0.7-0.2,1.3-0.2c0.6,0,1,0.1,1.3,0.2s0.4,0.3,0.4,0.6v1.9c0,0.2-0.1,0.4-0.4,0.6C66.1,148.1,65.7,148.2,65.1,148.2z
		 M65,171c-1,0-1.5-0.3-1.5-0.8v-18.1c0-0.5,0.5-0.8,1.5-0.8h0.1c1,0,1.5,0.3,1.5,0.8v18.1c0,0.5-0.5,0.8-1.5,0.8H65z"/>
	<path class="st4" d="M74.1,171c-0.9,0-1.4-0.3-1.4-0.8V157c0-1,0-1.9-0.1-2.5c-0.1-0.7-0.1-1.2-0.2-1.5c-0.1-0.3-0.1-0.6-0.1-0.6
		c0-0.2,0.1-0.3,0.3-0.4s0.4-0.2,0.7-0.3c0.2-0.1,0.5-0.1,0.7-0.1c0.2,0,0.4,0,0.5,0c0.5,0,0.8,0.3,0.9,0.8c0.1,0.5,0.2,1.1,0.3,1.7
		c0.5-0.9,1.2-1.6,2.1-2.1s1.7-0.7,2.7-0.7c1.5,0,2.7,0.5,3.6,1.6c0.8,1,1.3,2.5,1.3,4.3v13.2c0,0.2-0.1,0.4-0.3,0.6
		s-0.6,0.2-1.1,0.2h-0.4c-0.5,0-0.9-0.1-1.1-0.2c-0.2-0.1-0.4-0.3-0.4-0.6v-12.9c0-1.1-0.2-1.9-0.7-2.5c-0.4-0.6-1.1-0.9-2-0.9
		c-0.7,0-1.4,0.2-2,0.7c-0.6,0.5-1.1,1.1-1.5,1.9v13.7c0,0.5-0.5,0.8-1.4,0.8H74.1z"/>
	<path class="st4" d="M95.9,171.1c-0.6,0-1.2-0.1-1.8-0.3c-0.6-0.2-1.2-0.7-1.7-1.3c-0.5-0.6-0.7-1.6-0.7-2.9v-12.6h-1.2
		c-0.5,0-0.7-0.4-0.7-1.1v-0.4c0-0.7,0.2-1.1,0.7-1.1h1.2l0.4-3.9c0-0.5,0.4-0.8,1.2-0.8h0.4c0.7,0,1.1,0.3,1.1,0.8v3.9h2.5
		c0.5,0,0.7,0.4,0.7,1.1v0.4c0,0.7-0.2,1.1-0.7,1.1h-2.5v12c0,1,0.1,1.6,0.4,1.9c0.3,0.3,0.6,0.4,1,0.4c0.4,0,0.7,0,0.8-0.1
		c0.2-0.1,0.3-0.1,0.4-0.1c0.2,0,0.3,0.1,0.4,0.4s0.2,0.5,0.3,0.8c0.1,0.3,0.1,0.5,0.1,0.6c0,0.3-0.1,0.6-0.4,0.7
		c-0.3,0.1-0.6,0.2-1,0.3C96.5,171.1,96.2,171.1,95.9,171.1z"/>
	<path class="st4" d="M112.5,171c-0.7,0-1.1-0.3-1.1-0.8v-5.5h-9.2c-0.1,0-0.3-0.1-0.4-0.3c-0.1-0.2-0.3-0.5-0.4-0.8
		c-0.1-0.3-0.1-0.6-0.1-0.8c0-0.1,0-0.2,0-0.2c0-0.1,0-0.1,0.1-0.2l10-17.2c0.1-0.2,0.3-0.3,0.5-0.4s0.5-0.1,0.7-0.1h0.7
		c0.7,0,1.1,0.3,1.1,0.8V162h2.1c0.5,0,0.7,0.4,0.7,1.1v0.4c0,0.7-0.2,1.1-0.7,1.1h-2.1v5.5c0,0.5-0.4,0.8-1.1,0.8H112.5z
		 M104.6,162h6.8v-7.5c0-1.1,0-2,0.1-2.7c0.1-0.7,0.1-1.3,0.2-1.9l-0.1-0.1L104.6,162z"/>
	<path class="st4" d="M126.6,171.1c-0.5,0-1.1-0.1-1.7-0.3c-0.6-0.2-1.2-0.7-1.6-1.3s-0.7-1.6-0.7-2.9v-23c0-0.5,0.5-0.8,1.5-0.8
		h0.1c1,0,1.5,0.3,1.5,0.8v22.7c0,0.9,0.1,1.4,0.4,1.7s0.6,0.4,1,0.4c0.3,0,0.6,0,0.8-0.1c0.2-0.1,0.3-0.1,0.4-0.1
		c0.2,0,0.3,0.1,0.4,0.4c0.1,0.2,0.2,0.5,0.3,0.8c0.1,0.3,0.1,0.5,0.1,0.6c0,0.3-0.1,0.5-0.4,0.7c-0.3,0.2-0.6,0.3-1,0.4
		C127.3,171.1,126.9,171.1,126.6,171.1z"/>
	<path class="st4" d="M134.2,148.2c-0.6,0-1-0.1-1.3-0.2s-0.4-0.3-0.4-0.6v-1.9c0-0.2,0.1-0.4,0.4-0.6s0.7-0.2,1.3-0.2
		c0.6,0,1,0.1,1.3,0.2s0.4,0.3,0.4,0.6v1.9c0,0.2-0.1,0.4-0.4,0.6C135.3,148.1,134.8,148.2,134.2,148.2z M134.1,171
		c-1,0-1.5-0.3-1.5-0.8v-18.1c0-0.5,0.5-0.8,1.5-0.8h0.1c1,0,1.5,0.3,1.5,0.8v18.1c0,0.5-0.5,0.8-1.5,0.8H134.1z"/>
	<path class="st4" d="M143.9,171c-1,0-1.5-0.3-1.5-0.8v-16.1h-1.1c-0.5,0-0.7-0.4-0.7-1.1v-0.4c0-0.7,0.2-1.1,0.7-1.1h1.1v-4
		c0-1.4,0.2-2.4,0.7-3.1c0.5-0.7,1.1-1.1,1.7-1.3c0.7-0.2,1.3-0.3,1.8-0.3c0.4,0,0.8,0,1.2,0.1c0.4,0.1,0.7,0.2,1,0.4
		s0.4,0.4,0.4,0.7c0,0.1,0,0.3-0.1,0.6c-0.1,0.3-0.2,0.6-0.3,0.8c-0.1,0.2-0.3,0.4-0.5,0.4c-0.1,0-0.3,0-0.5-0.1
		c-0.2-0.1-0.5-0.1-0.9-0.1c-0.4,0-0.8,0.1-1.1,0.4c-0.3,0.3-0.5,0.9-0.5,2v3.7h2.5c0.5,0,0.7,0.4,0.7,1.1v0.4
		c0,0.7-0.2,1.1-0.7,1.1h-2.5v16.1c0,0.5-0.5,0.8-1.5,0.8H143.9z"/>
	<path class="st4" d="M159.5,171.1c-2.6,0-4.6-0.8-5.9-2.4c-1.3-1.6-1.9-4.1-1.9-7.4c0-2.2,0.3-4,0.8-5.6c0.5-1.5,1.4-2.6,2.5-3.4
		c1.1-0.8,2.5-1.2,4.1-1.2c2.2,0,3.8,0.8,4.9,2.5c1.1,1.7,1.6,4.1,1.6,7.3c0,0.1-0.1,0.3-0.2,0.6c-0.1,0.2-0.3,0.5-0.5,0.7
		c-0.2,0.2-0.4,0.3-0.5,0.3h-9.3c0.1,2.1,0.5,3.6,1.2,4.6c0.7,1,1.7,1.5,3.2,1.5c0.9,0,1.7-0.1,2.3-0.4c0.6-0.3,1.1-0.5,1.4-0.8
		s0.5-0.4,0.7-0.4c0.2,0,0.4,0.1,0.6,0.4s0.4,0.5,0.5,0.8c0.2,0.3,0.2,0.5,0.2,0.7c0,0.2-0.1,0.5-0.4,0.7c-0.3,0.3-0.7,0.5-1.2,0.8
		s-1.1,0.5-1.8,0.6C161.1,171.1,160.3,171.1,159.5,171.1z M155.1,159.7h7.2c0-2-0.3-3.4-0.8-4.4c-0.6-1-1.4-1.5-2.5-1.5
		c-1.2,0-2.2,0.5-2.8,1.5C155.5,156.3,155.2,157.8,155.1,159.7z"/>
</g>
</svg>
