<?xml version="1.0" encoding="UTF-8" standalone="no"?>
<svg
   xmlns:dc="http://purl.org/dc/elements/1.1/"
   xmlns:cc="http://creativecommons.org/ns#"
   xmlns:rdf="http://www.w3.org/1999/02/22-rdf-syntax-ns#"
   xmlns:svg="http://www.w3.org/2000/svg"
   xmlns="http://www.w3.org/2000/svg"
   viewBox="0 0 136.78667 49.666668"
   height="49.666668"
   width="136.78667"
   xml:space="preserve"
   id="svg2"
   version="1.1"><metadata
     id="metadata8"><rdf:RDF><cc:Work
         rdf:about=""><dc:format>image/svg+xml</dc:format><dc:type
           rdf:resource="http://purl.org/dc/dcmitype/StillImage" /></cc:Work></rdf:RDF></metadata><defs
     id="defs6" /><g
     transform="matrix(1.3333333,0,0,-1.3333333,0,49.666667)"
     id="g10"><g
       transform="scale(0.1)"
       id="g12"><path
         id="path14"
         style="fill:#176fc1;fill-opacity:1;fill-rule:nonzero;stroke:none"
         d="M 17.4453,0.90625 V 45.1992 H 1.625 v 9.0196 H 43.9883 V 45.1992 H 28.207 V 0.90625 H 17.4453" /><path
         id="path16"
         style="fill:#176fc1;fill-opacity:1;fill-rule:nonzero;stroke:none"
         d="M 50.9375,0.90625 V 54.2188 H 90.4648 V 45.1992 H 61.6992 V 33.3789 H 88.4648 V 24.3984 H 61.6992 V 9.89063 H 91.4805 V 0.90625 h -40.543" /><path
         id="path18"
         style="fill:#176fc1;fill-opacity:1;fill-rule:nonzero;stroke:none"
         d="m 134.715,20.5078 10.437,-3.3086 C 143.551,11.3789 140.895,7.05859 137.172,4.23438 133.449,1.41016 128.727,0 123.004,0 115.93,0 110.113,2.41797 105.551,7.25391 100.992,12.0898 98.7188,18.7031 98.7188,27.0898 c 0,8.875 2.2892,15.7657 6.8712,20.6719 4.582,4.9102 10.605,7.3633 18.07,7.3633 6.524,0 11.82,-1.9258 15.895,-5.7812 2.422,-2.2774 4.238,-5.5508 5.453,-9.8165 l -10.656,-2.5468 c -0.629,2.7617 -1.946,4.9453 -3.946,6.5468 -2,1.6016 -4.429,2.3985 -7.289,2.3985 -3.953,0 -7.16,-1.418 -9.621,-4.2539 -2.457,-2.836 -3.687,-7.4297 -3.687,-13.7813 0,-6.7422 1.211,-11.539 3.632,-14.4023 2.426,-2.8594 5.579,-4.28908 9.454,-4.28908 2.863,0 5.324,0.91018 7.382,2.72658 2.067,1.8203 3.539,4.6797 4.438,8.582" /><path
         id="path20"
         style="fill:#176fc1;fill-opacity:1;fill-rule:nonzero;stroke:none"
         d="M 154.426,0.90625 V 54.2188 h 10.765 V 33.2344 h 21.09 v 20.9844 h 10.766 V 0.90625 H 186.281 V 24.2148 h -21.09 V 0.90625 h -10.765" /><path
         id="path22"
         style="fill:#176fc1;fill-opacity:1;fill-rule:nonzero;stroke:none"
         d="M 208.281,0.90625 V 54.2188 h 10.473 l 21.82,-35.6016 v 35.6016 h 9.996 V 0.90625 H 239.773 L 218.281,35.6719 V 0.90625 h -10" /><path
         id="path24"
         style="fill:#176fc1;fill-opacity:1;fill-rule:nonzero;stroke:none"
         d="M 261.625,0.90625 V 54.2188 h 10.766 V 0.90625 h -10.766" /><path
         id="path26"
         style="fill:#176fc1;fill-opacity:1;fill-rule:nonzero;stroke:none"
         d="M 282.785,0.90625 V 54.2188 h 10.766 V 30.5469 l 21.746,23.6719 h 14.469 L 309.699,33.4531 330.859,0.90625 H 316.934 L 302.277,25.9258 293.551,17.0195 V 0.90625 h -10.766" /><path
         id="path28"
         style="fill:#176fc1;fill-opacity:1;fill-rule:nonzero;stroke:none"
         d="m 331.805,0.90625 v 9.71095 l 28,34.582 h -24.836 v 9.0196 h 39.015 V 45.8516 L 344.789,9.89063 h 30.324 V 0.90625 h -43.308" /><path
         id="path30"
         style="fill:#176fc1;fill-opacity:1;fill-rule:nonzero;stroke:none"
         d="M 381.918,0.90625 V 54.2188 h 39.523 V 45.1992 H 392.676 V 33.3789 h 26.765 V 24.3984 H 392.676 V 9.89063 h 29.785 V 0.90625 h -40.543" /><path
         id="path32"
         style="fill:#176fc1;fill-opacity:1;fill-rule:nonzero;stroke:none"
         d="M 431.695,0.90625 V 54.2188 h 10.473 l 21.82,-35.6016 v 35.6016 h 9.996 V 0.90625 H 463.188 L 441.695,35.6719 V 0.90625 h -10" /><path
         id="path34"
         style="fill:#176fc1;fill-opacity:1;fill-rule:nonzero;stroke:none"
         d="M 497.371,0.90625 V 45.1992 h -15.82 v 9.0196 h 42.363 V 45.1992 H 508.129 V 0.90625 h -10.758" /><path
         id="path36"
         style="fill:#176fc1;fill-opacity:1;fill-rule:nonzero;stroke:none"
         d="m 541.66,31.6719 h 7.965 c 5.16,0 8.387,0.2187 9.672,0.6523 1.281,0.4375 2.289,1.1875 3.016,2.2578 0.73,1.0664 1.089,2.3985 1.089,4 0,1.7891 -0.476,3.2422 -1.433,4.3438 -0.961,1.1015 -2.309,1.8008 -4.051,2.0937 -0.875,0.1211 -3.496,0.1797 -7.859,0.1797 H 541.66 Z M 530.895,0.90625 V 54.2188 h 22.656 c 5.695,0 9.836,-0.4805 12.414,-1.4415 2.582,-0.957 4.648,-2.6601 6.203,-5.1054 1.551,-2.4492 2.324,-5.2461 2.324,-8.4024 0,-3.9961 -1.172,-7.3007 -3.523,-9.9062 -2.356,-2.6055 -5.867,-4.25 -10.547,-4.9258 2.328,-1.3594 4.25,-2.8516 5.766,-4.4766 1.515,-1.625 3.558,-4.5078 6.125,-8.6523 L 578.82,0.90625 h -12.867 l -7.785,11.60155 c -2.766,4.1445 -4.656,6.7578 -5.672,7.836 -1.016,1.082 -2.098,1.8203 -3.234,2.2187 -1.141,0.4023 -2.949,0.5977 -5.422,0.5977 h -2.18 V 0.90625 h -10.765" /><path
         id="path38"
         style="fill:#176fc1;fill-opacity:1;fill-rule:nonzero;stroke:none"
         d="m 584.566,54.2188 h 10.766 v -28.875 c 0,-4.5782 0.133,-7.5508 0.398,-8.9063 0.465,-2.1836 1.563,-3.9375 3.293,-5.2578 1.735,-1.32032 4.106,-1.98048 7.11,-1.98048 3.055,0 5.355,0.625 6.91,1.87108 1.551,1.25 2.48,2.7852 2.797,4.6016 0.316,1.8203 0.473,4.8359 0.473,9.0547 v 29.4922 h 10.765 v -28 c 0,-6.4024 -0.293,-10.9219 -0.875,-13.5625 -0.582,-2.6446 -1.652,-4.87505 -3.215,-6.69536 C 621.422,4.14453 619.332,2.69531 616.715,1.61719 614.098,0.539063 610.676,0 606.457,0 c -5.09,0 -8.949,0.585938 -11.578,1.76172 -2.629,1.17578 -4.711,2.70312 -6.238,4.58203 -1.528,1.87891 -2.532,3.84765 -3.016,5.91015 -0.707,3.0547 -1.059,7.5625 -1.059,13.5274 v 28.4375" /><path
         id="path40"
         style="fill:#176fc1;fill-opacity:1;fill-rule:nonzero;stroke:none"
         d="M 638.273,0.90625 V 54.2188 h 16.11 l 9.672,-36.3672 9.566,36.3672 h 16.141 V 0.90625 h -9.996 V 42.8711 L 669.184,0.90625 H 658.82 L 648.273,42.8711 V 0.90625 h -10" /><path
         id="path42"
         style="fill:#176fc1;fill-opacity:1;fill-rule:nonzero;stroke:none"
         d="M 721.438,0.90625 V 53.7813 h 10.765 V 9.89063 h 26.762 V 0.90625 h -37.527" /><path
         id="path44"
         style="fill:#176fc1;fill-opacity:1;fill-rule:nonzero;stroke:none"
         d="m 791.367,57.2695 v 8.7657 h 8.797 v -8.7657 z m -15.637,0 v 8.7657 h 8.758 v -8.7657 z m -9.167,-3.0507 h 10.765 v -28.875 c 0,-4.5782 0.133,-7.5508 0.399,-8.9063 0.464,-2.1836 1.558,-3.9375 3.293,-5.2578 1.734,-1.32032 4.105,-1.98048 7.109,-1.98048 3.055,0 5.355,0.625 6.906,1.87108 1.555,1.25 2.485,2.7852 2.801,4.6016 0.316,1.8203 0.473,4.8359 0.473,9.0547 v 29.4922 h 10.765 v -28 c 0,-6.4024 -0.293,-10.9219 -0.875,-13.5625 -0.582,-2.6446 -1.652,-4.87505 -3.215,-6.69536 C 803.418,4.14453 801.328,2.69531 798.711,1.61719 796.094,0.539063 792.672,0 788.453,0 c -5.09,0 -8.949,0.585938 -11.578,1.76172 -2.629,1.17578 -4.711,2.70312 -6.238,4.58203 -1.528,1.87891 -2.532,3.84765 -3.02,5.91015 -0.703,3.0547 -1.054,7.5625 -1.054,13.5274 v 28.4375" /><path
         id="path46"
         style="fill:#176fc1;fill-opacity:1;fill-rule:nonzero;stroke:none"
         d="M 831.219,24.1445 V 9.89063 h 9.969 c 3.871,0 6.335,0.10937 7.375,0.32417 1.601,0.293 2.906,1.004 3.914,2.129 1,1.1289 1.507,2.6367 1.507,4.5273 0,1.6016 -0.386,2.957 -1.164,4.0703 -0.773,1.1172 -1.894,1.9297 -3.363,2.4414 -1.469,0.5078 -4.648,0.7617 -9.547,0.7617 z m 0,21.1993 V 33.0156 h 7.054 c 4.196,0 6.801,0.0625 7.817,0.1836 1.844,0.2188 3.293,0.8555 4.348,1.9102 1.054,1.0508 1.582,2.4414 1.582,4.1601 0,1.6524 -0.457,2.9883 -1.364,4.0196 -0.91,1.0312 -2.261,1.6562 -4.054,1.8711 -1.071,0.1211 -4.133,0.1836 -9.2,0.1836 z m -10.766,8.875 h 21.313 c 4.214,0 7.363,-0.1797 9.437,-0.5274 2.07,-0.3516 3.926,-1.0859 5.563,-2.1992 1.636,-1.1172 3,-2.6016 4.089,-4.457 1.09,-1.8555 1.637,-3.9336 1.637,-6.2344 0,-2.5 -0.672,-4.7891 -2.019,-6.875 -1.344,-2.086 -3.168,-3.6485 -5.473,-4.6914 3.25,-0.9453 5.746,-2.5547 7.492,-4.836 1.746,-2.2812 2.617,-4.957 2.617,-8.0351 0,-2.4258 -0.562,-4.7813 -1.687,-7.07424 C 862.297,7 860.754,5.16797 858.801,3.79688 856.852,2.42969 854.441,1.58594 851.582,1.27344 849.789,1.07813 845.461,0.957031 838.602,0.90625 H 820.453 V 54.2188" /><path
         id="path48"
         style="fill:#176fc1;fill-opacity:1;fill-rule:nonzero;stroke:none"
         d="M 874.203,0.90625 V 54.2188 H 913.73 V 45.1992 H 884.965 V 33.3789 H 911.73 V 24.3984 H 884.965 V 9.89063 h 29.781 V 0.90625 h -40.543" /><path
         id="path50"
         style="fill:#176fc1;fill-opacity:1;fill-rule:nonzero;stroke:none"
         d="m 957.98,20.5078 10.442,-3.3086 C 966.816,11.3789 964.16,7.05859 960.438,4.23438 956.715,1.41016 951.992,0 946.27,0 c -7.075,0 -12.891,2.41797 -17.45,7.25391 -4.562,4.83589 -6.836,11.44919 -6.836,19.83589 0,8.875 2.289,15.7657 6.871,20.6719 4.586,4.9102 10.606,7.3633 18.075,7.3633 6.519,0 11.82,-1.9258 15.89,-5.7812 2.422,-2.2774 4.239,-5.5508 5.453,-9.8165 l -10.656,-2.5468 c -0.629,2.7617 -1.941,4.9453 -3.945,6.5468 -2,1.6016 -4.43,2.3985 -7.285,2.3985 -3.957,0 -7.164,-1.418 -9.621,-4.2539 -2.461,-2.836 -3.692,-7.4297 -3.692,-13.7813 0,-6.7422 1.211,-11.539 3.633,-14.4023 2.426,-2.8594 5.578,-4.28908 9.457,-4.28908 2.859,0 5.32,0.91018 7.383,2.72658 2.062,1.8203 3.539,4.6797 4.433,8.582" /><path
         id="path52"
         style="fill:#176fc1;fill-opacity:1;fill-rule:nonzero;stroke:none"
         d="M 977.801,0.90625 V 54.2188 h 10.765 V 30.5469 l 21.744,23.6719 h 14.47 l -20.07,-20.7657 21.16,-32.54685 h -13.92 L 997.293,25.9258 988.566,17.0195 V 0.90625 h -10.765" /><path
         id="path54"
         style="fill:#176fc1;fill-opacity:1;fill-rule:evenodd;stroke:none"
         d="M 0,372.492 H 464.906 L 464.941,320.137 312.32,170.953 h 157.203 v -59.68 H 221.621 v 55.09 L 370.805,315.555 H 161.918 V 112.418 H 93.0781 V 315.555 H 0.0351563 L 0,372.492" /><path
         id="path56"
         style="fill:#176fc1;fill-opacity:1;fill-rule:evenodd;stroke:none"
         d="m 593.434,175.578 h 101.164 l 0.09,-64.07 H 518.91 l -0.09,260.984 h 74.532 l 0.082,-196.914" /><path
         id="path58"
         style="fill:#176fc1;fill-opacity:1;fill-rule:nonzero;stroke:none"
         d="m 694.688,372.152 h 90.816 v -90.824 h -90.816 v 90.824" /><path
         id="path60"
         style="fill:#6c99d7;fill-opacity:1;fill-rule:nonzero;stroke:none"
         d="m 813.145,372.516 h 90.82 v -90.821 h -90.82 v 90.821" /><path
         id="path62"
         style="fill:#b3c6ea;fill-opacity:1;fill-rule:nonzero;stroke:none"
         d="m 930.852,372.516 h 90.818 v -90.821 h -90.818 v 90.821" /></g></g></svg>