<?xml version="1.0" encoding="UTF-8" standalone="no"?>
<svg
   xmlns:dc="http://purl.org/dc/elements/1.1/"
   xmlns:cc="http://creativecommons.org/ns#"
   xmlns:rdf="http://www.w3.org/1999/02/22-rdf-syntax-ns#"
   xmlns:svg="http://www.w3.org/2000/svg"
   xmlns="http://www.w3.org/2000/svg"
   viewBox="0 0 629.62665 574.08002"
   height="574.08002"
   width="629.62665"
   xml:space="preserve"
   id="svg2"
   version="1.1"><metadata
     id="metadata8"><rdf:RDF><cc:Work
         rdf:about=""><dc:format>image/svg+xml</dc:format><dc:type
           rdf:resource="http://purl.org/dc/dcmitype/StillImage" /></cc:Work></rdf:RDF></metadata><defs
     id="defs6" /><g
     transform="matrix(1.3333333,0,0,-1.3333333,0,574.08)"
     id="g10"><g
       transform="scale(0.1)"
       id="g12"><path
         id="path14"
         style="fill:#107583;fill-opacity:1;fill-rule:nonzero;stroke:none"
         d="M 4722.22,0 H 0 V 4305.58 H 4722.22 V 0" /><path
         id="path16"
         style="fill:#ffffff;fill-opacity:1;fill-rule:nonzero;stroke:none"
         d="m 236.684,2371.29 c 284.742,113.38 1129.106,290.98 2126.446,290.98 994.19,0.01 1836.4,-177.08 2123.72,-289.92 l -1.31,-0.61 c -287.33,112.83 -1129.52,194.54 -2123.73,194.54 -997.34,0 -1841.697,-82.22 -2126.443,-195.6 l 1.317,0.61" /><path
         id="path18"
         style="fill:none;stroke:#ffffff;stroke-width:72;stroke-linecap:round;stroke-linejoin:round;stroke-miterlimit:4;stroke-dasharray:none;stroke-opacity:1"
         d="m 236.684,2371.29 c 284.742,113.38 1129.106,290.98 2126.446,290.98 994.19,0.01 1836.4,-177.08 2123.72,-289.92 l -1.31,-0.61 c -287.33,112.83 -1129.52,194.54 -2123.73,194.54 -997.34,0 -1841.697,-82.22 -2126.443,-195.6 z" /><path
         id="path20"
         style="fill:#ffffff;fill-opacity:1;fill-rule:nonzero;stroke:none"
         d="m 1162.2,3815.72 -95.24,-1780.15 h 198.4 z" /><path
         id="path22"
         style="fill:none;stroke:#ffffff;stroke-width:72;stroke-linecap:round;stroke-linejoin:round;stroke-miterlimit:4;stroke-dasharray:none;stroke-opacity:1"
         d="m 1162.2,3815.72 -95.24,-1780.15 h 198.4 z" /><path
         id="path24"
         style="fill:#ffffff;fill-opacity:1;fill-rule:nonzero;stroke:none"
         d="m 3553.67,3795.64 -95.23,-1780.15 h 198.39 z" /><path
         id="path26"
         style="fill:none;stroke:#ffffff;stroke-width:72;stroke-linecap:round;stroke-linejoin:round;stroke-miterlimit:4;stroke-dasharray:none;stroke-opacity:1"
         d="m 3553.67,3795.64 -95.23,-1780.15 h 198.39 z" /><path
         id="path28"
         style="fill:#ffffff;fill-opacity:1;fill-rule:nonzero;stroke:none"
         d="m 345.844,957.309 h 62.648 V 524.539 H 615.863 V 471.98 H 345.844 v 485.329" /><path
         id="path30"
         style="fill:#ffffff;fill-opacity:1;fill-rule:nonzero;stroke:none"
         d="M 828.238,957.309 V 471.98 h -62.636 v 485.329 h 62.636" /><path
         id="path32"
         style="fill:#ffffff;fill-opacity:1;fill-rule:nonzero;stroke:none"
         d="m 1017.59,957.309 h 62.65 v -432.77 h 207.37 V 471.98 h -270.02 v 485.329" /><path
         id="path34"
         style="fill:#ffffff;fill-opacity:1;fill-rule:nonzero;stroke:none"
         d="m 1437.35,957.309 h 62.64 v -432.77 h 207.38 V 471.98 h -270.02 v 485.329" /><path
         id="path36"
         style="fill:#ffffff;fill-opacity:1;fill-rule:nonzero;stroke:none"
         d="M 2108.39,699.52 H 1919.73 V 524.539 H 2130 V 471.98 h -272.91 v 485.329 h 262.1 V 904.73 H 1919.73 V 751.371 h 188.66 V 699.52" /><path
         id="path38"
         style="fill:#ffffff;fill-opacity:1;fill-rule:nonzero;stroke:none"
         d="m 2353.89,519.5 c 12.24,-2.148 30.24,-2.879 52.57,-2.879 64.79,0 124.56,23.77 124.56,94.32 0,66.25 -56.88,93.61 -125.29,93.61 h -51.84 z m 0,232.57 h 56.88 c 66.24,0 105.13,34.571 105.13,81.371 0,56.899 -43.2,79.219 -106.57,79.219 -28.79,0 -45.36,-2.172 -55.44,-4.32 z m -62.64,198.75 c 27.36,5.77 70.56,10.078 114.48,10.078 62.65,0 102.96,-10.796 133.22,-35.289 25.19,-18.711 40.31,-47.519 40.31,-85.679 0,-46.801 -30.96,-87.86 -82.08,-106.571 v -1.437 c 46.08,-11.531 100.09,-49.692 100.09,-121.68 0,-41.781 -16.57,-73.461 -41.05,-97.211 -33.84,-30.98 -88.56,-45.371 -167.77,-45.371 -43.2,0 -76.33,2.871 -97.2,5.762 V 950.82" /><path
         id="path40"
         style="fill:#ffffff;fill-opacity:1;fill-rule:nonzero;stroke:none"
         d="m 2969,673.602 -47.52,139.687 c -10.8,31.672 -17.99,60.481 -25.19,88.57 h -1.45 c -7.2,-28.808 -15.11,-58.32 -24.48,-87.847 l -47.53,-140.41 z M 2809.88,624.629 2759.47,471.98 h -64.8 l 164.89,485.329 h 75.61 L 3100.78,471.98 h -66.96 l -51.85,152.649 h -172.09" /><path
         id="path42"
         style="fill:#ffffff;fill-opacity:1;fill-rule:nonzero;stroke:none"
         d="m 3489.34,699.52 h -188.67 l 60.07,-174.981 h 210.27 l 18.04,-52.559 h -272.91 l -166.6,485.329 h 262.1 l 18.05,-52.579 h -199.47 l 52.65,-153.359 h 188.66 l 17.81,-51.851" /><path
         id="path44"
         style="fill:#ffffff;fill-opacity:1;fill-rule:nonzero;stroke:none"
         d="m 3696.1,957.309 h 62.65 v -432.77 h 207.37 V 471.98 H 3696.1 v 485.329" /><path
         id="path46"
         style="fill:#ffffff;fill-opacity:1;fill-rule:nonzero;stroke:none"
         d="m 4144.67,904.012 h -147.62 v 53.297 h 359.32 V 904.012 H 4208.03 V 471.98 h -63.36 v 432.032" /><path
         id="path48"
         style="fill:#ffffff;fill-opacity:1;fill-rule:nonzero;stroke:none"
         d="m 472.73,1344.18 h -96.949 v -89.91 h 108.047 v -27.01 H 343.59 v 249.4 h 134.691 v -27.01 h -102.5 v -78.83 h 96.949 v -26.64" /><path
         id="path50"
         style="fill:#ffffff;fill-opacity:1;fill-rule:nonzero;stroke:none"
         d="m 594.82,1359.73 h 32.934 c 34.414,0 56.246,18.87 56.246,47.36 0,32.19 -23.316,46.25 -57.355,46.62 -15.54,0 -26.645,-1.48 -31.825,-2.95 z m -32.191,113.59 c 16.281,3.34 39.594,5.18 61.797,5.18 34.414,0 56.609,-6.29 72.152,-20.34 12.582,-11.11 19.613,-28.13 19.613,-47.37 0,-32.93 -20.722,-54.76 -46.996,-63.64 v -1.11 c 19.243,-6.66 30.711,-24.42 36.633,-50.32 8.141,-34.79 14.059,-58.84 19.238,-68.46 H 691.77 c -4.075,7.4 -9.622,28.49 -16.653,59.58 -7.402,34.4 -20.722,47.36 -49.957,48.47 h -30.34 v -108.05 h -32.191 v 246.06" /><path
         id="path52"
         style="fill:#ffffff;fill-opacity:1;fill-rule:nonzero;stroke:none"
         d="m 830.875,1476.66 v -104.35 h 120.629 v 104.35 h 32.562 v -249.4 h -32.562 v 116.92 H 830.875 v -116.92 h -32.191 v 249.4 h 32.191" /><path
         id="path54"
         style="fill:#ffffff;fill-opacity:1;fill-rule:nonzero;stroke:none"
         d="m 1131.68,1227.26 -81.4,249.4 h 34.78 l 38.86,-122.85 c 10.72,-33.67 19.98,-64.02 26.64,-93.25 h 0.73 c 7.04,28.86 17.4,60.32 28.5,92.88 l 42.18,123.22 h 34.41 l -89.17,-249.4 h -35.53" /><path
         id="path56"
         style="fill:#ffffff;fill-opacity:1;fill-rule:nonzero;stroke:none"
         d="m 1449.52,1344.18 h -96.95 v -89.91 h 108.05 v -27.01 h -140.24 v 249.4 h 134.69 v -27.01 h -102.5 v -78.83 h 96.95 v -26.64" /><path
         id="path58"
         style="fill:#ffffff;fill-opacity:1;fill-rule:nonzero;stroke:none"
         d="m 1571.61,1359.73 h 32.93 c 34.42,0 56.25,18.87 56.25,47.36 0,32.19 -23.32,46.25 -57.36,46.62 -15.54,0 -26.64,-1.48 -31.82,-2.95 z m -32.2,113.59 c 16.29,3.34 39.6,5.18 61.8,5.18 34.42,0 56.61,-6.29 72.15,-20.34 12.59,-11.11 19.62,-28.13 19.62,-47.37 0,-32.93 -20.72,-54.76 -47,-63.64 v -1.11 c 19.24,-6.66 30.71,-24.42 36.64,-50.32 8.14,-34.79 14.05,-58.84 19.24,-68.46 h -33.31 c -4.07,7.4 -9.61,28.49 -16.65,59.58 -7.4,34.4 -20.72,47.36 -49.95,48.47 h -30.34 v -108.05 h -32.2 v 246.06" /><path
         id="path60"
         style="fill:#ffffff;fill-opacity:1;fill-rule:nonzero;stroke:none"
         d="m 1836.16,1227.26 -81.41,249.4 h 34.79 l 38.85,-122.85 c 10.73,-33.67 19.98,-64.02 26.64,-93.25 h 0.74 c 7.03,28.86 17.39,60.32 28.49,92.88 l 42.19,123.22 h 34.4 l -89.17,-249.4 h -35.52" /><path
         id="path62"
         style="fill:#ffffff;fill-opacity:1;fill-rule:nonzero;stroke:none"
         d="m 2020.41,1266.49 c 14.43,-8.89 35.52,-16.29 57.72,-16.29 32.93,0 52.18,17.39 52.18,42.56 0,23.31 -13.32,36.63 -46.99,49.58 -40.71,14.42 -65.87,35.52 -65.87,70.67 0,38.85 32.19,67.72 80.67,67.72 25.53,0 44.03,-5.92 55.13,-12.21 l -8.88,-26.27 c -8.14,4.43 -24.79,11.84 -47.36,11.84 -34.05,0 -47,-20.36 -47,-37.38 0,-23.31 15.18,-34.77 49.58,-48.1 42.19,-16.28 63.65,-36.63 63.65,-73.26 0,-38.49 -28.49,-72.16 -87.33,-72.16 -24.05,0 -50.32,7.4 -63.64,16.29 l 8.14,27.01" /><path
         id="path64"
         style="fill:#ffffff;fill-opacity:1;fill-rule:nonzero;stroke:none"
         d="m 2366.38,1330.86 -24.43,71.79 c -5.55,16.28 -9.24,31.08 -12.95,45.52 h -0.74 c -3.7,-14.81 -7.77,-29.98 -12.58,-45.15 l -24.42,-72.16 z m -81.78,-25.15 -25.91,-78.45 h -33.3 l 84.74,249.4 h 38.85 l 85.11,-249.4 h -34.41 l -26.64,78.45 h -88.44" /><path
         id="path66"
         style="fill:#ffffff;fill-opacity:1;fill-rule:nonzero;stroke:none"
         d="m 2507.71,1476.66 h 32.18 V 1356.4 h 1.12 c 6.66,9.62 13.32,18.51 19.61,26.64 l 76.23,93.62 h 39.96 l -90.3,-105.84 97.33,-143.56 h -38.12 l -82.15,122.48 -23.68,-27.38 v -95.1 h -32.18 v 249.4" /><path
         id="path68"
         style="fill:#ffffff;fill-opacity:1;fill-rule:nonzero;stroke:none"
         d="m 2871.04,1330.86 -24.42,71.79 c -5.56,16.28 -9.25,31.08 -12.95,45.52 h -0.74 c -3.7,-14.81 -7.77,-29.98 -12.58,-45.15 l -24.42,-72.16 z m -81.77,-25.15 -25.91,-78.45 h -33.3 l 84.73,249.4 h 38.86 l 85.11,-249.4 h -34.41 l -26.64,78.45 h -88.44" /><path
         id="path70"
         style="fill:#ffffff;fill-opacity:1;fill-rule:nonzero;stroke:none"
         d="m 3044.57,1252.8 c 8.14,-1.49 19.98,-1.86 32.57,-1.86 68.82,0 106.19,38.48 106.19,105.82 0.37,58.85 -32.93,96.21 -101.02,96.21 -16.65,0 -29.22,-1.48 -37.74,-3.32 z m -32.19,220.52 c 19.61,2.97 42.92,5.18 68.45,5.18 46.26,0 79.19,-10.72 101.03,-31.07 22.19,-20.36 35.14,-49.22 35.14,-89.56 0,-40.7 -12.58,-74 -35.89,-96.94 -23.31,-23.31 -61.79,-35.89 -110.27,-35.89 -22.94,0 -42.18,1.12 -58.46,2.96 v 245.32" /><path
         id="path72"
         style="fill:#ffffff;fill-opacity:1;fill-rule:nonzero;stroke:none"
         d="m 3424.93,1344.18 h -96.95 v -89.91 h 108.05 v -27.01 h -140.24 v 249.4 h 134.69 v -27.01 h -102.5 v -78.83 h 96.95 v -26.64" /><path
         id="path74"
         style="fill:#ffffff;fill-opacity:1;fill-rule:nonzero;stroke:none"
         d="m 3725,1336.78 c -1.86,34.79 -4.07,76.6 -3.7,107.69 h -1.11 c -8.51,-29.23 -18.87,-60.7 -31.46,-94.73 l -44.03,-121.01 h -24.42 l -40.34,118.79 c -11.83,35.15 -21.82,67.35 -28.86,96.95 h -0.74 c -0.74,-31.09 -2.59,-72.9 -4.8,-110.27 l -6.66,-106.94 h -30.72 l 17.4,249.4 h 41.06 l 42.56,-120.63 c 10.36,-30.71 18.87,-58.1 25.16,-83.99 h 1.11 c 6.29,25.15 15.18,52.53 26.27,83.99 l 44.4,120.63 h 41.08 l 15.53,-249.4 h -31.44 l -6.29,109.52" /><path
         id="path76"
         style="fill:#ffffff;fill-opacity:1;fill-rule:nonzero;stroke:none"
         d="m 3881.49,1476.66 v -249.4 h -32.18 v 249.4 h 32.18" /><path
         id="path78"
         style="fill:#ffffff;fill-opacity:1;fill-rule:nonzero;stroke:none"
         d="m 4103.88,1344.18 h -96.96 v -89.91 h 108.05 v -27.01 h -140.23 v 249.4 h 134.68 v -27.01 h -102.5 v -78.83 h 96.96 v -26.64" /><path
         id="path80"
         style="fill:#ffffff;fill-opacity:1;fill-rule:nonzero;stroke:none"
         d="m 4247.05,1449.28 h -75.86 v 27.38 h 184.65 v -27.38 h -76.23 v -222.02 h -32.56 v 222.02" /></g></g></svg>