<?xml version="1.0" encoding="UTF-8" standalone="no"?>
<svg
   xmlns:dc="http://purl.org/dc/elements/1.1/"
   xmlns:cc="http://creativecommons.org/ns#"
   xmlns:rdf="http://www.w3.org/1999/02/22-rdf-syntax-ns#"
   xmlns:svg="http://www.w3.org/2000/svg"
   xmlns="http://www.w3.org/2000/svg"
   viewBox="0 0 245.33333 112.01333"
   height="112.01333"
   width="245.33333"
   xml:space="preserve"
   id="svg2"
   version="1.1"><metadata
     id="metadata8"><rdf:RDF><cc:Work
         rdf:about=""><dc:format>image/svg+xml</dc:format><dc:type
           rdf:resource="http://purl.org/dc/dcmitype/StillImage" /></cc:Work></rdf:RDF></metadata><defs
     id="defs6" /><g
     transform="matrix(1.3333333,0,0,-1.3333333,0,112.01333)"
     id="g10"><g
       transform="scale(0.1)"
       id="g12"><path
         id="path14"
         style="fill:#231f20;fill-opacity:1;fill-rule:nonzero;stroke:none"
         d="m 695.859,135.082 c -9.226,-9.394 -20.539,-14.043 -33.839,-14.043 h -29.707 v 95.93 h 29.707 c 13.3,0 24.613,-4.719 33.839,-14.094 9.336,-9.375 13.985,-20.664 13.985,-33.895 0,-13.234 -4.649,-24.523 -13.985,-33.898 z m -92.05,253.457 c 0,-4.297 -2.227,-7.578 -5.489,-9.492 3.262,-2.09 5.489,-5.742 5.489,-10.098 v -1.453 c 0,-6.945 -5.625,-12.129 -12.625,-12.129 -6.211,0 -10.051,2.86 -12.395,7.703 l 4.16,2.285 c 1.321,-3.66 4.246,-5.945 8.235,-5.945 4.48,0 7.5,3.289 7.5,7.703 v 2.325 c 0,4.445 -2.727,7.785 -7.207,7.785 h -3.528 v 3.679 h 3.528 c 4.48,0 7.207,2.696 7.207,7.129 v 1.321 c 0,4.421 -2.727,7.019 -7.207,7.019 -3.84,0 -6.504,-2.332 -7.883,-5.879 l -4.18,2.266 c 2.332,4.805 6.504,7.715 12.703,7.715 7.004,0 11.692,-4.414 11.692,-11.387 z m 28.504,-35.984 h 18.898 c 13.652,0 25.078,-3.879 34.187,-11.575 9.082,-7.734 13.657,-18.066 13.657,-31.023 0,-12.949 -4.575,-22.969 -13.657,-30.059 -9.109,-7.121 -20.535,-10.664 -34.187,-10.664 H 632.313 Z M 741.504,246.617 c 11.516,5.985 21.301,15.586 29.355,28.914 7.996,13.301 12.039,26.602 12.039,39.961 0,72.043 -43.242,107.988 -129.722,107.988 H 548.469 V 50.0625 H 658.77 c 41.804,0 74.738,9.3555 98.789,28.0078 24.113,18.6641 36.132,47.1407 36.132,85.5197 0,17.168 -4.492,33.387 -13.535,48.426 -8.945,15.195 -21.894,26.699 -38.652,34.601" /><path
         id="path16"
         style="fill:#231f20;fill-opacity:1;fill-rule:nonzero;stroke:none"
         d="m 1182.6,427.895 -31.14,10.421 v -15.234 h 12.18 v -5.051 h -24.89 v 5.051 h 8.46 v 19.734 h 4.25 l 31.14,-9.804 z m 23.65,42.324 H 832.82 V 262.594 h 70.957 v 123.777 h 302.473 v 83.848" /><path
         id="path18"
         style="fill:#231f20;fill-opacity:1;fill-rule:nonzero;stroke:none"
         d="m 1143.93,277.934 h 4.33 V 262.27 h 13.42 c -1.85,1.503 -3.24,4.484 -3.24,7.265 0,6.945 5.19,11.692 12.13,11.692 h 5.76 c 6.94,0 12.07,-5.813 12.07,-12.766 0,-6.27 -2.87,-10 -7.72,-12.254 l -2.28,4.168 c 3.67,1.25 5.96,4.043 5.96,8.086 0,4.414 -3.32,7.832 -7.72,7.832 h -6.38 c -4.48,0 -7.7,-2.91 -7.7,-7.078 0,-4.621 2.96,-7.082 7.44,-7.082 v -4.61 h -26.07 z m 221.27,14.191 v -50.449 l -116.42,25.222 z m -244.98,-63.809 373.45,-95.89 v 81.679 l -69.35,16.29 v 73.613 l 69.35,16.242 v 81.738 l -373.45,-95.617 v -78.055" /><path
         id="path20"
         style="fill:#231f20;fill-opacity:1;fill-rule:nonzero;stroke:none"
         d="m 1686.91,405.355 c -9.34,-9.343 -20.65,-13.972 -33.98,-13.972 h -29.68 v 95.867 h 29.68 c 13.33,0 24.64,-4.695 33.98,-14.062 9.2,-9.356 13.83,-20.645 13.83,-33.907 0,-13.211 -4.63,-24.531 -13.83,-33.926 z m -90.93,232.403 c 0,-6.953 -5.48,-12.059 -12.43,-12.059 -6.94,0 -12.46,5.106 -12.46,12.059 v 4.551 c 0,4.98 1.48,7.91 4.17,12.578 l 8.79,15.285 h 5.57 l -9.82,-16.418 c 1.15,0.371 2.73,0.605 4.05,0.605 6.97,0 12.13,-5.156 12.13,-12.129 z m 27.27,-14.903 h 18.9 c 13.67,0 25.05,-3.835 34.19,-11.57 9.09,-7.707 13.66,-18.078 13.66,-31.055 0,-12.902 -4.57,-22.968 -13.66,-30.05 -9.14,-7.11 -20.52,-10.645 -34.19,-10.645 h -18.9 z m 109.21,-105.878 c 11.55,5.918 21.27,15.558 29.34,28.828 8.02,13.418 11.98,26.699 11.98,40.019 0,72.012 -43.21,107.969 -129.64,107.969 H 1539.45 V 320.395 h 110.17 c 41.88,0 74.83,9.277 98.85,27.98 24.11,18.66 36.15,47.137 36.15,85.605 0,17.059 -4.52,33.223 -13.51,48.426 -8.96,15.137 -21.88,26.66 -38.65,34.571" /><path
         id="path22"
         style="fill:#231f20;fill-opacity:1;fill-rule:nonzero;stroke:none"
         d="m 1583.55,650.277 c -4.42,0 -7.41,-3.3 -7.41,-7.703 v -5.129 c 0,-4.414 2.99,-7.703 7.41,-7.703 4.42,0 7.39,3.289 7.39,7.703 v 5.129 c 0,4.403 -2.97,7.703 -7.39,7.703" /><path
         id="path24"
         style="fill:#231f20;fill-opacity:1;fill-rule:nonzero;stroke:none"
         d="m 525.793,595.141 25.223,116.406 25.254,-116.406 z m 27.254,219.054 c 6.965,0 12.058,-5.187 12.058,-12.394 v -1.317 c 0,-6.203 -4.48,-11.925 -9.773,-18.898 l -5.812,-7.617 h 16.171 v -4.246 h -24.695 l 11.984,16.172 c 3.231,4.304 6.969,10.371 6.969,14.531 v 0.633 c 0,5.05 -2.929,8.73 -7.469,8.73 -4.66,0 -7.148,-2.93 -8.64,-7.207 l -4.16,2.949 c 2.578,5.371 6.504,8.664 13.367,8.664 z m 51.316,-347.55 h 81.742 L 590.422,840.063 H 512.371 L 416.543,466.645 h 81.648 l 16.289,69.406 h 73.625 l 16.258,-69.406" /><path
         id="path26"
         style="fill:#231f20;fill-opacity:1;fill-rule:nonzero;stroke:none"
         d="M 67.5,508.285 H 28.5938 l 8.3789,-9.922 -3.1329,-2.832 -10.1679,12.129 v 5.684 H 67.5 Z m 158.523,123.098 h -59.148 v -80.93 H 70.957 v 134.57 H 0 V 466.645 h 373.418 v 83.808 H 226.023 v 80.93" /><path
         id="path28"
         style="fill:#231f20;fill-opacity:1;fill-rule:nonzero;stroke:none"
         d="m 1817.52,729.988 c -0.29,2.11 -1.73,3.692 -3.22,4.746 -2.99,2.11 -8.29,3.254 -12.93,1.993 -1.25,0.761 -2.63,1.437 -3.86,2.238 2.99,1.66 5.83,3.418 8.85,5.027 8.43,-4.824 16.78,-9.707 25.22,-14.539 l 3.19,1.738 c -2.84,4.551 -6.58,8.223 -11.51,11.114 -4.67,2.773 -10.93,4.968 -18.6,4.558 -6.73,-0.34 -11.83,-2.371 -16.23,-5.152 -4.34,-2.668 -7.85,-6.203 -10.52,-10.481 l 3.2,-1.738 c 0.25,0.117 0.49,0.235 0.7,0.352 2.28,1.375 4.87,2.871 6.97,4.023 1.61,-1.035 3.45,-1.914 5.01,-2.988 -0.21,-0.774 -0.33,-1.828 -0.18,-2.649 0.73,-3.867 4.81,-6.062 9.12,-6.765 4.74,-0.793 9.84,0.449 12.45,3.015 1.43,1.262 2.69,3.047 2.34,5.508" /><path
         id="path30"
         style="fill:#231f20;fill-opacity:1;fill-rule:nonzero;stroke:none"
         d="m 1798.28,694.844 c 2.36,1.074 3.54,3.152 3.86,5.801 0.29,2.918 -0.65,5.8 -1.73,7.91 -1.02,2.129 -2.55,4.062 -4.19,5.468 -1.63,1.407 -3.92,2.969 -7,2.696 -1.82,-0.149 -3.32,-1.258 -4.12,-2.434 -2.83,-4.16 -0.51,-10.605 1.51,-13.64 0.32,-0.508 0.95,-1.094 1.05,-1.504 0.17,-0.938 0,-2.024 0,-2.989 0,-1.027 0,-1.992 0,-2.988 -2.66,1.582 -5.45,3.016 -8.01,4.746 0,9.629 0,19.305 0,28.965 l -3.19,1.727 c -1.19,-2.207 -2.2,-4.649 -2.91,-7.403 -0.74,-2.957 -1.09,-6.386 -0.85,-9.781 0.41,-6.555 2.4,-11.867 5.19,-16.234 2.77,-4.364 6.41,-7.969 10.86,-10.633 4.36,-2.668 9.6,-4.66 16.13,-4.914 v 3.574 c -2.2,1.309 -4.49,2.5 -6.6,3.887 0,2.578 0,5.156 0,7.746" /><path
         id="path32"
         style="fill:#231f20;fill-opacity:1;fill-rule:nonzero;stroke:none"
         d="m 1836.28,728.594 -3.29,-1.778 c 0,-2.91 0,-5.8 0,-8.691 -1.74,-1.203 -3.69,-2.168 -5.51,-3.223 -0.47,0.508 -0.82,0.789 -1.41,1.141 -3.37,1.926 -7.22,-0.145 -9.52,-2.117 -1.96,-1.692 -3.41,-3.77 -4.38,-6.028 -1.06,-2.41 -1.83,-5.769 -1.01,-8.73 0.75,-2.578 2.58,-4.656 5.75,-4.656 3.22,0 5.98,2.078 7.55,3.769 1.85,2.032 3.2,4.168 4.08,7.129 1.52,0.781 3.06,1.836 4.45,2.488 0,-3.339 0,-6.679 0,-9.988 -8.22,-5 -16.81,-9.707 -25.1,-14.668 v -3.594 c 6.47,0.313 11.73,2.188 16.06,4.903 4.41,2.722 8.13,6.347 10.85,10.664 2.73,4.305 4.75,9.812 5.14,16.375 0.41,6.867 -1.37,12.305 -3.66,17.004" /><g
         transform="scale(10)"
         id="g34"><text
           id="text38"
           style="font-variant:normal;font-weight:normal;font-size:13px;font-family:FranklinGothic;-inkscape-font-specification:FranklinGothic-Book;writing-mode:lr-tb;fill:#231f20;fill-opacity:1;fill-rule:nonzero;stroke:none"
           transform="matrix(1,0,0,-1,128.267,5.06641)"><tspan
             id="tspan36"
             y="0"
             x="0 8.4101582 15.285155 22.331156 32.912266 39.787262 44.008942">Danmark</tspan></text>
</g></g></g></svg>