<?xml version="1.0" encoding="UTF-8" standalone="no"?>
<svg
   xmlns:dc="http://purl.org/dc/elements/1.1/"
   xmlns:cc="http://creativecommons.org/ns#"
   xmlns:rdf="http://www.w3.org/1999/02/22-rdf-syntax-ns#"
   xmlns:svg="http://www.w3.org/2000/svg"
   xmlns="http://www.w3.org/2000/svg"
   viewBox="0 0 193.54668 24.24"
   height="24.24"
   width="193.54668"
   xml:space="preserve"
   id="svg2"
   version="1.1"><metadata
     id="metadata8"><rdf:RDF><cc:Work
         rdf:about=""><dc:format>image/svg+xml</dc:format><dc:type
           rdf:resource="http://purl.org/dc/dcmitype/StillImage" /></cc:Work></rdf:RDF></metadata><defs
     id="defs6" /><g
     transform="matrix(1.3333333,0,0,-1.3333333,0,24.24)"
     id="g10"><g
       transform="scale(0.1)"
       id="g12"><path
         id="path14"
         style="fill:#102d57;fill-opacity:1;fill-rule:nonzero;stroke:none"
         d="m 109.055,72.6953 h 36.355 l 36.36,36.3477 v 36.359 l -36.372,-36.359 h -36.343 l 36.355,36.359 v 36.356 L 109.055,145.402 H 72.707 v 36.356 L 36.3555,145.402 H 0 v -36.359 h 36.3555 l 36.3515,36.359 v -36.359 h 36.336 V 72.6953 h 0.012 L 72.707,36.3477 H 36.3555 L 72.707,72.6953 V 109.043 L 36.3555,72.6953 H 0 V 36.3477 H 36.3555 V 0 H 72.707 l 36.336,36.3281 V 0 h 36.355 L 181.77,36.3477 V 72.6953 L 145.398,36.3477 h -36.343 v 0 36.3476" /><path
         id="path16"
         style="fill:#102d57;fill-opacity:1;fill-rule:nonzero;stroke:none"
         d="m 261.105,143.02 -1.5,-5.098 c -0.304,-1.125 -0.449,-1.281 -1.652,-1.281 h -14.551 v -12.293 h 12.528 c 1.351,0 1.574,-0.227 1.574,-1.575 v -5.027 c 0,-1.348 -0.223,-1.574 -1.574,-1.574 H 243.402 V 94.9414 c 0,-1.3476 -0.222,-1.5703 -1.578,-1.5703 h -7.121 c -1.426,0 -1.574,0.1445 -1.574,1.5703 v 48.3006 c 0,1.426 0.148,1.582 1.574,1.582 h 25.047 c 1.051,0 1.504,-0.234 1.504,-0.828 0,-0.226 -0.078,-0.449 -0.149,-0.976" /><path
         id="path18"
         style="fill:#102d57;fill-opacity:1;fill-rule:nonzero;stroke:none"
         d="m 291.176,126.816 c -0.672,3.079 -0.899,4.426 -1.875,10.129 -0.672,-4.347 -0.977,-6.074 -1.953,-10.129 l -2.996,-12.82 h 9.597 z m 17.851,-33.4449 h -8.175 c -1.278,0 -1.426,0.0781 -1.727,1.2773 l -3.223,12.2966 H 283.227 L 280,94.6484 c -0.297,-1.1992 -0.375,-1.2773 -1.648,-1.2773 h -7.422 c -1.129,0 -1.504,0.2227 -1.504,0.8203 0,0.3008 0.078,0.3789 0.226,0.9766 l 14.774,48.379 c 0.375,1.199 0.453,1.277 1.648,1.277 h 7.805 c 1.199,0 1.273,-0.078 1.648,-1.277 l 14.778,-48.379 c 0.144,-0.5196 0.222,-0.7422 0.222,-0.9766 0,-0.5976 -0.375,-0.8203 -1.5,-0.8203" /><path
         id="path20"
         style="fill:#102d57;fill-opacity:1;fill-rule:nonzero;stroke:none"
         d="m 353.051,95.168 c -3.149,-2.1016 -6.672,-3.0782 -10.871,-3.0782 -5.477,0 -9.899,1.7305 -12.825,5.1094 -4.277,4.8708 -6.527,12.6758 -6.527,22.6448 0,9.23 1.875,15.605 5.926,20.324 3.223,3.828 7.801,5.926 12.902,5.926 3.973,0 7.949,-1.348 11.324,-3.828 1.125,-0.821 1.575,-1.348 1.575,-1.797 0,-0.223 -0.078,-0.528 -0.153,-0.594 l -3.074,-5.559 c -0.223,-0.449 -0.449,-0.593 -0.746,-0.593 -0.379,0 -0.602,0.078 -2.254,1.347 -2.023,1.571 -4.051,2.325 -6.07,2.325 -5.778,0 -8.629,-5.325 -8.629,-16.047 0,-7.5 0.976,-13.055 2.926,-16.727 1.273,-2.402 3.828,-3.828 6.75,-3.828 2.476,0 3.976,0.605 6.75,2.703 0.3,0.149 0.527,0.305 0.75,0.305 0.226,0 0.449,-0.235 0.675,-0.684 l 2.997,-5.2459 c 0.152,-0.2227 0.226,-0.4492 0.226,-0.6719 0,-0.6758 -0.449,-1.2031 -1.652,-2.0312" /><path
         id="path22"
         style="fill:#102d57;fill-opacity:1;fill-rule:nonzero;stroke:none"
         d="m 402.926,93.3711 h -7.203 c -1.348,0 -1.5,0.1445 -1.5,1.5703 V 116.172 H 380.199 V 94.9414 c 0,-1.3476 -0.222,-1.5703 -1.578,-1.5703 H 371.5 c -1.426,0 -1.574,0.1445 -1.574,1.5703 v 48.3006 c 0,1.426 0.148,1.582 1.574,1.582 h 7.121 c 1.356,0 1.578,-0.234 1.578,-1.582 V 123.82 h 14.024 v 19.422 c 0,1.348 0.226,1.582 1.5,1.582 h 7.203 c 1.426,0 1.578,-0.156 1.578,-1.582 V 94.9414 c 0,-1.4258 -0.152,-1.5703 -1.578,-1.5703" /><path
         id="path24"
         style="fill:#102d57;fill-opacity:1;fill-rule:nonzero;stroke:none"
         d="m 459.176,93.3711 h -7.203 c -1.348,0 -1.5,0.1445 -1.5,1.5703 V 116.172 H 436.449 V 94.9414 c 0,-1.3476 -0.222,-1.5703 -1.578,-1.5703 h -7.121 c -1.426,0 -1.574,0.1445 -1.574,1.5703 v 48.3006 c 0,1.426 0.148,1.582 1.574,1.582 h 7.121 c 1.356,0 1.578,-0.234 1.578,-1.582 V 123.82 h 14.024 v 19.422 c 0,1.348 0.226,1.582 1.5,1.582 h 7.203 c 1.426,0 1.578,-0.156 1.578,-1.582 V 94.9414 c 0,-1.4258 -0.152,-1.5703 -1.578,-1.5703" /><path
         id="path26"
         style="fill:#102d57;fill-opacity:1;fill-rule:nonzero;stroke:none"
         d="m 497.5,138 c -4.949,0 -7.652,-6.68 -7.652,-18.977 0,-12.605 2.55,-18.828 7.726,-18.828 5.176,0 7.801,6.223 7.801,18.672 0,13.125 -2.477,19.133 -7.875,19.133 z m -0.152,-45.9102 c -12.219,0 -18.301,9.0822 -18.301,27.2262 0,10.957 2.027,17.629 6.601,22.129 3.231,3.078 7.348,4.649 12.301,4.649 4.949,0 9.824,-2.02 12.676,-5.321 3.75,-4.277 5.551,-11.25 5.551,-21.074 0,-18.301 -6.375,-27.6092 -18.828,-27.6092" /><path
         id="path28"
         style="fill:#102d57;fill-opacity:1;fill-rule:nonzero;stroke:none"
         d="m 561.324,95.168 c -3.148,-2.1016 -6.676,-3.0782 -10.875,-3.0782 -5.472,0 -9.898,1.7305 -12.82,5.1094 -4.277,4.8708 -6.531,12.6758 -6.531,22.6448 0,9.23 1.875,15.605 5.929,20.324 3.223,3.828 7.797,5.926 12.899,5.926 3.976,0 7.949,-1.348 11.324,-3.828 1.129,-0.821 1.578,-1.348 1.578,-1.797 0,-0.223 -0.078,-0.528 -0.152,-0.594 l -3.074,-5.559 c -0.227,-0.449 -0.454,-0.593 -0.75,-0.593 -0.375,0 -0.598,0.078 -2.25,1.347 -2.028,1.571 -4.051,2.325 -6.075,2.325 -5.777,0 -8.629,-5.325 -8.629,-16.047 0,-7.5 0.977,-13.055 2.926,-16.727 1.274,-2.402 3.828,-3.828 6.754,-3.828 2.477,0 3.973,0.605 6.746,2.703 0.305,0.149 0.528,0.305 0.754,0.305 0.223,0 0.449,-0.235 0.672,-0.684 l 3,-5.2459 c 0.148,-0.2227 0.223,-0.4492 0.223,-0.6719 0,-0.6758 -0.45,-1.2031 -1.649,-2.0312" /><path
         id="path30"
         style="fill:#102d57;fill-opacity:1;fill-rule:nonzero;stroke:none"
         d="M 611.199,93.3711 H 604 c -1.348,0 -1.5,0.1445 -1.5,1.5703 V 116.172 H 588.477 V 94.9414 c 0,-1.3476 -0.223,-1.5703 -1.579,-1.5703 h -7.125 c -1.421,0 -1.57,0.1445 -1.57,1.5703 v 48.3006 c 0,1.426 0.149,1.582 1.57,1.582 h 7.125 c 1.356,0 1.579,-0.234 1.579,-1.582 V 123.82 H 602.5 v 19.422 c 0,1.348 0.227,1.582 1.5,1.582 h 7.199 c 1.43,0 1.578,-0.156 1.578,-1.582 V 94.9414 c 0,-1.4258 -0.148,-1.5703 -1.578,-1.5703" /><path
         id="path32"
         style="fill:#102d57;fill-opacity:1;fill-rule:nonzero;stroke:none"
         d="m 645.547,92.3164 c -6.074,0 -15.676,2.7813 -15.676,4.5 0,0.1563 0.074,0.5274 0.149,0.832 l 2.476,6.4456 c 0.149,0.449 0.375,0.672 0.672,0.672 0.152,0 0.379,-0.067 0.68,-0.223 4.496,-2.473 8.172,-3.672 11.472,-3.672 4.274,0 6.75,2.246 6.75,6.219 0,1.73 -0.601,3.527 -1.574,4.582 -1.273,1.426 -2.25,2.019 -8.547,5.176 -9.004,4.5 -11.707,7.871 -11.707,14.55 0,8.848 6.379,14.473 16.43,14.473 5.926,0 14.324,-2.773 14.324,-4.726 0,-0.149 0,-0.149 -0.226,-0.598 l -2.7,-5.703 c -0.148,-0.301 -0.449,-0.528 -0.672,-0.528 -0.226,0 -0.226,0 -2.925,1.36 -2.477,1.269 -5.102,1.941 -7.5,1.941 -4.2,0 -6.828,-2.097 -6.828,-5.469 0,-1.875 0.902,-3.378 2.925,-4.726 1.051,-0.672 1.278,-0.828 7.875,-4.129 7.727,-3.898 10.95,-8.398 10.95,-15.371 0,-9.297 -6.598,-15.6056 -16.348,-15.6056" /><path
         id="path34"
         style="fill:#102d57;fill-opacity:1;fill-rule:nonzero;stroke:none"
         d="m 706.449,95.168 c -3.152,-2.1016 -6.679,-3.0782 -10.879,-3.0782 -5.472,0 -9.894,1.7305 -12.82,5.1094 -4.277,4.8708 -6.527,12.6758 -6.527,22.6448 0,9.23 1.875,15.605 5.925,20.324 3.223,3.828 7.797,5.926 12.903,5.926 3.972,0 7.945,-1.348 11.32,-3.828 1.129,-0.821 1.578,-1.348 1.578,-1.797 0,-0.223 -0.078,-0.528 -0.152,-0.594 l -3.074,-5.559 c -0.227,-0.449 -0.45,-0.593 -0.746,-0.593 -0.379,0 -0.602,0.078 -2.254,1.347 -2.028,1.571 -4.051,2.325 -6.075,2.325 -5.777,0 -8.628,-5.325 -8.628,-16.047 0,-7.5 0.976,-13.055 2.925,-16.727 1.278,-2.402 3.828,-3.828 6.754,-3.828 2.477,0 3.977,0.605 6.746,2.703 0.305,0.149 0.532,0.305 0.754,0.305 0.227,0 0.449,-0.235 0.672,-0.684 l 3,-5.2459 c 0.152,-0.2227 0.227,-0.4492 0.227,-0.6719 0,-0.6758 -0.453,-1.2031 -1.649,-2.0312" /><path
         id="path36"
         style="fill:#102d57;fill-opacity:1;fill-rule:nonzero;stroke:none"
         d="m 756.324,93.3711 h -7.203 c -1.348,0 -1.5,0.1445 -1.5,1.5703 V 116.172 H 733.598 V 94.9414 c 0,-1.3476 -0.223,-1.5703 -1.578,-1.5703 h -7.122 c -1.425,0 -1.574,0.1445 -1.574,1.5703 v 48.3006 c 0,1.426 0.149,1.582 1.574,1.582 h 7.122 c 1.355,0 1.578,-0.234 1.578,-1.582 V 123.82 h 14.023 v 19.422 c 0,1.348 0.227,1.582 1.5,1.582 h 7.203 c 1.426,0 1.574,-0.156 1.574,-1.582 V 94.9414 c 0,-1.4258 -0.148,-1.5703 -1.574,-1.5703" /><path
         id="path38"
         style="fill:#102d57;fill-opacity:1;fill-rule:nonzero;stroke:none"
         d="m 810.176,97.5703 c -3.606,-3.75 -8.25,-5.4805 -14.856,-5.4805 -6.968,0 -11.769,2.1016 -14.621,6.5352 -1.804,2.84 -2.551,6.297 -2.551,12.148 v 32.469 c 0,1.426 0.149,1.582 1.575,1.582 h 7.125 c 1.343,0 1.582,-0.234 1.582,-1.582 v -32.469 c 0,-4.953 0.293,-6.378 1.492,-7.949 1.355,-1.808 3.371,-2.629 6.152,-2.629 5.93,0 8.328,3 8.328,10.422 v 32.625 c 0,1.348 0.215,1.582 1.567,1.582 h 6.758 c 1.421,0 1.57,-0.156 1.57,-1.582 v -32.469 c 0,-6.601 -1.043,-9.98 -4.121,-13.2027" /><path
         id="path40"
         style="fill:#102d57;fill-opacity:1;fill-rule:nonzero;stroke:none"
         d="m 863.879,100.949 -1.352,-6.2302 c -0.23,-1.125 -0.523,-1.3477 -1.734,-1.3477 h -24.824 c -1.426,0 -1.567,0.1445 -1.567,1.5703 v 48.3006 c 0,1.426 0.141,1.582 1.567,1.582 h 7.129 c 1.343,0 1.582,-0.234 1.582,-1.582 v -40.574 h 17.847 c 1.047,0 1.496,-0.227 1.496,-0.82 0,-0.157 0,-0.157 -0.144,-0.899" /><path
         id="path42"
         style="fill:#102d57;fill-opacity:1;fill-rule:nonzero;stroke:none"
         d="m 907.52,143.02 -1.497,-5.098 c -0.308,-0.977 -0.601,-1.281 -1.66,-1.281 h -14.55 v -12.293 h 12.531 c 1.355,0 1.574,-0.227 1.574,-1.575 v -5.027 c 0,-1.348 -0.219,-1.574 -1.574,-1.574 h -12.531 v -14.629 h 15.761 c 1.352,0 1.567,-0.223 1.567,-1.5703 v -5.0313 c 0,-1.4258 -0.149,-1.5703 -1.567,-1.5703 h -24.453 c -1.426,0 -1.578,0.1445 -1.578,1.5703 v 48.3006 c 0,1.426 0.152,1.582 1.578,1.582 h 25.039 c 1.137,0 1.508,-0.234 1.508,-0.828 0,-0.226 -0.078,-0.598 -0.148,-0.976" /><path
         id="path44"
         style="fill:#102d57;fill-opacity:1;fill-rule:nonzero;stroke:none"
         d="m 985.371,95.6953 -6.453,-3.3008 c -0.148,-0.0781 -0.898,-0.3047 -1.059,-0.3047 -0.293,0 -0.586,0.2266 -0.964,0.754 L 959.426,116.016 V 94.9414 c 0,-1.3476 -0.238,-1.5703 -1.582,-1.5703 h -7.129 c -1.43,0 -1.567,0.1445 -1.567,1.5703 v 48.3006 c 0,1.426 0.137,1.582 1.567,1.582 h 7.129 c 1.344,0 1.582,-0.234 1.582,-1.582 v -21.074 l 16.265,22.5 c 0.454,0.605 0.754,0.832 1.125,0.832 0.227,0 0.528,-0.078 0.977,-0.305 l 5.477,-2.773 c 0.902,-0.449 1.046,-0.606 1.046,-1.121 0,-0.227 -0.07,-0.461 -0.515,-1.055 L 968.27,119.699 985.82,97.8711 c 0.45,-0.4492 0.598,-0.8281 0.598,-1.1211 0,-0.4492 -0.148,-0.6055 -1.047,-1.0547" /><path
         id="path46"
         style="fill:#102d57;fill-opacity:1;fill-rule:nonzero;stroke:none"
         d="m 1017.25,93.3711 h -18.383 c -1.418,0 -1.57,0.1445 -1.57,1.5703 v 4.2774 c 0,1.3472 0.223,1.5742 1.57,1.5742 h 4.053 v 36.602 h -4.053 c -1.347,0 -1.57,0.222 -1.57,1.57 v 4.277 c 0,1.426 0.152,1.582 1.57,1.582 h 18.383 c 1.34,0 1.57,-0.234 1.57,-1.582 v -4.277 c 0,-1.348 -0.23,-1.57 -1.57,-1.57 h -4.06 v -36.602 h 4.06 c 1.34,0 1.57,-0.227 1.57,-1.5742 v -4.2774 c 0,-1.3476 -0.23,-1.5703 -1.57,-1.5703" /><path
         id="path48"
         style="fill:#102d57;fill-opacity:1;fill-rule:nonzero;stroke:none"
         d="m 1064.57,143.02 -1.49,-5.098 c -0.32,-0.977 -0.61,-1.281 -1.66,-1.281 h -14.55 v -12.293 h 12.52 c 1.36,0 1.58,-0.227 1.58,-1.575 v -5.027 c 0,-1.348 -0.22,-1.574 -1.58,-1.574 h -12.52 v -14.629 h 15.76 c 1.34,0 1.56,-0.223 1.56,-1.5703 v -5.0313 c 0,-1.4258 -0.15,-1.5703 -1.56,-1.5703 h -24.46 c -1.42,0 -1.58,0.1445 -1.58,1.5703 v 48.3006 c 0,1.426 0.16,1.582 1.58,1.582 h 25.04 c 1.14,0 1.51,-0.234 1.51,-0.828 0,-0.226 -0.08,-0.598 -0.15,-0.976" /><path
         id="path50"
         style="fill:#102d57;fill-opacity:1;fill-rule:nonzero;stroke:none"
         d="m 1111.22,100.949 -1.35,-6.2302 c -0.23,-1.125 -0.52,-1.3477 -1.74,-1.3477 h -24.82 c -1.43,0 -1.56,0.1445 -1.56,1.5703 v 48.3006 c 0,1.426 0.13,1.582 1.56,1.582 h 7.13 c 1.35,0 1.58,-0.234 1.58,-1.582 v -40.574 h 17.85 c 1.05,0 1.5,-0.227 1.5,-0.82 0,-0.157 0,-0.157 -0.15,-0.899" /><path
         id="path52"
         style="fill:#102d57;fill-opacity:1;fill-rule:nonzero;stroke:none"
         d="m 257.477,35.3711 h -4.504 c -0.899,0 -1.02,0.1172 -1.02,1.0156 V 54.2109 H 238.754 V 36.3867 c 0,-0.8984 -0.242,-1.0156 -1.082,-1.0156 h -4.559 c -0.902,0 -0.961,0.1172 -0.961,1.0156 v 39.1211 c 0,0.9063 0.059,1.0235 0.961,1.0235 h 4.559 c 0.84,0 1.082,-0.1172 1.082,-1.0235 V 59.3086 h 13.199 v 16.1992 c 0,0.9063 0.121,1.0235 1.02,1.0235 h 4.504 c 0.898,0 1.078,-0.1172 1.078,-1.0235 V 36.3867 c 0,-0.8984 -0.18,-1.0156 -1.078,-1.0156" /><path
         id="path54"
         style="fill:#102d57;fill-opacity:1;fill-rule:nonzero;stroke:none"
         d="m 283.031,60.6367 c -4.082,0 -6.058,-3.3008 -6.058,-10.4414 0,-7.4414 1.918,-10.8008 6.058,-10.8008 4.141,0 6,3.3594 6,10.8008 0,7.1406 -1.918,10.4414 -6,10.4414 z m -0.179,-26.164 c -7.797,0 -12.36,5.7031 -12.36,15.4765 0,9.7188 4.742,15.5977 12.66,15.5977 7.743,0 12.36,-5.6914 12.36,-15.4766 0,-9.6601 -4.797,-15.5976 -12.66,-15.5976" /><path
         id="path56"
         style="fill:#102d57;fill-opacity:1;fill-rule:nonzero;stroke:none"
         d="m 324.137,58.2344 c -0.305,-0.4805 -0.782,-0.1875 -0.961,0 -2.34,1.7383 -3.723,2.2734 -5.52,2.2734 -4.504,0 -6.601,-3.418 -6.601,-10.5586 0,-7.0781 2.043,-10.4375 6.355,-10.4375 2.461,0 4.028,0.9571 5.887,2.2735 0.535,0.4218 0.84,0.3632 1.019,-0.1133 l 1.196,-2.9414 c 0.304,-0.7227 0.363,-0.9571 -0.356,-1.5039 -2.222,-1.7383 -5.582,-2.7539 -8.461,-2.7539 -7.679,0 -12.121,5.4609 -12.121,14.8828 0,10.0195 4.981,16.1914 13.02,16.1914 2.937,0 5.883,-1.0156 7.918,-2.6367 0.484,-0.4219 0.906,-0.9571 0.601,-1.4336 l -1.976,-3.2422" /><path
         id="path58"
         style="fill:#102d57;fill-opacity:1;fill-rule:nonzero;stroke:none"
         d="m 357.129,35.3711 h -4.379 c -0.84,0 -0.84,0.1758 -0.84,0.957 v 19.1407 c 0,3.7226 -0.957,5.039 -3.719,5.039 -2.101,0 -3.898,-0.8398 -6.543,-3.1133 V 36.2109 c 0,-0.7226 -0.117,-0.8398 -0.835,-0.8398 h -4.325 c -0.773,0 -0.957,0.1172 -0.957,0.8398 v 40.6836 c 0,0.5938 0.239,0.8399 0.84,0.9571 l 4.141,0.8398 c 0.777,0.1758 1.136,0.2461 1.136,-0.7226 V 61.7695 c 2.825,2.6446 5.403,3.7774 8.762,3.7774 6.238,0 7.621,-3.8946 7.621,-9.2383 V 36.2109 c 0,-0.7226 -0.179,-0.8398 -0.902,-0.8398" /><path
         id="path60"
         style="fill:#102d57;fill-opacity:1;fill-rule:nonzero;stroke:none"
         d="m 378.852,34.4727 c -3.301,0 -7.079,0.8984 -9.836,2.5781 -0.723,0.4219 -0.661,0.4219 -0.364,1.2031 l 1.258,3.1133 c 0.242,0.6641 0.727,0.3633 1.145,0.125 2.816,-1.3828 5.461,-2.1563 7.558,-2.1563 2.52,0 4.141,1.4922 4.141,3.7774 0,1.8594 -0.961,2.3945 -4.199,4.0742 -1.442,0.7227 -4.262,2.168 -5.762,3.0664 -2.52,1.5547 -3.359,4.0156 -3.359,6.2383 0,5.2773 4.14,9.0547 9.961,9.0547 2.578,0 5.757,-0.7696 7.855,-1.9727 0.602,-0.3594 0.664,-0.7812 0.363,-1.3867 l -1.261,-2.6367 c -0.297,-0.6641 -0.661,-0.5352 -1.2,-0.3047 -2.101,0.9687 -4.078,1.5078 -5.64,1.5078 -2.699,0 -4.199,-1.3203 -4.199,-3.5469 0,-1.7968 0.96,-2.5195 3.664,-3.9531 1.437,-0.7812 4.976,-2.5781 5.933,-3.125 3.063,-1.7383 3.844,-3.7148 3.844,-6.5351 0,-5.4571 -3.957,-9.1211 -9.902,-9.1211" /><path
         id="path62"
         style="fill:#102d57;fill-opacity:1;fill-rule:nonzero;stroke:none"
         d="m 417.07,58.2344 c -0.3,-0.4805 -0.781,-0.1875 -0.961,0 -2.339,1.7383 -3.722,2.2734 -5.519,2.2734 -4.5,0 -6.602,-3.418 -6.602,-10.5586 0,-7.0781 2.043,-10.4375 6.36,-10.4375 2.461,0 4.023,0.9571 5.882,2.2735 0.54,0.4218 0.84,0.3632 1.02,-0.1133 l 1.195,-2.9414 c 0.305,-0.7227 0.364,-0.9571 -0.355,-1.5039 -2.223,-1.7383 -5.578,-2.7539 -8.461,-2.7539 -7.68,0 -12.117,5.4609 -12.117,14.8828 0,10.0195 4.976,16.1914 13.015,16.1914 2.942,0 5.883,-1.0156 7.918,-2.6367 0.485,-0.4219 0.907,-0.9571 0.602,-1.4336 l -1.977,-3.2422" /><path
         id="path64"
         style="fill:#102d57;fill-opacity:1;fill-rule:nonzero;stroke:none"
         d="m 450.066,35.3711 h -4.378 c -0.84,0 -0.84,0.1758 -0.84,0.957 v 19.1407 c 0,3.7226 -0.957,5.039 -3.715,5.039 -2.106,0 -3.903,-0.8398 -6.543,-3.1133 V 36.2109 c 0,-0.7226 -0.117,-0.8398 -0.84,-0.8398 h -4.32 c -0.778,0 -0.957,0.1172 -0.957,0.8398 v 40.6836 c 0,0.5938 0.238,0.8399 0.84,0.9571 l 4.14,0.8398 c 0.777,0.1758 1.137,0.2461 1.137,-0.7226 V 61.7695 c 2.82,2.6446 5.398,3.7774 8.762,3.7774 6.238,0 7.621,-3.8946 7.621,-9.2383 V 36.2109 c 0,-0.7226 -0.18,-0.8398 -0.907,-0.8398" /><path
         id="path66"
         style="fill:#102d57;fill-opacity:1;fill-rule:nonzero;stroke:none"
         d="m 487.086,36.1523 -3.84,-1.4453 c -0.84,-0.2929 -1.258,0.1875 -1.621,0.8399 -0.355,0.6054 -0.656,1.5039 -0.898,2.4609 -2.997,-2.6367 -5.278,-3.5351 -8.579,-3.5351 -6.601,0 -8.578,3.7812 -8.578,9.8359 v 19.1367 c 0,0.6094 0.176,0.7852 0.778,0.9102 l 4.203,1.0156 c 0.719,0.1758 1.137,0.1172 1.137,-0.7227 V 45.6953 c 0,-4.6211 0.96,-6.1836 3.96,-6.1836 2.04,0 4.2,0.8985 6.239,2.6367 v 21.2969 c 0,0.6094 0.179,0.7852 0.781,0.9102 l 4.199,1.0156 c 0.719,0.1758 1.078,0.3047 1.078,-0.7227 V 43.1758 c 0,-2.9414 0.364,-4.3867 1.321,-6.0078 0.246,-0.3594 0.422,-0.7813 -0.18,-1.0157" /><path
         id="path68"
         style="fill:#102d57;fill-opacity:1;fill-rule:nonzero;stroke:none"
         d="m 511.031,35.6133 c -1.504,-0.6641 -3.426,-1.0235 -5.164,-1.0235 -5.519,0 -6.84,3.125 -6.84,7.8594 0,1.6836 -0.058,3.418 -0.058,5.0391 v 29.4062 c 0,0.4766 0.301,0.8399 0.777,0.9571 l 4.5,0.957 c 0.781,0.1836 0.899,-0.0586 0.899,-0.8398 V 42.5117 c 0,-1.914 0.668,-2.5781 2.043,-2.5781 0.66,0 1.382,0.1172 2.164,0.4766 0.476,0.2421 0.839,0.3046 1.015,-0.2344 l 1.02,-3.4844 c 0.179,-0.5391 0.359,-0.7851 -0.356,-1.0781" /><path
         id="path70"
         style="fill:#102d57;fill-opacity:1;fill-rule:nonzero;stroke:none"
         d="m 529.391,60.9961 c -3.598,0 -5.403,-2.5273 -5.821,-7.9219 h 11.16 c -0.121,5.3321 -1.8,7.9219 -5.339,7.9219 z m 10.8,-12.5508 h -16.679 c 0.238,-5.8164 2.636,-8.8164 7.258,-8.8164 3.543,0 5.46,1.3164 7.32,2.1563 0.363,0.1875 0.539,0.1289 0.781,-0.3477 l 1.379,-3.0078 c 0.359,-0.7149 0.121,-1.0742 -0.602,-1.4961 -2.398,-1.5039 -6.355,-2.4609 -9.476,-2.4609 -8.16,0 -12.902,5.7031 -12.902,15.4218 0,9.4805 4.918,15.6524 12.48,15.6524 7.379,0 11.398,-5.2735 11.398,-14.8711 0,-1.3906 0.063,-2.2305 -0.957,-2.2305" /><path
         id="path72"
         style="fill:#102d57;fill-opacity:1;fill-rule:nonzero;stroke:none"
         d="m 584.047,72.8711 c -0.18,-0.5938 -0.84,-0.3594 -1.258,-0.1758 -1.383,0.6563 -2.699,1.0156 -3.844,1.0156 -2.816,0 -3.539,-1.1406 -3.539,-5.5156 v -3.5469 h 7.86 c 0.543,0 0.722,-0.1757 0.601,-0.6562 l -0.961,-3.3555 c -0.176,-0.6094 -0.355,-0.664 -0.597,-0.664 h -6.903 V 36.1523 c 0,-0.664 -0.058,-0.7812 -0.84,-0.7812 h -4.316 c -0.781,0 -0.84,0.1172 -0.84,0.8398 v 23.7618 h -4.265 c -0.657,0 -0.899,0.1171 -0.899,0.664 v 3.2305 c 0,0.7226 0.301,0.7812 1.024,0.7812 h 4.14 v 3.5469 c 0,4.5586 0.535,6.543 2.578,8.3985 1.621,1.5039 3.66,2.2148 6.364,2.2148 2.336,0 5.218,-0.6563 6.476,-1.4922 0.602,-0.4219 0.481,-0.6641 0.301,-1.1445 l -1.082,-3.3008" /><path
         id="path74"
         style="fill:#102d57;fill-opacity:1;fill-rule:nonzero;stroke:none"
         d="m 606.852,70.5977 c -2.043,0 -3.664,1.6796 -3.664,3.6484 0,2.043 1.621,3.7812 3.664,3.7812 2.035,0 3.656,-1.7382 3.656,-3.7812 0,-2.0391 -1.621,-3.6484 -3.656,-3.6484 z m -11.286,0 c -2.035,0 -3.597,1.6796 -3.597,3.6484 0,2.043 1.562,3.7812 3.597,3.7812 2.039,0 3.719,-1.7382 3.719,-3.7812 0,-1.9688 -1.68,-3.6484 -3.719,-3.6484 z M 613.09,36.1523 609.246,34.707 c -0.84,-0.2929 -1.258,0.1875 -1.617,0.8399 -0.359,0.6054 -0.66,1.5039 -0.899,2.4609 -3,-2.6367 -5.281,-3.5351 -8.582,-3.5351 -6.601,0 -8.578,3.7812 -8.578,9.8359 v 19.1367 c 0,0.6094 0.176,0.7852 0.778,0.9102 l 4.199,1.0156 c 0.723,0.1758 1.141,0.1172 1.141,-0.7227 V 45.6953 c 0,-4.6211 0.96,-6.1836 3.96,-6.1836 2.04,0 4.2,0.8985 6.243,2.6367 v 21.2969 c 0,0.6094 0.179,0.7852 0.781,0.9102 l 4.195,1.0156 c 0.719,0.1758 1.082,0.3047 1.082,-0.7227 V 43.1758 c 0,-2.9414 0.36,-4.3867 1.317,-6.0078 0.246,-0.3594 0.422,-0.7813 -0.176,-1.0157" /><path
         id="path76"
         style="fill:#102d57;fill-opacity:1;fill-rule:nonzero;stroke:none"
         d="m 639.902,59.9727 c -0.238,-0.5391 -0.422,-0.6641 -0.718,-0.5977 -0.84,0.2344 -1.258,0.4805 -2.219,0.4805 -1.379,0 -2.879,-0.9024 -5.281,-3.6641 V 36.2109 c 0,-0.7812 -0.059,-0.8398 -0.84,-0.8398 h -4.321 c -0.718,0 -0.898,0.1172 -0.898,0.8398 v 18.1836 c 0,3.7813 -0.305,5.5157 -1.199,7.5 -0.301,0.5938 -1.024,1.3789 -0.117,1.7969 l 3.656,1.6797 c 1.199,0.5352 1.5,-0.7227 1.98,-1.7969 0.539,-1.1406 0.84,-2.4023 0.899,-2.8789 2.16,2.457 4.019,4.8516 7.5,4.8516 1.082,0 2.16,-0.2344 2.824,-0.6524 0.535,-0.3047 0.477,-0.6093 0.297,-1.0859 l -1.563,-3.8359" /><path
         id="path78"
         style="fill:#102d57;fill-opacity:1;fill-rule:nonzero;stroke:none"
         d="m 679.082,63.9375 c -0.477,1.9141 -0.898,4.0117 -1.379,6.5898 -0.418,-2.5195 -0.777,-4.621 -1.32,-6.5898 L 673.262,51.875 h 8.824 z m 13.621,-28.5664 h -5.16 c -0.723,0 -0.961,0.1172 -1.141,0.8398 l -2.941,10.7422 h -11.156 l -2.942,-10.7422 c -0.179,-0.7226 -0.418,-0.8398 -1.14,-0.8398 h -4.801 c -1.317,0 -1.078,0.6641 -0.84,1.5039 l 11.938,38.8203 c 0.242,0.7813 0.304,0.836 1.085,0.836 h 4.918 c 0.84,0 0.84,-0.0547 1.079,-0.836 L 693.547,36.875 c 0.238,-0.8398 0.418,-1.5039 -0.844,-1.5039" /><path
         id="path80"
         style="fill:#102d57;fill-opacity:1;fill-rule:nonzero;stroke:none"
         d="m 724.922,35.3711 h -4.379 c -0.777,0 -0.777,0.1172 -0.777,0.8398 v 19.2579 c 0,3.5468 -1.145,5.039 -3.782,5.039 -2.277,0 -4.019,-0.8398 -6.543,-3.1133 V 36.2109 c 0,-0.7226 -0.117,-0.8398 -0.836,-0.8398 h -4.382 c -0.715,0 -0.84,0.1172 -0.84,0.8398 v 20.461 c 0,2.5195 -0.297,4.1406 -1.137,5.9375 -0.242,0.5429 -0.359,0.7812 0.238,1.082 l 4.02,1.7969 c 0.66,0.3008 0.898,-0.2344 1.262,-0.957 0.359,-0.7813 0.656,-1.379 1.199,-3.0547 2.937,2.2734 5.16,4.0117 8.941,4.0117 5.578,0 7.918,-2.461 7.918,-9.1797 V 36.2109 c 0,-0.7226 -0.179,-0.8398 -0.902,-0.8398" /><path
         id="path82"
         style="fill:#102d57;fill-opacity:1;fill-rule:nonzero;stroke:none"
         d="m 753.902,58.7109 c -2.043,1.2618 -3.359,1.7383 -4.98,1.7383 -3.781,0 -5.879,-3.4765 -5.879,-9.8359 0,-6.543 1.559,-9.5977 4.918,-9.5977 1.98,0 3.719,0.7696 5.941,2.5196 z m 5.938,-2.5781 v -9.1211 c 0,-3.125 0.062,-5.3398 0.121,-7.8008 0.059,-2.4023 0.238,-4.7968 0.059,-7.1992 -0.477,-6.0664 -4.2,-9.2383 -10.801,-9.2383 -3.418,0 -7.676,1.0157 -10.496,2.461 -0.785,0.4179 -0.785,0.539 -0.543,1.2578 l 1.14,3.3047 c 0.243,0.6523 0.719,0.5351 1.321,0.2304 2.937,-1.3164 5.761,-2.0976 8.16,-2.0976 3.957,0 5.461,1.5625 5.461,5.7617 0,1.6211 0,3.418 -0.242,5.0391 -2.52,-1.9219 -4.86,-2.7617 -7.618,-2.7617 -5.879,0 -9.601,5.3398 -9.601,13.8671 0,9.8907 4.14,15.711 11.16,15.711 2.762,0 4.559,-0.6524 7.141,-2.6367 0.242,0.5351 0.359,1.0273 0.601,1.375 0.481,0.7851 0.84,1.75 1.797,1.3281 l 3.777,-1.6758 c 0.543,-0.2461 0.543,-0.6094 0.305,-1.0273 -1.324,-2.2735 -1.742,-4.0821 -1.742,-6.7774" /><path
         id="path84"
         style="fill:#102d57;fill-opacity:1;fill-rule:nonzero;stroke:none"
         d="m 782.703,60.9961 c -3.598,0 -5.398,-2.5273 -5.816,-7.9219 h 11.16 c -0.125,5.3321 -1.809,7.9219 -5.344,7.9219 z m 10.805,-12.5508 h -16.684 c 0.242,-5.8164 2.641,-8.8164 7.262,-8.8164 3.543,0 5.457,1.3164 7.32,2.1563 0.364,0.1875 0.535,0.1289 0.774,-0.3477 l 1.383,-3.0078 c 0.363,-0.7149 0.121,-1.0742 -0.602,-1.4961 -2.395,-1.5039 -6.352,-2.4609 -9.477,-2.4609 -8.156,0 -12.898,5.7031 -12.898,15.4218 0,9.4805 4.918,15.6524 12.48,15.6524 7.372,0 11.399,-5.2735 11.399,-14.8711 0,-1.3906 0.055,-2.2305 -0.957,-2.2305" /><path
         id="path86"
         style="fill:#102d57;fill-opacity:1;fill-rule:nonzero;stroke:none"
         d="m 830.227,35.6133 c -0.122,-0.4844 -0.247,-0.6641 -0.84,-0.6641 h -3.547 c -0.711,0 -0.957,0 -1.145,0.7266 l -3.765,16.7344 c -0.434,1.8007 -0.547,3.8398 -0.785,5.7656 -0.243,-2.043 -0.489,-3.9649 -0.965,-5.7031 l -4.676,-16.7969 c -0.18,-0.6055 -0.234,-0.7266 -0.781,-0.7266 H 810 c -0.598,0 -0.715,0.0625 -0.898,0.7266 l -7.024,27.539 c -0.176,0.7227 -0.113,0.8985 0.664,1.0704 l 4.145,0.8437 c 0.718,0.125 0.781,0.1836 0.957,-0.7148 l 3.125,-14.6368 c 0.41,-1.9257 0.957,-6.1835 1.304,-8.5273 0.247,2.2852 0.43,4.5039 1.028,6.6602 l 4.265,16.0273 c 0.176,0.6523 0.176,0.7695 0.84,0.7695 h 3.957 c 0.598,0 0.657,-0.0586 0.84,-0.7695 l 3.84,-16.8672 c 0.418,-1.9219 0.602,-3.8359 0.84,-5.7617 0.23,2.1602 0.601,4.8633 1.07,6.9648 l 3.906,16.1407 c 0.239,0.957 0.547,0.7812 1.321,0.5976 l 3.601,-0.7812 c 0.84,-0.1758 0.727,-0.3633 0.481,-1.1328 l -8.035,-27.4844" /><path
         id="path88"
         style="fill:#102d57;fill-opacity:1;fill-rule:nonzero;stroke:none"
         d="m 861.66,49.2305 c -3.777,-0.0586 -9.773,-0.293 -9.773,-5.5196 0,-2.5781 1.734,-4.5 4.082,-4.5 1.851,0 3.648,0.8985 5.691,2.8789 z m 7.195,-12.6602 -3.652,-1.793 c -0.84,-0.4218 -1.211,0 -1.617,0.7696 -0.363,0.664 -0.727,1.5625 -1.02,2.707 -2.586,-2.5781 -4.921,-3.6055 -8.101,-3.6055 -5.156,0 -8.52,3.3594 -8.52,8.6407 0,9.0078 8.633,10.2656 15.715,10.3242 v 1.914 c 0,3.6641 -1.199,4.9805 -4.734,4.9805 -2.043,0 -4.082,-0.5351 -6.906,-1.7383 -0.418,-0.1757 -0.899,-0.2343 -1.082,0.3008 l -0.958,2.9414 c -0.414,1.2031 0.543,1.5039 1.083,1.7383 2.878,1.1992 5.75,1.7383 8.582,1.7383 6.601,0 9.906,-2.6953 9.906,-9.0508 V 44.668 c 0,-3.3594 0.347,-5.0391 1.426,-7.0782 0.183,-0.3632 0.308,-0.8437 -0.122,-1.0195" /><path
         id="path90"
         style="fill:#102d57;fill-opacity:1;fill-rule:nonzero;stroke:none"
         d="m 902.637,35.3711 h -4.383 c -0.774,0 -0.774,0.1172 -0.774,0.8398 v 19.2579 c 0,3.5468 -1.14,5.039 -3.781,5.039 -2.281,0 -4.019,-0.8398 -6.543,-3.1133 V 36.2109 c 0,-0.7226 -0.113,-0.8398 -0.84,-0.8398 h -4.375 c -0.718,0 -0.836,0.1172 -0.836,0.8398 v 20.461 c 0,2.5195 -0.304,4.1406 -1.144,5.9375 -0.242,0.5429 -0.359,0.7812 0.242,1.082 l 4.016,1.7969 c 0.652,0.3008 0.898,-0.2344 1.261,-0.957 0.36,-0.7813 0.665,-1.379 1.2,-3.0547 2.937,2.2734 5.168,4.0117 8.933,4.0117 5.586,0 7.934,-2.461 7.934,-9.1797 V 36.2109 c 0,-0.7226 -0.188,-0.8398 -0.91,-0.8398" /><path
         id="path92"
         style="fill:#102d57;fill-opacity:1;fill-rule:nonzero;stroke:none"
         d="m 931.738,59.0156 c -1.98,1.0742 -3.476,1.4922 -5.222,1.4922 -4.133,0 -5.754,-2.8789 -5.754,-10.3125 0,-7.6836 1.433,-10.7422 5.097,-10.7422 2.039,0 3.899,0.8399 5.879,2.7539 z m 3.43,-24.1797 c -0.898,-0.4218 -1.273,0.1758 -1.738,1.0704 -0.317,0.5468 -0.492,1.3203 -0.664,2.1015 -3.301,-2.5781 -5.762,-3.5351 -8.645,-3.5351 -6.008,0 -9.601,5.6367 -9.601,15.1171 0,5.879 1.203,9.8438 3.593,12.5977 1.926,2.168 4.387,3.3594 7.383,3.3594 2.109,0 3.906,-0.5352 6.242,-1.8555 v 13.2031 c 0,0.5938 0.125,0.8399 0.664,0.9571 l 4.317,0.8984 c 0.781,0.1875 1.086,0.1875 1.086,-0.7812 V 43.8281 c 0,-3 0.117,-4.1406 1.074,-5.8203 0.301,-0.5351 0.894,-1.0156 0.113,-1.375 l -3.824,-1.7969" /><path
         id="path94"
         style="fill:#102d57;fill-opacity:1;fill-rule:nonzero;stroke:none"
         d="m 967.258,36.1523 c -2.219,-1.0234 -4.863,-1.5625 -7.199,-1.5625 -6.297,0 -7.746,3.6641 -7.746,9.0625 v 16.3204 h -4.137 c -0.781,0 -0.957,0.1757 -0.957,0.8945 V 63.75 c 0,0.7227 0.176,0.8984 0.957,0.8984 h 4.137 v 7.8633 c 0,0.6016 0.187,0.7774 0.785,0.8946 l 4.082,0.7851 c 0.781,0.1172 1.199,0.3008 1.199,-0.7226 v -8.8204 h 7.922 c 0.894,0 0.84,-0.4179 0.664,-1.0742 l -0.664,-2.8203 c -0.117,-0.6055 -0.293,-0.7812 -0.903,-0.7812 h -7.019 V 44.2461 c 0,-3.5313 0.539,-4.375 2.937,-4.375 1.743,0 3.008,0.5391 4.563,1.2031 0.84,0.3633 0.906,0 1.086,-0.6054 l 0.84,-3.0586 c 0.175,-0.7188 0.23,-0.8946 -0.547,-1.2579" /><path
         id="path96"
         style="fill:#102d57;fill-opacity:1;fill-rule:nonzero;stroke:none"
         d="m 986.699,60.9961 c -3.601,0 -5.398,-2.5273 -5.82,-7.9219 h 11.164 c -0.117,5.3321 -1.801,7.9219 -5.344,7.9219 z M 997.5,48.4453 h -16.68 c 0.243,-5.8164 2.637,-8.8164 7.254,-8.8164 3.547,0 5.473,1.3164 7.324,2.1563 0.356,0.1875 0.54,0.1289 0.786,-0.3477 l 1.375,-3.0078 c 0.363,-0.7149 0.129,-1.0742 -0.594,-1.4961 -2.402,-1.5039 -6.367,-2.4609 -9.485,-2.4609 -8.156,0 -12.902,5.7031 -12.902,15.4218 0,9.4805 4.926,15.6524 12.485,15.6524 7.378,0 11.394,-5.2735 11.394,-14.8711 0,-1.3906 0.066,-2.2305 -0.957,-2.2305" /><path
         id="path98"
         style="fill:#102d57;fill-opacity:1;fill-rule:nonzero;stroke:none"
         d="m 1055.21,35.8516 c -0.17,-0.7813 -0.36,-0.8399 -1.14,-0.8399 h -4.61 c -0.84,0 -0.96,0.0586 -1.08,0.8399 l -3.72,21.2968 c -0.3,1.6797 -1.45,8.8868 -1.56,10.5664 -0.12,-1.5625 -1.57,-9.0039 -1.86,-10.5664 l -4.38,-21.2968 c -0.19,-0.7813 -0.31,-0.8399 -1.09,-0.8399 h -4.55 c -0.84,0 -0.96,0 -1.14,0.8399 l -7.69,38.8164 c -0.17,0.8398 -0.29,1.1992 0.73,1.3867 l 4.25,0.7148 c 0.96,0.1836 1.09,0.418 1.27,-0.7148 l 4.38,-24.8438 c 0.42,-2.2734 0.6,-4.9804 0.84,-8.8164 0.42,3.1133 0.78,6.3555 1.44,9.4805 l 4.98,23.6992 c 0.18,0.7735 0.24,0.9024 1.08,0.9024 h 4.02 c 0.9,0 0.96,-0.1875 1.13,-1.0274 l 4.45,-24.2383 c 0.53,-2.9375 0.96,-6.0625 1.26,-9.0625 0.23,3.3594 0.54,6.7188 1.14,10.0196 l 4.32,23.8281 c 0.12,0.7148 0.3,0.957 0.9,0.8398 l 4.73,-0.9687 c 0.61,-0.1133 0.49,-0.5352 0.37,-1.1992 l -8.47,-38.8164" /><path
         id="path100"
         style="fill:#102d57;fill-opacity:1;fill-rule:nonzero;stroke:none"
         d="m 1078.31,70.0508 c -2.34,0 -4.26,1.8633 -4.26,4.2578 0,2.3437 1.92,4.2656 4.26,4.2656 2.34,0 4.26,-1.9219 4.26,-4.2656 0,-2.3945 -1.86,-4.2578 -4.26,-4.2578 z m 2.52,-34.6797 h -4.37 c -0.84,0 -0.84,0.1172 -0.84,0.8984 v 23.7032 h -4.63 c -0.78,0 -0.9,0.0546 -0.9,0.8945 V 63.75 c 0,0.8398 0.12,0.8984 0.9,0.8984 h 9.78 c 0.72,0 0.84,-0.1171 0.84,-0.8984 V 36.2109 c 0,-0.7226 -0.06,-0.8398 -0.78,-0.8398" /><path
         id="path102"
         style="fill:#102d57;fill-opacity:1;fill-rule:nonzero;stroke:none"
         d="m 1102.92,34.4727 c -3.3,0 -7.09,0.8984 -9.84,2.5781 -0.73,0.4219 -0.67,0.4219 -0.37,1.2031 l 1.26,3.1133 c 0.24,0.6641 0.73,0.3633 1.15,0.125 2.82,-1.3828 5.46,-2.1563 7.56,-2.1563 2.52,0 4.14,1.4922 4.14,3.7774 0,1.8594 -0.97,2.3945 -4.2,4.0742 -1.44,0.7227 -4.27,2.168 -5.76,3.0664 -2.52,1.5547 -3.36,4.0156 -3.36,6.2383 0,5.2773 4.14,9.0547 9.96,9.0547 2.58,0 5.75,-0.7696 7.86,-1.9727 0.59,-0.3594 0.66,-0.7812 0.35,-1.3867 l -1.25,-2.6367 c -0.3,-0.6641 -0.66,-0.5352 -1.21,-0.3047 -2.09,0.9687 -4.07,1.5078 -5.64,1.5078 -2.7,0 -4.19,-1.3203 -4.19,-3.5469 0,-1.7968 0.96,-2.5195 3.66,-3.9531 1.44,-0.7812 4.98,-2.5781 5.93,-3.125 3.07,-1.7383 3.85,-3.7148 3.85,-6.5351 0,-5.4571 -3.96,-9.1211 -9.9,-9.1211" /><path
         id="path104"
         style="fill:#102d57;fill-opacity:1;fill-rule:nonzero;stroke:none"
         d="m 1131.42,34.4727 c -3.3,0 -7.08,0.8984 -9.85,2.5781 -0.72,0.4219 -0.65,0.4219 -0.35,1.2031 l 1.25,3.1133 c 0.24,0.6641 0.72,0.3633 1.15,0.125 2.82,-1.3828 5.45,-2.1563 7.56,-2.1563 2.52,0 4.14,1.4922 4.14,3.7774 0,1.8594 -0.96,2.3945 -4.2,4.0742 -1.44,0.7227 -4.26,2.168 -5.76,3.0664 -2.52,1.5547 -3.36,4.0156 -3.36,6.2383 0,5.2773 4.14,9.0547 9.96,9.0547 2.58,0 5.75,-0.7696 7.85,-1.9727 0.61,-0.3594 0.67,-0.7812 0.37,-1.3867 l -1.26,-2.6367 c -0.3,-0.6641 -0.67,-0.5352 -1.21,-0.3047 -2.09,0.9687 -4.07,1.5078 -5.63,1.5078 -2.7,0 -4.2,-1.3203 -4.2,-3.5469 0,-1.7968 0.96,-2.5195 3.65,-3.9531 1.45,-0.7812 4.98,-2.5781 5.94,-3.125 3.07,-1.7383 3.85,-3.7148 3.85,-6.5351 0,-5.4571 -3.97,-9.1211 -9.9,-9.1211" /><path
         id="path106"
         style="fill:#102d57;fill-opacity:1;fill-rule:nonzero;stroke:none"
         d="m 1162.2,60.9961 c -3.61,0 -5.41,-2.5273 -5.82,-7.9219 h 11.15 c -0.12,5.3321 -1.8,7.9219 -5.33,7.9219 z M 1173,48.4453 h -16.68 c 0.23,-5.8164 2.64,-8.8164 7.25,-8.8164 3.55,0 5.46,1.3164 7.32,2.1563 0.37,0.1875 0.55,0.1289 0.78,-0.3477 l 1.39,-3.0078 c 0.35,-0.7149 0.11,-1.0742 -0.61,-1.4961 -2.4,-1.5039 -6.36,-2.4609 -9.47,-2.4609 -8.17,0 -12.91,5.7031 -12.91,15.4218 0,9.4805 4.92,15.6524 12.48,15.6524 7.38,0 11.41,-5.2735 11.41,-14.8711 0,-1.3906 0.05,-2.2305 -0.96,-2.2305" /><path
         id="path108"
         style="fill:#102d57;fill-opacity:1;fill-rule:nonzero;stroke:none"
         d="m 1206.36,35.3711 h -4.39 c -0.77,0 -0.77,0.1172 -0.77,0.8398 v 19.2579 c 0,3.5468 -1.15,5.039 -3.79,5.039 -2.27,0 -4.02,-0.8398 -6.54,-3.1133 V 36.2109 c 0,-0.7226 -0.12,-0.8398 -0.84,-0.8398 h -4.38 c -0.72,0 -0.84,0.1172 -0.84,0.8398 v 20.461 c 0,2.5195 -0.29,4.1406 -1.13,5.9375 -0.25,0.5429 -0.37,0.7812 0.24,1.082 l 4.02,1.7969 c 0.65,0.3008 0.9,-0.2344 1.25,-0.957 0.37,-0.7813 0.66,-1.379 1.21,-3.0547 2.93,2.2734 5.16,4.0117 8.94,4.0117 5.57,0 7.92,-2.461 7.92,-9.1797 V 36.2109 c 0,-0.7226 -0.18,-0.8398 -0.9,-0.8398" /><path
         id="path110"
         style="fill:#102d57;fill-opacity:1;fill-rule:nonzero;stroke:none"
         d="m 1228.08,34.4727 c -3.3,0 -7.09,0.8984 -9.85,2.5781 -0.72,0.4219 -0.66,0.4219 -0.36,1.2031 l 1.26,3.1133 c 0.24,0.6641 0.72,0.3633 1.14,0.125 2.83,-1.3828 5.46,-2.1563 7.56,-2.1563 2.52,0 4.14,1.4922 4.14,3.7774 0,1.8594 -0.96,2.3945 -4.2,4.0742 -1.43,0.7227 -4.26,2.168 -5.76,3.0664 -2.52,1.5547 -3.36,4.0156 -3.36,6.2383 0,5.2773 4.14,9.0547 9.96,9.0547 2.58,0 5.76,-0.7696 7.86,-1.9727 0.6,-0.3594 0.67,-0.7812 0.36,-1.3867 l -1.25,-2.6367 c -0.31,-0.6641 -0.67,-0.5352 -1.21,-0.3047 -2.09,0.9687 -4.08,1.5078 -5.64,1.5078 -2.7,0 -4.2,-1.3203 -4.2,-3.5469 0,-1.7968 0.97,-2.5195 3.66,-3.9531 1.45,-0.7812 4.98,-2.5781 5.94,-3.125 3.07,-1.7383 3.85,-3.7148 3.85,-6.5351 0,-5.4571 -3.97,-9.1211 -9.9,-9.1211" /><path
         id="path112"
         style="fill:#102d57;fill-opacity:1;fill-rule:nonzero;stroke:none"
         d="m 1266.3,58.2344 c -0.31,-0.4805 -0.78,-0.1875 -0.97,0 -2.33,1.7383 -3.72,2.2734 -5.52,2.2734 -4.5,0 -6.6,-3.418 -6.6,-10.5586 0,-7.0781 2.04,-10.4375 6.36,-10.4375 2.46,0 4.02,0.9571 5.89,2.2735 0.53,0.4218 0.84,0.3632 1.01,-0.1133 l 1.2,-2.9414 c 0.31,-0.7227 0.37,-0.9571 -0.36,-1.5039 -2.22,-1.7383 -5.58,-2.7539 -8.45,-2.7539 -7.69,0 -12.13,5.4609 -12.13,14.8828 0,10.0195 4.98,16.1914 13.03,16.1914 2.93,0 5.87,-1.0156 7.91,-2.6367 0.48,-0.4219 0.9,-0.9571 0.6,-1.4336 l -1.97,-3.2422" /><path
         id="path114"
         style="fill:#102d57;fill-opacity:1;fill-rule:nonzero;stroke:none"
         d="m 1299.29,35.3711 h -4.38 c -0.84,0 -0.84,0.1758 -0.84,0.957 v 19.1407 c 0,3.7226 -0.95,5.039 -3.71,5.039 -2.11,0 -3.9,-0.8398 -6.54,-3.1133 V 36.2109 c 0,-0.7226 -0.12,-0.8398 -0.84,-0.8398 h -4.33 c -0.77,0 -0.95,0.1172 -0.95,0.8398 v 40.6836 c 0,0.5938 0.24,0.8399 0.84,0.9571 l 4.14,0.8398 c 0.77,0.1758 1.14,0.2461 1.14,-0.7226 V 61.7695 c 2.81,2.6446 5.39,3.7774 8.75,3.7774 6.25,0 7.63,-3.8946 7.63,-9.2383 V 36.2109 c 0,-0.7226 -0.19,-0.8398 -0.91,-0.8398" /><path
         id="path116"
         style="fill:#102d57;fill-opacity:1;fill-rule:nonzero;stroke:none"
         d="m 1326.47,49.2305 c -3.78,-0.0586 -9.78,-0.293 -9.78,-5.5196 0,-2.5781 1.74,-4.5 4.08,-4.5 1.86,0 3.65,0.8985 5.7,2.8789 z m 7.2,-12.6602 -3.66,-1.793 c -0.84,-0.4218 -1.19,0 -1.62,0.7696 -0.35,0.664 -0.72,1.5625 -1.02,2.707 -2.58,-2.5781 -4.92,-3.6055 -8.1,-3.6055 -5.16,0 -8.52,3.3594 -8.52,8.6407 0,9.0078 8.63,10.2656 15.72,10.3242 v 1.914 c 0,3.6641 -1.21,4.9805 -4.74,4.9805 -2.03,0 -4.08,-0.5351 -6.9,-1.7383 -0.43,-0.1757 -0.89,-0.2343 -1.08,0.3008 l -0.96,2.9414 c -0.42,1.2031 0.54,1.5039 1.09,1.7383 2.87,1.1992 5.75,1.7383 8.57,1.7383 6.6,0 9.9,-2.6953 9.9,-9.0508 V 44.668 c 0,-3.3594 0.36,-5.0391 1.44,-7.0782 0.18,-0.3632 0.3,-0.8437 -0.12,-1.0195" /><path
         id="path118"
         style="fill:#102d57;fill-opacity:1;fill-rule:nonzero;stroke:none"
         d="m 1361.51,72.8711 c -0.18,-0.5938 -0.84,-0.3594 -1.27,-0.1758 -1.37,0.6563 -2.69,1.0156 -3.83,1.0156 -2.83,0 -3.55,-1.1406 -3.55,-5.5156 v -3.5469 h 7.87 c 0.54,0 0.73,-0.1757 0.6,-0.6562 l -0.97,-3.3555 c -0.17,-0.6094 -0.35,-0.664 -0.58,-0.664 h -6.92 V 36.1523 c 0,-0.664 -0.06,-0.7812 -0.84,-0.7812 h -4.31 c -0.79,0 -0.84,0.1172 -0.84,0.8398 v 23.7618 h -4.26 c -0.67,0 -0.9,0.1171 -0.9,0.664 v 3.2305 c 0,0.7226 0.29,0.7812 1.01,0.7812 h 4.15 v 3.5469 c 0,4.5586 0.54,6.543 2.57,8.3985 1.62,1.5039 3.68,2.2148 6.37,2.2148 2.34,0 5.22,-0.6563 6.48,-1.4922 0.6,-0.4219 0.47,-0.6641 0.3,-1.1445 l -1.08,-3.3008" /><path
         id="path120"
         style="fill:#102d57;fill-opacity:1;fill-rule:nonzero;stroke:none"
         d="m 1387.13,36.1523 c -2.22,-1.0234 -4.86,-1.5625 -7.2,-1.5625 -6.31,0 -7.74,3.6641 -7.74,9.0625 v 16.3204 h -4.14 c -0.78,0 -0.96,0.1757 -0.96,0.8945 V 63.75 c 0,0.7227 0.18,0.8984 0.96,0.8984 h 4.14 v 7.8633 c 0,0.6016 0.18,0.7774 0.78,0.8946 l 4.07,0.7851 c 0.78,0.1172 1.21,0.3008 1.21,-0.7226 v -8.8204 h 7.91 c 0.9,0 0.84,-0.4179 0.67,-1.0742 l -0.67,-2.8203 c -0.12,-0.6055 -0.29,-0.7812 -0.9,-0.7812 h -7.01 V 44.2461 c 0,-3.5313 0.54,-4.375 2.93,-4.375 1.75,0 3.01,0.5391 4.57,1.2031 0.84,0.3633 0.9,0 1.08,-0.6054 l 0.84,-3.0586 c 0.17,-0.7188 0.24,-0.8946 -0.54,-1.2579" /><path
         id="path122"
         style="fill:#102d57;fill-opacity:1;fill-rule:nonzero;stroke:none"
         d="m 1406.57,60.9961 c -3.6,0 -5.41,-2.5273 -5.82,-7.9219 h 11.15 c -0.11,5.3321 -1.79,7.9219 -5.33,7.9219 z m 10.8,-12.5508 h -16.68 c 0.24,-5.8164 2.64,-8.8164 7.26,-8.8164 3.54,0 5.46,1.3164 7.31,2.1563 0.37,0.1875 0.55,0.1289 0.78,-0.3477 l 1.39,-3.0078 c 0.35,-0.7149 0.12,-1.0742 -0.6,-1.4961 -2.41,-1.5039 -6.36,-2.4609 -9.48,-2.4609 -8.16,0 -12.91,5.7031 -12.91,15.4218 0,9.4805 4.93,15.6524 12.48,15.6524 7.39,0 11.41,-5.2735 11.41,-14.8711 0,-1.3906 0.06,-2.2305 -0.96,-2.2305" /><path
         id="path124"
         style="fill:#102d57;fill-opacity:1;fill-rule:nonzero;stroke:none"
         d="m 1450.73,35.3711 h -4.38 c -0.77,0 -0.77,0.1172 -0.77,0.8398 v 19.2579 c 0,3.5468 -1.16,5.039 -3.79,5.039 -2.28,0 -4.03,-0.8398 -6.55,-3.1133 V 36.2109 c 0,-0.7226 -0.11,-0.8398 -0.84,-0.8398 h -4.37 c -0.72,0 -0.84,0.1172 -0.84,0.8398 v 20.461 c 0,2.5195 -0.29,4.1406 -1.13,5.9375 -0.26,0.5429 -0.37,0.7812 0.23,1.082 l 4.02,1.7969 c 0.66,0.3008 0.9,-0.2344 1.25,-0.957 0.38,-0.7813 0.67,-1.379 1.22,-3.0547 2.93,2.2734 5.15,4.0117 8.93,4.0117 5.58,0 7.92,-2.461 7.92,-9.1797 V 36.2109 c 0,-0.7226 -0.17,-0.8398 -0.9,-0.8398" /></g></g></svg>