<?xml version="1.0" encoding="utf-8"?>
<!-- Generator: Adobe Illustrator 22.0.1, SVG Export Plug-In . SVG Version: 6.00 Build 0)  -->
<svg version="1.1" id="Layer_1" xmlns="http://www.w3.org/2000/svg" xmlns:xlink="http://www.w3.org/1999/xlink" x="0px" y="0px"
	 viewBox="0 0 99.2 42.5" style="enable-background:new 0 0 99.2 42.5;" xml:space="preserve">
<style type="text/css">
	.st0{fill:#003A54;}
</style>
<path class="st0" d="M43.1,12.7V18h-5.4V0.4h5.4v10.1h0.1l2.9-4.7h6.3l-4,5.5l3.9,6.7H46L43.1,12.7L43.1,12.7z"/>
<path class="st0" d="M67.6,5.8h5.2v1.4h0c0.5-1,1.6-1.7,3-1.7c0.4,0,0.8,0,1,0.1l-0.4,4.6C76.1,10,75.7,10,75.3,10
	c-1.4,0-2.3,0.9-2.3,2.1V18h-5.4V5.8z"/>
<path class="st0" d="M13.6,32.5v-4.4h-1.7v-3.8h1.7v-2.8h5.2v2.8h2.7v3.8h-2.7v3.3c0,1.2,0.5,1.5,1.4,1.5c0.4,0,0.8-0.1,1-0.1v3.7
	c-0.6,0.2-1.7,0.4-2.8,0.4C15.2,36.9,13.6,35.5,13.6,32.5z"/>
<path class="st0" d="M36.7,24.3h5.2v1.4h0c0.5-1,1.6-1.7,3-1.7c0.4,0,0.8,0,1,0.1l-0.4,4.6c-0.3-0.1-0.8-0.1-1.1-0.1
	c-1.4,0-2.3,0.9-2.3,2.1v5.9h-5.4V24.3z"/>
<path class="st0" d="M48.8,32.5v-4.4h-1.7v-3.8h1.7v-2.8H54v2.8h2.7v3.8H54v3.3c0,1.2,0.5,1.5,1.4,1.5c0.4,0,0.8-0.1,1-0.1v3.7
	c-0.6,0.2-1.7,0.4-2.8,0.4C50.4,36.9,48.8,35.5,48.8,32.5z"/>
<g>
	<polygon class="st0" points="6.5,5.8 1.1,5.8 1.1,18 6.5,18 6.5,12 	"/>
	<path class="st0" d="M17.1,5.4c-1.8,0-2.9,0.8-3.7,1.8C12.7,6,11.5,5.4,9.9,5.4c-1,0-1.9,0.3-2.5,0.8v3.7c0.1,0,0.2,0,0.2,0
		c0.7,0,1,0.5,1,1.8V18H14v-6.5c0-1.1,0.5-1.7,1.1-1.7c0.7,0,1,0.4,1,1.7V18h5.4v-7.5C21.6,8.5,20.6,5.4,17.1,5.4z"/>
</g>
<path class="st0" d="M29.6,5.3c-2.2,0-4.4,0.8-5.8,2.2l2.7,2.7c0.7-0.6,1.6-1,2.6-1c0.8,0,1.4,0.4,1.4,1.1v0c-3.2,0-7.1,0.7-7.1,4.1
	c0,2.9,2.4,3.9,4.3,3.9c0.7,0,1.6-0.2,2.2-0.6V15c-0.2,0.1-0.5,0.1-0.7,0.1c-0.5,0-1.2-0.3-1.2-1c0-0.9,1-1.2,2.6-1.2h0.3L30.6,18
	h4.9v-6.5C35.5,8.1,34.2,5.3,29.6,5.3z"/>
<path class="st0" d="M29.3,23.9c-2.2,0-4.4,0.8-5.8,2.2l2.7,2.7c0.7-0.6,1.6-1,2.6-1c0.8,0,1.4,0.4,1.4,1.1v0
	c-3.2,0-7.1,0.7-7.1,4.1c0,2.9,2.4,3.9,4.3,3.9c0.7,0,1.6-0.2,2.2-0.6v-2.8c-0.2,0.1-0.5,0.1-0.7,0.1c-0.5,0-1.2-0.3-1.2-1
	c0-0.9,1-1.2,2.6-1.2h0.3l-0.2,5.1h4.9v-6.5C35.2,26.7,34,23.9,29.3,23.9z"/>
<g>
	<path class="st0" d="M65.3,32.3c-0.2,0.1-0.3,0.1-0.5,0.1c-0.8,0-1.2-0.4-1.2-1.7v-6.5h-5.4v7.5c0,2.4,0.9,5.1,4.4,5.1
		c1.1,0,2-0.4,2.7-0.9V32.3z"/>
	<rect x="66" y="24.3" class="st0" width="5.4" height="12.3"/>
</g>
<path class="st0" d="M65.7,12c0-3.8-2.5-6.6-6.2-6.7v3.5c0.9,0.1,1.5,0.7,1.5,1.5h-3.7c0.1-0.6,0.5-1.2,1.4-1.4V5.3
	c-3.5,0.2-6.3,2.7-6.3,6.6c0,4.3,3.4,6.6,7,6.6c2.7,0,4.9-1.1,6-2.9l-3.8-1.9c-0.3,0.4-1,0.9-2,0.9s-2-0.5-2.1-1.4h8.3
	C65.7,12.9,65.7,12.4,65.7,12z"/>
<g>
	<path class="st0" d="M7.3,28.8c-1.4-0.3-1.6-0.4-1.6-0.7h0v-4.3c-2.2,0.2-4.9,1.4-4.9,4.4c0,2.4,1.9,3.4,3.5,3.7
		c1.4,0.3,1.9,0.5,1.9,0.9c0,0,0,4.1,0,4.1c2.2-0.1,5-1.3,5-4.4C11.2,30.3,9.3,29.2,7.3,28.8z"/>
	<path class="st0" d="M9,28.4l2.5-3c-1.4-0.9-3.2-1.5-5-1.6v3.8c0,0,0.1,0,0.1,0C7.4,27.6,8.2,27.9,9,28.4z"/>
	<path class="st0" d="M0,35.2c1.4,1,3.4,1.7,5.3,1.7v-3.7c-0.9,0-2-0.5-2.7-1.1L0,35.2z"/>
</g>
<g>
	<path class="st0" d="M94.3,28.8c-1.4-0.3-1.6-0.4-1.6-0.7h0v-4.3c-2.2,0.2-4.9,1.4-4.9,4.4c0,2.4,1.9,3.4,3.5,3.7
		c1.4,0.3,1.9,0.5,1.9,0.9c0,0,0,4.1,0,4.1c2.2-0.1,5-1.3,5-4.4C98.1,30.3,96.2,29.2,94.3,28.8z"/>
	<path class="st0" d="M95.9,28.4l2.5-3c-1.4-0.9-3.2-1.5-5-1.6v3.8c0,0,0.1,0,0.1,0C94.3,27.6,95.2,27.9,95.9,28.4z"/>
	<path class="st0" d="M86.9,35.2c1.4,1,3.4,1.7,5.3,1.7v-3.7c-0.9,0-2-0.5-2.7-1.1L86.9,35.2z"/>
</g>
<path class="st0" d="M81.3,23.9c-0.9,0-1.9,0.3-2.7,0.9v4c0.3-0.3,0.8-0.4,1.3-0.4c1.3,0,2,1,2,2c0,1.2-0.7,2.1-2,2.1
	c-1.3,0-2.1-0.9-2.1-2.1l0-6.1h-5.1v17.9h5.3v-6.6h0c0.7,0.8,2,1.3,3.2,1.3c3.7,0,5.6-3.3,5.6-6.5C86.9,27.2,85,23.9,81.3,23.9z"/>
</svg>
