<?xml version="1.0" encoding="UTF-8" standalone="no"?>
<svg
   xmlns:dc="http://purl.org/dc/elements/1.1/"
   xmlns:cc="http://creativecommons.org/ns#"
   xmlns:rdf="http://www.w3.org/1999/02/22-rdf-syntax-ns#"
   xmlns:svg="http://www.w3.org/2000/svg"
   xmlns="http://www.w3.org/2000/svg"
   viewBox="0 0 757.37335 110.2"
   height="110.2"
   width="757.37335"
   xml:space="preserve"
   id="svg2"
   version="1.1"><metadata
     id="metadata8"><rdf:RDF><cc:Work
         rdf:about=""><dc:format>image/svg+xml</dc:format><dc:type
           rdf:resource="http://purl.org/dc/dcmitype/StillImage" /></cc:Work></rdf:RDF></metadata><defs
     id="defs6" /><g
     transform="matrix(1.3333333,0,0,-1.3333333,0,110.2)"
     id="g10"><g
       transform="scale(0.1)"
       id="g12"><path
         id="path14"
         style="fill:#040606;fill-opacity:1;fill-rule:nonzero;stroke:none"
         d="m 557.379,413.586 c -3,1.742 -4.211,2.539 -5.5,3.18 -71.711,35.738 -143.418,71.472 -215.149,107.164 -7.964,3.961 -8.585,3.535 -8.593,-5.797 -0.032,-68.949 -0.028,-137.899 -0.004,-206.848 0.004,-11.41 0.523,-11.73 10.519,-6.754 52.996,26.395 105.981,52.809 158.969,79.227 19.434,9.687 38.859,19.394 59.758,29.828 z m -284.117,0.84 c 0,62.199 0,124.398 0.004,186.601 0,2.653 0.007,5.305 0.086,7.957 0.128,4.321 1.968,6.032 6.203,3.946 1.847,-0.914 3.703,-1.817 5.55,-2.739 127.348,-63.621 254.7,-127.242 382.047,-190.863 1.848,-0.922 3.731,-1.777 5.512,-2.812 3.109,-1.801 3.758,-3.727 0.016,-5.602 -1.317,-0.656 -2.641,-1.309 -3.957,-1.965 -127.621,-63.746 -255.239,-127.488 -382.86,-191.234 -1.843,-0.922 -3.707,-1.813 -5.543,-2.746 -4.386,-2.231 -6.734,-0.903 -6.929,4.011 -0.118,2.946 -0.121,5.895 -0.121,8.84 -0.008,62.203 -0.008,124.403 -0.008,186.606" /><path
         id="path16"
         style="fill:#040606;fill-opacity:1;fill-rule:nonzero;stroke:none"
         d="m 414.254,0 c -87.43,1.96875 -168.477,24.0078 -239.801,76.6953 -8.098,5.9805 -8.125,6.1563 0.496,10.6875 12.778,6.711 25.656,13.2422 38.328,20.1482 4.895,2.668 8.864,2.805 13.856,-0.254 64.512,-39.5309 134.836,-56.8668 210.129,-52.3278 77.937,4.7031 147.543,32.0625 207.562,82.1838 66.989,55.941 108.36,127.18 124.078,213.125 1.903,10.414 3.18,20.957 4.336,31.484 0.532,4.836 2.856,6.774 7.391,6.778 13.551,0.003 27.105,-0.071 40.656,0.054 6.344,0.059 8.297,-3.094 7.492,-8.937 C 820.074,316.094 804.465,254.906 770.313,199.508 730.262,134.531 676.758,83.9961 609.914,47.4727 565.102,22.9844 516.355,10.875 466.445,2.50391 449.152,-0.398438 431.766,0.996094 414.254,0" /><path
         id="path18"
         style="fill:#040606;fill-opacity:1;fill-rule:nonzero;stroke:none"
         d="M 416.281,826.305 C 538.258,823.441 642.145,779.402 724.516,688.223 778.473,628.5 810.82,558.047 823.84,478.684 c 1.336,-8.133 2.281,-16.332 3.707,-24.446 1.133,-6.476 -1.656,-8.258 -7.711,-8.117 -12.664,0.297 -25.352,0.356 -38.012,-0.019 -6.648,-0.196 -9.34,2.16 -10.086,8.906 -6.504,58.855 -26.41,112.933 -60.531,161.269 -61.363,86.926 -144.879,138.434 -250.578,152.289 -84.59,11.086 -163.402,-6.609 -236.008,-51.429 -4.887,-3.016 -8.808,-3.282 -13.812,-0.532 -12.911,7.09 -25.969,13.926 -39.161,20.481 -7.242,3.598 -5.718,6.086 -0.261,10.191 47.25,35.563 100.285,57.676 157.961,69.778 28.675,6.015 57.351,10.488 86.933,9.25" /><path
         id="path20"
         style="fill:#040606;fill-opacity:1;fill-rule:nonzero;stroke:none"
         d="m 0,413.703 c 3.94922,104.113 36.6484,197.125 106.512,275.926 4.715,5.312 8.476,6.551 14.953,2.875 11.254,-6.391 22.98,-12 34.711,-17.5 6.457,-3.024 7.683,-5.254 2.027,-11.063 C 119.168,623.824 89.4766,577.57 73.4805,523.832 35.4141,395.926 58.6094,279.988 144.391,177.152 c 4.519,-5.422 9.363,-10.597 14.32,-15.629 3.664,-3.718 3.574,-6.351 -1.262,-8.695 -13.519,-6.543 -27.054,-13.062 -40.484,-19.801 -6.121,-3.07 -8.735,1.676 -11.598,5.039 C 84.8789,162.113 66.4258,187.605 50.9609,215.215 23.4414,264.348 10.7578,318.004 2.29297,373.027 0.214844,386.539 0.671875,400.043 0,413.703" /><path
         id="path22"
         style="fill:#040606;fill-opacity:1;fill-rule:nonzero;stroke:none"
         d="m 1113.18,397.879 c 0,-98.691 53.46,-187.102 147.35,-187.102 94.58,0 148.04,87.039 148.04,191.899 0,91.836 -47.98,187.789 -147.35,187.789 -98.7,0 -148.04,-91.156 -148.04,-192.586 z m 358.44,7.543 c 0,-159.008 -96.64,-243.305 -214.52,-243.305 -121.99,0 -207.66,94.578 -207.66,234.391 0,146.664 91.15,242.613 214.52,242.613 126.1,0 207.66,-96.633 207.66,-233.699" /><path
         id="path24"
         style="fill:#040606;fill-opacity:1;fill-rule:nonzero;stroke:none"
         d="m 1608.71,403.363 c 13.03,-3.429 29.47,-4.8 49.35,-4.8 71.96,0 115.82,34.953 115.82,98.691 0,60.996 -43.17,90.469 -108.96,90.469 -26.05,0 -45.92,-2.055 -56.21,-4.801 z m -59.62,222.739 c 28.78,4.796 66.48,8.91 114.45,8.91 58.94,0 102.12,-13.707 129.53,-38.379 25.36,-21.934 40.44,-55.516 40.44,-96.637 0,-41.805 -12.34,-74.699 -35.64,-98.687 -31.52,-33.586 -82.93,-50.723 -141.18,-50.723 -17.82,0 -34.27,0.687 -47.98,4.113 V 169.656 h -59.62 v 456.446" /><path
         id="path26"
         style="fill:#040606;fill-opacity:1;fill-rule:nonzero;stroke:none"
         d="M 2152.91,386.23 H 1973.34 V 219.688 h 200.13 v -50.032 h -259.75 v 461.93 h 249.46 V 581.555 H 1973.34 V 435.57 h 179.57 v -49.34" /><path
         id="path28"
         style="fill:#040606;fill-opacity:1;fill-rule:nonzero;stroke:none"
         d="m 2250.92,169.656 v 461.93 h 65.11 l 148.04,-233.707 c 34.27,-54.145 60.99,-102.805 82.93,-150.09 l 1.36,0.684 c -5.48,61.679 -6.85,117.882 -6.85,189.84 v 193.273 h 56.2 v -461.93 h -60.31 l -146.67,234.391 c -32.21,51.398 -63.05,104.172 -86.35,154.203 l -2.06,-0.684 c 3.43,-58.257 4.8,-113.769 4.8,-190.527 V 169.656 h -56.2" /><path
         id="path30"
         style="fill:#040606;fill-opacity:1;fill-rule:nonzero;stroke:none"
         d="m 3024.7,184.734 c -21.93,-10.964 -65.79,-21.929 -121.98,-21.929 -130.22,0 -228.22,82.238 -228.22,233.703 0,144.609 98,242.613 241.24,242.613 57.57,0 93.89,-12.336 109.66,-20.558 L 3011,569.898 c -22.62,10.973 -54.82,19.192 -93.21,19.192 -108.29,0 -180.24,-69.219 -180.24,-190.527 0,-113.083 65.11,-185.727 177.5,-185.727 36.33,0 73.33,7.535 97.33,19.184 l 12.32,-47.286" /><path
         id="path32"
         style="fill:#040606;fill-opacity:1;fill-rule:nonzero;stroke:none"
         d="m 3328.33,361.559 -45.23,132.953 c -10.27,30.156 -17.13,57.57 -23.98,84.301 h -1.38 c -6.85,-27.415 -14.39,-55.516 -23.3,-83.618 l -45.23,-133.636 z m -151.46,-46.61 -47.97,-145.293 h -61.68 l 156.95,461.93 h 71.95 l 157.64,-461.93 h -63.75 l -49.34,145.293 h -163.8" /><path
         id="path34"
         style="fill:#040606;fill-opacity:1;fill-rule:nonzero;stroke:none"
         d="m 3908.17,372.52 c -3.43,64.425 -7.54,141.867 -6.86,199.437 h -2.05 C 3883.49,517.816 3864.3,460.242 3841,396.508 l -81.56,-224.113 h -45.24 l -74.7,220.003 c -21.93,65.106 -40.43,124.731 -53.45,179.559 h -1.37 c -1.37,-57.57 -4.8,-135.012 -8.91,-204.234 l -12.34,-198.067 h -56.88 l 32.2,461.93 h 76.08 l 78.82,-223.426 c 19.19,-56.887 34.95,-107.601 46.6,-155.574 h 2.06 c 11.64,46.602 28.1,97.316 48.66,155.574 l 82.24,223.426 h 76.07 l 28.79,-461.93 h -58.26 l -11.64,202.864" /><path
         id="path36"
         style="fill:#040606;fill-opacity:1;fill-rule:nonzero;stroke:none"
         d="m 4129.56,403.363 c 13.02,-3.429 29.47,-4.8 49.35,-4.8 71.96,0 115.82,34.953 115.82,98.691 0,60.996 -43.18,90.469 -108.97,90.469 -26.05,0 -45.92,-2.055 -56.2,-4.801 z m -59.62,222.739 c 28.78,4.796 66.48,8.91 114.45,8.91 58.94,0 102.12,-13.707 129.53,-38.379 25.36,-21.934 40.44,-55.516 40.44,-96.637 0,-41.805 -12.34,-74.699 -35.64,-98.687 -31.53,-33.586 -82.92,-50.723 -141.19,-50.723 -17.82,0 -34.26,0.687 -47.97,4.113 V 169.656 h -59.62 v 456.446" /><path
         id="path38"
         style="fill:#040606;fill-opacity:1;fill-rule:nonzero;stroke:none"
         d="M 4494.18,631.586 V 358.129 c 0,-103.488 45.93,-147.352 107.61,-147.352 68.54,0 112.4,45.231 112.4,147.352 v 273.457 h 60.3 V 362.242 c 0,-141.871 -74.7,-200.125 -174.75,-200.125 -94.59,0 -165.86,54.141 -165.86,197.383 v 272.086 h 60.3" /><path
         id="path40"
         style="fill:#040606;fill-opacity:1;fill-rule:nonzero;stroke:none"
         d="m 4869.78,242.305 c 26.73,-16.45 65.79,-30.16 106.91,-30.16 61,0 96.63,32.214 96.63,78.816 0,43.18 -24.66,67.852 -87.03,91.84 -75.39,26.726 -121.99,65.793 -121.99,130.902 0,71.965 59.62,125.418 149.4,125.418 47.3,0 81.56,-10.965 102.12,-22.613 l -16.45,-48.66 c -15.08,8.222 -45.92,21.929 -87.73,21.929 -63.05,0 -87.04,-37.695 -87.04,-69.218 0,-43.18 28.11,-64.422 91.84,-89.098 78.13,-30.152 117.88,-67.852 117.88,-135.699 0,-71.278 -52.77,-132.957 -161.74,-132.957 -44.55,0 -93.21,13.019 -117.88,29.465 l 15.08,50.035" /><path
         id="path42"
         style="fill:#040606;fill-opacity:1;fill-rule:nonzero;stroke:none"
         d="m 5171.24,179.258 c 0,14.355 5.86,21.531 17.58,21.531 12.01,0 18.02,-7.176 18.02,-21.531 0,-14.356 -6.01,-21.531 -18.02,-21.531 -11.72,0 -17.58,7.175 -17.58,21.531" /><path
         id="path44"
         style="fill:#040606;fill-opacity:1;fill-rule:nonzero;stroke:none"
         d="m 5430.73,224.301 c 0,-21.387 -8.12,-37.832 -24.39,-49.328 -16.25,-11.5 -39.33,-17.246 -69.21,-17.246 -31.93,0 -57.27,4.906 -76.02,14.718 v 23.512 c 24.02,-12.012 49.36,-18.016 76.02,-18.016 23.59,0 41.5,3.914 53.72,11.758 12.24,7.832 18.35,18.27 18.35,31.309 0,12.012 -4.87,22.117 -14.61,30.32 -9.74,8.203 -25.75,16.262 -48.02,24.172 -23.87,8.641 -40.64,16.074 -50.31,22.305 -9.67,6.218 -16.95,13.25 -21.86,21.093 -4.91,7.832 -7.36,17.391 -7.36,28.672 0,17.871 7.5,32.004 22.52,42.407 15.01,10.398 36,15.601 62.95,15.601 25.78,0 50.25,-4.836 73.39,-14.504 l -8.13,-19.773 c -23.44,9.668 -45.19,14.5 -65.26,14.5 -19.48,0 -34.94,-3.223 -46.36,-9.668 -11.43,-6.445 -17.13,-15.379 -17.13,-26.805 0,-12.453 4.42,-22.414 13.29,-29.883 8.85,-7.472 26.18,-15.82 51.96,-25.05 21.53,-7.762 37.21,-14.762 47.02,-20.985 9.82,-6.226 17.18,-13.293 22.08,-21.203 4.91,-7.91 7.36,-17.211 7.36,-27.906" /><path
         id="path46"
         style="fill:#040606;fill-opacity:1;fill-rule:nonzero;stroke:none"
         d="m 5658.81,162.121 v 154.906 c 0,24.024 -5.06,41.489 -15.16,52.407 -10.11,10.91 -25.79,16.367 -47.03,16.367 -28.55,0 -49.47,-7.219 -62.72,-21.641 -13.26,-14.433 -19.89,-37.832 -19.89,-70.203 V 162.121 h -21.75 v 341.895 h 21.75 V 395.25 l -1.1,-30.543 h 1.55 c 8.92,14.356 20.21,24.758 33.82,31.203 13.64,6.445 30.55,9.668 50.77,9.668 54.19,0 81.29,-29.078 81.29,-87.234 V 162.121 h -21.53" /></g></g></svg>