<?xml version="1.0" encoding="utf-8"?>
<!-- Generator: Adobe Illustrator 24.1.2, SVG Export Plug-In . SVG Version: 6.00 Build 0)  -->
<svg version="1.1" id="Ebene_1" xmlns="http://www.w3.org/2000/svg" xmlns:xlink="http://www.w3.org/1999/xlink" x="0px" y="0px"
	 viewBox="0 0 3000 3000" style="enable-background:new 0 0 3000 3000;" xml:space="preserve">
<style type="text/css">
	.st0{display:none;fill:#DE5C47;}
	.st1{fill:#DE5C47;}
</style>
<g>
	<g>
		<g>
			<path class="st0" d="M1583.1,1586.2v-42.1h-91.6v-148.5v-1.6c0-49.5-25.6-95.7-67.6-121.3l-244.2-149.3
				c-5.8-4.1-13.2-5.8-20.6-5.8h-47h-47c-7.4,0-14,1.6-20.6,5.8l-244.2,149.3c-42.1,25.6-67.6,71.8-67.6,121.3v1.6v148.5h-91.6
				c0,0,0,41.2,0,42.1c-23.9,0-48.7,0-72.6,0v21.4h375.3l86.6-342.3l116.3,475.1l37.1-132.8h448.7v-21.4H1583.1z"/>
		</g>
	</g>
</g>
<path class="st1" d="M1491.9,1629.9h-0.3V1587h0.3v-42.9h-0.3v-148.5v-1.6v-2.5h0c-0.8-48.5-26.2-93.6-67.6-118.8l-244.2-149.3
	c-5.8-4.1-13.2-5.8-20.6-5.8h-47h-47c-7.4,0-14,1.6-20.6,5.8l-244.2,149.3c-41.4,25.1-66.8,70.2-67.6,118.8h-0.5v152.6v42.1v42.9
	v41.2h0.5v1.7c0,49.5,25.6,95.7,67.6,121.3l244.2,149.3c5.8,4.1,13.2,5.8,20.6,5.8h47h47c7.4,0,14-1.7,20.6-5.8l244.2-149.3
	c42.1-25.6,67.6-71.8,67.6-121.3v-1.7h0.3V1629.9z"/>
</svg>
