<?xml version="1.0" encoding="UTF-8"?>
<svg width="1920px" height="295px" viewBox="0 0 1920 295" version="1.1" xmlns="http://www.w3.org/2000/svg" xmlns:xlink="http://www.w3.org/1999/xlink">
        <title>Group 27</title>
        <g id="Page-1" stroke="none" stroke-width="1" fill="none" fill-rule="evenodd">
            <g id="Print4Life---Landingpage-Copy-8" transform="translate(0.000000, -725.000000)">
                <g id="Group-27" transform="translate(-152.947144, 623.992037)">
                    <g id="Path-17" transform="translate(67.947144, 52.007963)" fill="#fff">
                        <path d="M7.79331183,225.470172 C7.79331183,225.470172 17.4059279,320.302217 180.405928,277.302217 C343.405928,234.302217 348.489639,194.445931 466.646186,175.235768 C584.802733,156.025605 603.690285,225.586241 725.793312,226.470172 C847.896339,227.354103 878.793312,155.470172 924.793312,137.470172 C970.793312,119.470172 1032.09683,73.5029464 1228.54818,134.304804 C1424.99954,195.106661 1424.60624,69.9997645 1560.79331,157.470172 C1696.98038,244.940579 1781.92472,203.438058 1884.22486,110.957341 C1986.52499,18.4766246 2136.27802,72.7992356 2192.27802,84.7992356 C2248.27802,96.7992356 2079.35514,283.927974 2079.35514,283.927974 L38.4882423,400.15638 L7.79331183,225.470172 Z" id="Path-15" transform="translate(1107.006945, 229.095973) rotate(3.000000) translate(-1107.006945, -229.095973) "></path>
                    </g>
                    <path d="M61,224.434606 C61,224.434606 81.9425939,340.757225 244.942594,297.757225 C407.942594,254.757225 401.696327,193.410365 519.852874,174.200202 C638.009421,154.99004 696.525722,229.983061 818.628749,230.866992 C940.731776,231.750923 986.291626,198.615873 1032.29163,180.615873 C1078.29163,162.615873 1085.30352,72.4673809 1281.75487,133.269238 C1478.20623,194.071096 1477.81293,68.964199 1614,156.434606 C1750.18707,243.905014 1835.13141,202.402493 1937.43154,109.921776 C2039.73168,17.4410591 2189.48471,71.7636701 2245.48471,83.7636701" id="line1" stroke="#45B29D" stroke-width="5" transform="translate(1153.242355, 182.147932) rotate(183.000000) translate(-1153.242355, -182.147932) "></path>
                    <path d="M6,248.434606 C6,248.434606 26.9425939,364.757225 189.942594,321.757225 C352.942594,278.757225 346.696327,217.410365 464.852874,198.200202 C583.009421,178.99004 585.587817,256.63432 707.690844,257.518251 C829.793871,258.402182 877,178.434606 923,160.434606 C969,142.434606 1030.30352,96.4673809 1226.75487,157.269238 C1423.20623,218.071096 1422.81293,92.964199 1559,180.434606 C1695.18707,267.905014 1780.13141,226.402493 1882.43154,133.921776 C1984.73168,41.4410591 2134.48471,95.7636701 2190.48471,107.76367" id="line2" stroke="#DF5A49" stroke-width="5" transform="translate(1098.242355, 206.147932) scale(1, -1) rotate(183.000000) translate(-1098.242355, -206.147932) "></path>
                    <path d="M710.947144,275.007963 C710.947144,275.007963 757.947144,270.007963 814.947144,264.007963 C871.947144,258.007963 904.947144,248.007963 933.947144,199.007963 C962.947144,150.007963 991.947144,99.0079628 1037.94714,102.007963 C1083.94714,105.007963 1100.94714,118.007963 1129.94714,115.007963 C1158.94714,112.007963 1199.94714,91.0079628 1235.94714,121.007963 C1271.94714,151.007963 1266.94714,190.007963 1351.94714,213.007963 C1436.94714,236.007963 1443.94714,364.007963 1443.94714,364.007963 L644.947144,354.007963 L710.947144,275.007963 Z" id="Path-16" fill="#fff"></path>
                </g>
            </g>
        </g>
    </svg>
