<?xml version="1.0" encoding="UTF-8"?>
<svg width="204px" height="14px" viewBox="0 0 204 14" version="1.1" xmlns="http://www.w3.org/2000/svg" xmlns:xlink="http://www.w3.org/1999/xlink">
    <title>Shape Copy 5</title>
    <g id="Page-1" stroke="none" stroke-width="1" fill="none" fill-rule="evenodd">
        <g id="Print4Life---Landingpage-Copy-8" transform="translate(-516.000000, -331.000000)" fill="#F7F9F8" fill-rule="nonzero">
            <g id="Group-25" transform="translate(-11.000000, 88.000000)">
                <g id="Group-13" transform="translate(456.500000, 191.068207)">
                    <g id="Shape-Copy-5" transform="translate(70.524449, 40.293160)">
                        <path d="M119.991029,23.3049213 C119.541375,23.4589796 119.155335,23.5912429 118.771037,23.722909 L115.327175,21.9055579 C114.804321,22.410726 114.471437,22.7361593 113.932898,23.2544642 C111.529514,23.1529528 108.273879,23.3404502 106.574605,22.8693183 C103.816552,22.1044006 102.012707,23.2001257 99.6197801,22.9093257 C97.4490662,22.6453962 94.2945159,22.9938189 92.715498,22.5713527 C90.1421867,21.8828671 87.5470898,22.2683115 85.0713779,22.051555 C82.6003503,21.7868824 80.1760709,21.4734654 77.8106838,21.1128739 L72.7433607,21.6589451 L69.7988234,19.7693417 C68.9587719,20.696976 68.6816595,21.0027043 68.2302625,21.5010054 C60.7107559,20.0195373 51.6950165,20.8590956 44.1694099,19.5603478 C43.9776969,19.2662636 43.8112552,19.0115896 43.3720581,18.3392264 C42.7054197,19.0062155 42.4230788,19.2892529 42.093681,19.6188661 L36.0233504,19.0698093 C35.8830513,18.6312207 35.740138,18.1887508 35.5318679,17.5414668 L33.5511241,18.0331996 L30.1778468,17.4536894 L28.6728998,18.615994 C26.8429121,18.1741212 25.0129243,17.7298599 22.8439532,17.2058824 C22.7568109,16.9440429 22.6165119,16.501573 22.4308988,15.928034 L16.6690518,16.9189636 C13.7933569,15.4921325 7.92345348,14.8308161 6.07952301,12.9119536 L7.90253933,12.2252594 C6.33397844,11.6878465 5.61331186,11.8371279 3.9462802,13.0469039 C3.41779717,13.0686635 2.88547259,13.0775431 2.35331948,13.073476 C2.13459238,13.0678033 1.935908,12.9734575 1.23615556,12.7913342 C1.74797116,12.3898669 2.31759115,11.9420229 2.9450155,11.4478021 L1,9.73196224 L5.93225257,10.34521 C5.43554162,9.67553389 5.06692981,9.1775313 4.44211973,8.33528591 L11.1407461,9.37308987 L9.67849882,9.98723335 L14.2578252,10.7864857 L14.2578252,8.89568811 L19.3992192,8 L31.2923964,9.69404477 C33.0988557,9.45161186 40.0275377,9.75763863 43.1681452,10.2460872 L45.1480176,9.62955523 L50.5456099,10.5109123 L49.0293344,11.1053507 C49.3927177,11.197308 49.8868143,11.4080932 50.1621839,11.3785355 C53.2871058,11.045041 56.2290289,10.2272778 59.6336774,11.3173302 C60.263716,11.5191586 62.473644,11.1477466 63.9489627,11.0325014 C70.6972602,10.5052396 76.8904615,10.8351514 82.335982,12.3357276 C83.6091306,12.2163025 85.0051498,11.9774523 86.3872262,11.9864092 C88.0141724,11.9971575 90.6101407,12.5041169 91.0833232,12.309454 C93.5346353,11.3024021 94.8138839,12.5291962 96.6412573,12.5369588 C98.464307,12.5122874 100.28042,12.6274506 101.956936,12.8740361 C105.147214,13.3717401 108.922218,13.4774313 112.494179,13.6314897 C124.475171,14.1450576 136.298286,15.0243369 147.822528,16.2588415 C156.770296,17.2175263 165.887121,18.0087175 174.488063,19.2886558 C180.283024,20.1506063 186.582539,20.9501572 191.132237,22.3557904 C195.246223,23.625279 200.118348,24.749069 203.326055,26.5592547 C202.875529,26.8019862 202.33089,27.0966676 201.69998,27.434342 L203.105585,27.9899672 L197.010854,29.9664523 C194.503771,29.7067027 191.889503,29.3445462 190.421156,28.108198 C190.112672,28.8166873 189.887845,29.3323051 189.645589,29.8885274 L187.309305,29.8885274 C186.898865,29.5215938 186.538967,29.1991461 186.171227,28.8698315 L183.373089,29.4806908 L180.940077,28.8560976 L176.994274,30.1100609 C175.004816,29.270204 173.617511,28.517826 171.756153,27.9466756 C169.949693,27.3922446 166.172947,27.9281647 165.315467,26.5034235 C165.646608,26.3275701 166.196476,26.0355757 167.053084,25.5814619 L161.589264,25.4853247 L164.284574,26.5240243 C162.209717,26.4875997 160.488657,26.6207586 159.321822,26.4045992 C156.58711,25.9344019 153.699011,25.5772053 150.718265,25.3405218 C147.957651,25.1033982 145.145293,24.9436375 142.309036,24.8628214 C139.774067,24.770267 137.315784,24.4388624 134.781687,24.3397396 C132.103805,24.2346455 129.309152,24.3964665 126.688784,24.2238972 C124.366442,24.0710331 122.200086,23.6202035 119.991029,23.3049213 Z" id="Shape-Copy-2" transform="translate(102.163027, 19.055030) rotate(-4.000000) translate(-102.163027, -19.055030) "></path>
                    </g>
                </g>
            </g>
        </g>
    </g>
</svg>