<svg width="58" height="11" xmlns="http://www.w3.org/2000/svg"><path d="M4.992 9.964L3.78 9.773l-.527-1.067-.55.326-1.256-.923-.01-.954-.772.26L.097 5.74l.54-.078.115-.722c.952-.142 1.755-.755 2.743-.345.162-.63.832-.74 1.25-.758.99-.044 1.905-.611 2.81-.483 1.056.147 1.94-.257 2.894-.352 1.146-.114 2.328-.244 3.48-.457 1.125-.208 2.321-.524 3.537-.294 2.094-.722 4.356-.485 6.529-.74 1.693-.199 3.417-.507 5.182-.348.614.055 1.285-.43 1.783.522.583-.701 1.193-1.043 2.094-.871a6.195 6.195 0 001.961-.002c1.676-.231 3.367-.122 5.05-.171 1.545-.046 3.104.1 4.62.035 2.047-.089 3.95.501 5.924.697.348.034.661.347 1.016.453.384.115.924.017 1.167.232.315.279.607.118.885.215.41.144.808.321 1.293.517.138.329.743.547.648 1.137-.024.149.24.482.393.498 1.16.121 1.29 1.033 1.67 1.846-.032 1.457-.947 2.338-2.503 2.725a2.527 2.527 0 01-.63.093c-.829-.01-1.688-.172-2.477-.03-.867.157-1.664.008-2.492-.104-.795-.107-1.695-.461-2.358-.242-.736.244-1.498-.449-2.098.175-.454-.605-1.107.09-1.603-.246-.643.36-1.316.006-1.967.037-.601.028-1.213.003-1.794.05a43.856 43.856 0 01-5.74.025c-.92.528-1.95-.274-2.918.167-.832.378-1.827.127-2.73.166-1.024.044-2.09.033-3.135.025-.976-.008-1.952.084-2.936.096-1.451.018-2.885.366-4.363.234-.72.569-1.599-.16-2.413.232-.684.329-1.607.257-2.372.249-1.865-.02-3.605.54-5.434.613-.434.017-.866.04-1.368.064l-.01-1.163-1.348.527z" fill="#45B29D" fill-rule="nonzero"/></svg>