<svg width="159" height="28" xmlns="http://www.w3.org/2000/svg"><path d="M13.096 20.519l-3.284-.758-1.233-3.056-1.571.8-3.264-2.793.166-2.646-2.17.574L.515 7.89l1.496-.116.457-1.98c2.641-.214 4.964-1.765 7.593-.444.568-1.718 2.429-1.896 3.578-1.87 2.725.063 5.346-1.337 7.802-.815 2.867.607 5.37-.35 8.008-.436 3.165-.102 6.432-.24 9.633-.617 3.125-.367 6.47-1.018 9.759-.156 5.886-1.611 12.042-.53 18.05-.832 4.683-.235 9.472-.769 14.28.002 1.673.268 3.61-.955 4.787 1.78C87.7.57 89.438-.263 91.874.382c1.768.41 3.588.532 5.38.362 4.642-.329 9.256.29 13.882.467 4.246.161 8.491.86 12.665.96 5.628.136 10.73 2.127 16.105 3.037.947.16 1.743 1.087 2.695 1.446 1.03.391 2.53.22 3.155.863.809.832 1.64.44 2.383.762 1.097.475 2.153 1.04 3.443 1.674.314.937 1.93 1.656 1.551 3.275-.094.407.561 1.38.979 1.452 3.158.553 3.33 3.107 4.215 5.43-.382 4.037-3.066 6.308-7.41 7.09-.57.121-1.158.169-1.747.142-2.269-.185-4.593-.792-6.784-.544-2.41.271-4.566-.292-6.814-.755-2.158-.444-4.558-1.596-6.418-1.112-2.068.54-4.02-1.523-5.789.094-1.125-1.761-3.054.04-4.346-.982-1.836.881-3.612-.23-5.4-.265-1.657-.033-3.33-.218-4.933-.197a119.192 119.192 0 01-15.745-.999c-2.63 1.29-5.29-1.124-8.036-.083-2.357.894-5.036.012-7.519-.048-2.818-.069-5.738-.298-8.604-.518-2.674-.204-5.369-.129-8.07-.28-3.982-.222-7.985.477-12.01-.165-2.09 1.443-4.353-.74-6.665.193-1.94.783-4.458.412-6.553.246-5.11-.405-9.994.824-15.025.686-1.192-.033-2.383-.05-3.765-.078l.205-3.227-3.803 1.212z" fill="#45B29D" fill-rule="nonzero"/></svg>