<?xml version="1.0" encoding="UTF-8"?>
<svg width="100px" height="20px" viewBox="0 0 100 20" version="1.1" xmlns="http://www.w3.org/2000/svg" xmlns:xlink="http://www.w3.org/1999/xlink">
    <title>line7</title>
    <g id="Page-1" stroke="none" stroke-width="1" fill="none" fill-rule="evenodd">
        <g id="Print4Life---Landingpage-Copy-8" transform="translate(-541.000000, -511.000000)" fill="#45B29D" fill-rule="nonzero">
            <g id="Group-25" transform="translate(-11.000000, 88.000000)">
                <g id="Group-13" transform="translate(456.500000, 191.068207)">
                    <g id="Group-28" transform="translate(20.903203, 104.480120)">
                        <g id="line7" transform="translate(73.351427, 115.115099)">
                            <path d="M90.9536309,8.78098101 L93.0724313,8.78098101 L94.2597645,10.6084893 L95.1094568,9.84156855 L97.5032891,11.1868754 L97.776085,12.9571843 L99.02443,12.2481021 L100.445588,15.1943561 L99.5457449,15.4988876 L99.5457449,16.8748713 C97.958162,17.4181069 96.7548571,18.7944101 94.957726,18.3237125 C94.852313,19.5434361 93.7378106,19.9444718 93.0302661,20.1020101 C91.3522835,20.4752449 89.9445415,21.7981832 88.3665415,21.8275819 C86.5243703,21.8636911 85.1265306,22.8763461 83.522976,23.3342617 C81.598391,23.8838882 79.6169469,24.4728195 77.7092919,25.2084244 C75.8469964,25.9264539 73.8901486,26.8652928 71.7537794,26.796909 C68.3764123,28.7560721 64.452495,28.9803965 60.8144703,30.0946685 C57.9798202,30.9628867 55.1218514,32.0439255 52.0671118,32.2676107 C51.004677,32.345581 49.990796,33.447071 48.8833212,31.8221575 C48.0777106,33.2981605 47.1302718,34.1126943 45.5468415,34.0590098 C44.4061903,34.0581782 43.273971,34.2545001 42.2001399,34.6393132 C39.4035023,35.5628137 36.4896327,35.8571195 33.6307056,36.4454117 C31.0072008,36.9854518 28.3079904,37.1711105 25.737192,37.7405492 C22.270703,38.50747 18.863948,37.9715841 15.4424991,38.1895174 C14.8397287,38.228183 14.2209866,37.7379928 13.5872311,37.6462818 C12.9010886,37.5453039 12.0063562,37.8862641 11.5329563,37.5577664 C10.9196445,37.1321254 10.46573,37.516864 9.96549758,37.4178034 C9.22600974,37.2714493 8.49961866,37.0592679 7.61958021,36.8381391 C7.29503609,36.2677417 6.20353287,36.0392632 6.20640777,34.9141265 C6.20640777,34.631644 5.66752397,34.0900062 5.40143612,34.1053446 C3.38900701,34.2213414 2.92231511,32.5635143 2.05185966,31.1654816 C1.71453821,28.4454692 3.0376305,26.5383928 5.58798511,25.361489 C5.92010708,25.1946169 6.27331837,25.0735759 6.63796201,25.0016753 C8.05368992,24.7779901 9.56365062,24.8246444 10.8704518,24.3277436 C12.3079012,23.7816321 13.7086157,23.8244519 15.1508566,23.7877036 C16.5355995,23.7522335 18.168542,24.1462391 19.2396015,23.5438867 C20.430129,22.872831 21.9174099,23.936614 22.7722131,22.6002546 C23.7107079,23.5908606 24.6370641,22.1087862 25.5730034,22.5861944 C26.5734681,21.7256453 27.8182993,22.1877151 28.9190661,21.9387854 C29.9380579,21.7083896 30.9889931,21.5757762 31.9677364,21.3175795 C35.1844261,20.5070167 38.4545969,19.9259974 41.7535723,19.5789062 C43.1817581,18.3272276 45.1536192,19.5149961 46.6881763,18.4103106 C48.0055187,17.4615657 49.7707066,17.6354011 51.3001527,17.2966777 C53.0362721,16.9132173 54.8576802,16.6198701 56.6436311,16.3281207 C58.3110724,16.0558638 59.950723,15.5957113 61.6267889,15.2841498 C64.0972853,14.8246364 66.4502301,13.7535037 69.0072929,13.5640103 C70.0828244,12.2944369 71.7777369,13.390175 73.0618584,12.422257 C74.139626,11.6102796 75.7348753,11.4715948 77.0410376,11.2619698 C80.2289809,10.7506892 83.0463817,9.19671598 86.1477585,8.52182569 C86.8824549,8.36205052 87.6145958,8.1917302 88.4649269,8 C88.5776868,8.73496576 88.6623366,9.28810738 88.7958597,10.1592016 L90.9536309,8.78098101 Z" id="Shape" transform="translate(51.222794, 23.095843) rotate(-171.000000) translate(-51.222794, -23.095843) "></path>
                        </g>
                    </g>
                </g>
            </g>
        </g>
    </g>
</svg>