<?xml version="1.0" encoding="UTF-8"?>
<svg width="94px" height="18px" viewBox="0 0 94 18" version="1.1" xmlns="http://www.w3.org/2000/svg" xmlns:xlink="http://www.w3.org/1999/xlink">
    <title>line3</title>
    <g id="Page-1" stroke="none" stroke-width="1" fill="none" fill-rule="evenodd">
        <g id="Print4Life---Landingpage-Copy-8" transform="translate(-750.000000, -491.000000)" fill="#45B29D" fill-rule="nonzero">
            <g id="Group-25" transform="translate(-11.000000, 88.000000)">
                <g id="Group-13" transform="translate(456.500000, 191.068207)">
                    <g id="Group-28" transform="translate(20.903203, 104.480120)">
                        <g id="line3" transform="translate(281.969971, 66.774477)">
                            <path d="M14,22.2446725 L14,18.2904811 C15.4783789,16.5978992 17.1871785,15.7768595 19.7651249,16.0523728 C20.0052232,16.4868939 20.4480917,17.2899327 20.9706858,18.2369786 C23.8348145,16.323386 24.9256259,20.4750869 27.1772966,19.816055 C30.4082551,22.1406675 32.8184552,25.376824 36.1319042,27.4034221 C36.5954483,27.7781932 37.0108025,28.2184368 37.366959,28.7124855 C40.2472153,31.7959239 43.3782985,34.5907491 46.7220377,37.0628895 C48.9818185,38.8757078 51.1171476,40.8643784 53.1111417,43.0131775 C55.2752147,45.3431916 57.7132217,47.3531405 60.362019,48.9909667 C60.8254344,49.3650751 61.2411885,49.8040728 61.5984563,50.2965299 C63.2408947,52.0416143 64.7229604,54.0347108 66.5801509,55.4467791 C68.075581,56.5853342 69.1811393,58.0969074 70.5060581,59.3694689 C72.7959786,61.5660752 74.6997141,64.2397046 76.7426236,66.7358254 C78.7993584,69.248447 80.9173851,71.7115662 82.825729,74.352694 C83.6216019,75.4527472 83.9441909,76.9588201 84.5036522,78.3333866 L80.4888027,82.1525714 C79.2625039,82.9056078 78.6454374,80.4059869 77.1979348,79.830459 L76.0061992,80.8235071 L70.3572063,79.5564458 C65.5644566,75.3062401 59.9882767,70.7855213 54.7770831,65.7217763 C52.234826,63.2465606 49.4672222,61.0582031 46.5169633,59.1904603 C44.3837289,57.8483953 42.7159441,55.630788 40.782254,53.8677027 C35.6590811,49.1979767 30.5110227,44.4052448 26.1809577,38.911479 C22.1149547,33.7547294 17.1392511,29.3675172 14,22.2446725 Z" id="Shape" transform="translate(49.251826, 49.146363) rotate(-44.000000) translate(-49.251826, -49.146363) "></path>
                        </g>
                    </g>
                </g>
            </g>
        </g>
    </g>
</svg>