<svg width="110" height="17" xmlns="http://www.w3.org/2000/svg"><path d="M65.53 13.668l-.498.718-2.299-2.172c-.116.764-.189 1.256-.31 2.04-1.256.119-2.862.735-3.87.26-1.634-.773-2.229.957-3.537.81-1.186-.135-2.692.696-3.624.275-1.518-.685-2.727.136-4.055.101a36.444 36.444 0 01-3.985-.527l-2.424 1.314-2.065-2.327-.285 2.596c-4.278-1.26-8.63.894-12.857-.109l-.77-1.624-.271 1.931-3.262-.11-.706-2.088-.864.904-1.894-.446-.422 1.791c-1.065-.42-2.132-.844-3.395-1.343-.122-.357-.325-.962-.59-1.745L10.9 15.93c-1.893-1.687-5.085-1.976-6.597-4.464l.725-1.16c-.96-.583-1.283-.295-1.774 1.58a6.237 6.237 0 01-.805.21c-.113.016-.243-.095-.654-.274l.472-2.067L.764 7.562l2.7.324-1.359-2.654 3.728.727-.564 1.02 2.575.622-.563-2.649L9.638 3.14l6.574 1.083c.85-.536 4.477-.858 6.225-.515l.827-1.078 3.017.649-.597.997c.213.09.528.331.66.26 1.495-.806 2.753-2.271 4.815-1.113.382.214 1.399-.546 2.117-.867 3.287-1.471 6.546-1.68 9.772-.17.614-.305 1.255-.79 1.963-.928.834-.162 2.31.267 2.493-.057.951-1.677 1.97-.097 2.904-.284a6.747 6.747 0 012.813-.105c1.776.352 3.734.09 5.603-.082A111.56 111.56 0 0177.635.78c4.852.372 9.74.491 14.51 1.351 3.215.58 6.668 1.016 9.408 2.492 2.477 1.332 5.298 2.377 7.474 4.565-.157.39-.348.861-.569 1.402l.883.626-2.522 3.43c-1.357-.092-2.799-.316-3.916-1.888l.134 2.578-1.192.253-.884-1.303-1.246 1.159-1.428-.611-1.64 2.185c-1.266-.961-2.198-1.865-3.318-2.463-1.087-.58-2.854.58-3.716-1.323l.612-1.48-2.817.458 1.685 1.163c-1.07.174-1.908.547-2.568.37a20.993 20.993 0 00-4.708-.556 28.962 28.962 0 00-4.433.243c-1.322.145-2.675-.053-3.998.083-1.397.144-2.775.673-4.164.716-1.23.038-2.47-.359-3.692-.56z" fill="#45B29D" fill-rule="nonzero"/></svg>