<?xml version="1.0" encoding="UTF-8"?>
<svg width="159px" height="28px" viewBox="0 0 159 28" version="1.1" xmlns="http://www.w3.org/2000/svg" xmlns:xlink="http://www.w3.org/1999/xlink">
    <title>line6</title>
    <g id="Page-1" stroke="none" stroke-width="1" fill="none" fill-rule="evenodd">
        <g id="Print4Life---Landingpage-Copy-8" transform="translate(-657.000000, -548.000000)" fill="#45B29D" fill-rule="nonzero">
            <g id="Group-25" transform="translate(-11.000000, 88.000000)">
                <g id="Group-13" transform="translate(456.500000, 191.068207)">
                    <g id="Group-28" transform="translate(20.903203, 104.480120)">
                        <g id="line6" transform="translate(187.731663, 138.281093)">
                            <path d="M145.498303,19.1537434 L148.868673,19.1537434 L150.757361,21.853522 L152.108964,20.7205497 L155.916827,22.7079719 L156.350763,25.3232496 L158.336502,24.2757223 L160.597134,28.6282242 L159.165756,29.0781086 L159.165756,31.1108497 C156.640392,31.9133718 154.726298,33.9465849 151.867607,33.2512232 C151.699926,35.0531212 149.92709,35.6455713 148.801601,35.8783027 C146.132439,36.4296825 143.893147,38.3840597 141.383027,38.4274903 C138.45269,38.4808345 136.22915,39.97683 133.67838,40.6533088 C130.616948,41.4652723 127.46507,42.3353006 124.430568,43.4220098 C121.46822,44.4827552 118.355467,45.8697021 114.957151,45.7686787 C109.584782,48.6629508 103.343017,48.9943452 97.5560209,50.6404595 C93.0469505,51.9230786 88.5007872,53.5200974 83.641621,53.8505477 C81.9516088,53.9657332 80.3388311,55.5929646 78.5771738,53.1924796 C77.2956913,55.3729792 75.7886028,56.5762902 73.2698444,56.4969821 C71.4554137,56.4957536 69.6543954,56.7857799 67.9462552,57.3542645 C63.4976512,58.7185519 58.8625667,59.1533301 54.314879,60.0224142 C50.1416769,60.8202155 45.84805,61.0944893 41.758688,61.9357212 C36.2445532,63.0686935 30.8254371,62.2770291 25.3829474,62.598982 C24.4241221,62.6561027 23.4398907,61.9319446 22.4317776,61.79646 C21.3403326,61.6472853 19.9170842,62.1509859 19.1640481,61.6656961 C18.1884547,61.0368965 17.466414,61.6052709 16.6706957,61.4589287 C15.4943944,61.2427198 14.338926,60.9292641 12.9390512,60.6025904 C12.4227998,59.7599423 10.6865485,59.422411 10.6911216,57.7602462 C10.6911216,57.3429348 9.83392059,56.5427731 9.41065536,56.5654325 C6.20948974,56.7367946 5.46712419,54.2876862 4.08249303,52.2223721 C3.5459167,48.204097 5.65055606,45.3867726 9.70739833,43.6481322 C10.2357039,43.4016121 10.7975561,43.2227982 11.3775938,43.1165794 C13.6295884,42.7861292 16.0314788,42.8550516 18.110204,42.12098 C20.3967509,41.3142093 22.6248638,41.3774669 24.9190325,41.3231787 C27.1217393,41.2707787 29.7192565,41.8528432 31.422988,40.9629879 C33.3167569,39.9716372 35.6825708,41.5431641 37.042304,39.5689599 C38.535165,41.0323825 40.0087174,38.8429135 41.4975135,39.5481888 C43.0889501,38.2768994 45.0690997,38.9595153 46.8200865,38.5917713 C48.4409942,38.2514076 50.112714,38.0554978 51.6695983,37.6740638 C56.786378,36.476619 61.9882299,35.6182792 67.2359013,35.1055212 C69.5077127,33.256416 72.6443468,35.0111068 75.0853626,33.3791547 C77.1808558,31.9775735 79.9887354,32.2343806 82.4216212,31.7339845 C85.1832617,31.1674983 88.0805707,30.7341364 90.9214781,30.3031349 C93.5738725,29.9009297 96.1820603,29.2211464 98.848174,28.7608764 C102.777986,28.0820371 106.520809,26.4996525 110.588322,26.2197139 C112.299167,24.3441727 114.99526,25.9629069 117.037908,24.5330015 C118.75231,23.333467 121.289869,23.1285879 123.367578,22.8189088 C128.438631,22.0635939 132.920263,19.7679088 137.853615,18.7708932 C139.022294,18.5348573 140.186909,18.2832431 141.539528,18 C141.718895,19.0857651 141.853547,19.9029214 142.065942,21.1897891 L145.498303,19.1537434 Z" id="Shape" transform="translate(82.298567, 40.301092) rotate(-167.000000) translate(-82.298567, -40.301092) "></path>
                        </g>
                    </g>
                </g>
            </g>
        </g>
    </g>
</svg>