<?xml version="1.0" encoding="UTF-8"?>
<svg width="109px" height="18px" viewBox="0 0 109 18" version="1.1" xmlns="http://www.w3.org/2000/svg" xmlns:xlink="http://www.w3.org/1999/xlink">
    <title>line2</title>
    <g id="Page-1" stroke="none" stroke-width="1" fill="none" fill-rule="evenodd">
        <g id="Print4Life---Landingpage-Copy-8" transform="translate(-632.000000, -430.000000)" fill="#45B29D" fill-rule="nonzero">
            <g id="Group-25" transform="translate(-11.000000, 88.000000)">
                <g id="Group-13" transform="translate(456.500000, 191.068207)">
                    <g id="Group-28" transform="translate(20.903203, 104.480120)">
                        <g id="line2" transform="translate(164.233928, 29.698176)">
                            <path d="M65.0809282,32.9185647 C64.8463312,33.1391956 64.6449232,33.3286131 64.4444246,33.5171756 L62.6476657,30.914501 C62.3748785,31.637965 62.2012039,32.1040263 61.920233,32.8463038 C60.6663208,32.7009269 58.9677654,32.9694466 58.0812067,32.2947267 C56.6422539,31.1992688 55.7011378,32.7684844 54.4526813,32.3520223 C53.3201595,31.9740423 51.6743429,32.4730272 50.8505253,31.8680026 C49.5079573,30.882005 48.1540231,31.4340097 46.8623754,31.1235872 C45.5731716,30.7445429 44.3083576,30.2956904 43.0742694,29.7792782 L40.4305061,30.5613206 L38.894259,27.8551719 C38.4559808,29.1836604 38.3114036,29.6215015 38.0758972,30.3351312 C34.1527615,28.2134832 29.4489996,29.4158359 25.5226814,27.5558664 C25.4226594,27.1347009 25.3358221,26.7699759 25.1066808,25.8070675 C24.7588771,26.7622794 24.6115719,27.1676245 24.4397159,27.639672 L21.2726557,26.8533538 C21.1994578,26.22524 21.1248959,25.5915676 21.0162356,24.6645759 L19.9828265,25.3687989 L18.2228939,24.5388676 L17.4377212,26.2034334 C16.4829658,25.5706162 15.5282103,24.9343784 14.3965977,24.1839769 C14.3511332,23.8089899 14.2779353,23.1753176 14.1810958,22.3539379 L11.17498,23.7730733 C9.67464999,21.7296723 6.61215818,20.7825844 5.65012838,18.0345329 L6.60124669,17.0511008 C5.78288486,16.2814582 5.40689306,16.4952478 4.5371563,18.2277987 C4.26143201,18.2589611 3.98370347,18.2716779 3.7060644,18.2658533 C3.59194839,18.2577293 3.48828922,18.1226142 3.12320892,17.8617909 C3.39023735,17.2868394 3.68742394,16.6454706 4.01476867,15.9376845 L3,13.4803869 L5.5732933,14.3586346 C5.31414539,13.3995744 5.12183036,12.6863723 4.79584957,11.4801714 L8.29070922,12.9664367 L7.52781413,13.8459671 L9.91697602,14.9905966 L9.91697602,12.2827376 L12.5993842,11 L18.8043855,13.4260844 C19.7468655,13.07889 23.3617516,13.5171587 25.0002938,14.2166783 L26.0332483,13.3337272 L28.8493223,14.595941 L28.0582392,15.4472512 C28.2478263,15.5789456 28.5056103,15.8808165 28.6492783,15.8384862 C30.2796369,15.3608802 31.8145199,14.1897408 33.5908198,15.7508324 C33.9195284,16.039876 35.0725093,15.5079675 35.8422241,15.3429219 C39.3629985,14.587817 42.5941638,15.060292 45.4352433,17.2093051 C46.0994803,17.0382734 46.8278223,16.69621 47.54889,16.7090374 C48.3977131,16.7244303 49.7521019,17.4504597 49.9989744,17.1716781 C51.2778921,15.7294535 51.9453116,17.4863764 52.8987031,17.4974934 C53.8498389,17.4621609 54.7973556,17.627089 55.6720404,17.9802304 C57.3364975,18.6930049 59.3060216,18.8443679 61.1696133,19.0649988 C67.4204298,19.8004924 73.5888777,21.0597304 79.6013949,22.8276957 C84.2696945,24.2006525 89.0261953,25.3337374 93.513546,27.1667694 C96.5369383,28.4011905 99.8235703,29.5462476 102.197274,31.5592904 C104.343655,33.3773572 106.885578,34.9867653 108.559128,37.5791779 C108.324076,37.9267998 108.039923,38.3488205 107.71076,38.8324125 L108.444103,39.6281374 L105.264313,42.4587117 C103.956298,42.0867178 102.592361,41.5680642 101.826284,39.7974588 C101.665339,40.8121042 101.548041,41.5505335 101.421649,42.3471135 L100.202745,42.3471135 C99.9886066,41.8216187 99.8008381,41.3598332 99.6089777,40.8882133 L98.1491111,41.7630404 L96.879741,40.8685447 L94.8211063,42.6643773 C93.7831508,41.461597 93.0593552,40.3840974 92.0882325,39.5661384 C91.1457524,38.7721239 89.175319,39.5396285 88.7279479,37.4992206 C88.9007132,37.2473765 89.1875945,36.829204 89.6345109,36.1788561 L86.7838839,36.0411756 L88.1901023,37.5287236 C87.1075915,37.4765589 86.2096667,37.6672592 85.6008964,37.3576919 C84.1741213,36.6843104 82.6673195,36.1727601 81.1121818,35.8337997 C79.6718925,35.494209 78.2046072,35.2654117 76.7248531,35.1496729 C75.4022895,35.0171234 74.1197346,34.5425105 72.7976256,34.4005542 C71.4005001,34.2500463 69.9424521,34.4817942 68.5753332,34.2346535 C67.3637031,34.0157329 66.2334545,33.3700883 65.0809282,32.9185647 Z" id="Shape" transform="translate(55.779564, 26.832189) rotate(-12.000000) translate(-55.779564, -26.832189) "></path>
                        </g>
                    </g>
                </g>
            </g>
        </g>
    </g>
</svg>