<?xml version="1.0" encoding="UTF-8"?>
<svg width="209px" height="239px" viewBox="0 0 209 239" version="1.1" xmlns="http://www.w3.org/2000/svg" xmlns:xlink="http://www.w3.org/1999/xlink">
    <title>print4life-logo-4c</title>
    <g id="Page-1" stroke="none" stroke-width="1" fill="none" fill-rule="evenodd">
        <g id="Print4Life---Landingpage-Copy-8" transform="translate(-857.000000, -794.000000)" fill-rule="nonzero">
            <g id="print4life-logo-4c" transform="translate(857.000000, 794.000000)">
                <g id="Group">
                    <g transform="translate(1.274390, 0.000000)" fill="#DE5C47" id="Shape">
                        <path d="M192.980412,97.593897 L192.980412,93.5274846 L117.09718,93.5274846 L110.041921,118.707961 L87.9354421,28.7776876 L71.4731707,93.6838851 L13.9336128,93.6838851 L13.9336128,97.7502975 L0.136661585,97.7502975 L0.136661585,105.570321 L31.3365854,105.570321 L31.3365854,105.883122 C31.3365854,115.267151 36.196875,124.025577 44.1928354,128.873992 L90.6007622,157.182478 C91.698247,157.964481 93.1092988,158.277282 94.5203506,158.277282 L103.457012,158.277282 L112.393674,158.277282 C113.804726,158.277282 115.058994,157.964481 116.313262,157.182478 L162.721189,128.873992 C170.717149,124.025577 175.577439,115.267151 175.577439,105.883122 L175.577439,105.570321 L206.463796,105.570321 L206.463796,97.7502975 L192.980412,97.593897 L192.980412,97.593897 Z"></path>
                    </g>
                    <path d="M194.254802,89.6174727 L194.254802,81.6410484 L176.851829,81.6410484 L176.851829,53.4889628 L176.851829,53.1761618 C176.851829,43.7921333 171.99154,35.0337066 163.995579,30.1852919 L117.587652,1.87680571 C116.490168,1.09480333 115.079116,0.78200238 113.668064,0.78200238 L104.731402,0.78200238 L95.7947409,0.78200238 C94.383689,0.78200238 93.1294207,1.09480333 91.8751524,1.87680571 L45.4672256,30.1852919 C37.4712652,35.0337066 32.6109756,43.7921333 32.6109756,53.1761618 L32.6109756,53.4889628 L32.6109756,81.6410484 L15.208003,81.6410484 L15.208003,89.6174727 L15.208003,89.6174727 L15.208003,93.6838851 L72.747561,93.6838851 L89.2098323,28.7776876 L111.316311,118.864362 L118.37157,93.6838851 L194.254802,93.6838851 L194.254802,89.6174727 L194.254802,89.6174727 Z" id="Shape" fill="#40B39F"></path>
                    <path d="M111.316311,122.930774 L111.316311,122.930774 C109.434909,122.930774 107.867073,121.67957 107.396723,119.802765 L89.2098323,45.5125385 L76.8239329,94.6222879 C76.3535823,96.4990936 74.785747,97.7502975 72.9043445,97.7502975 L1.25426829,97.7502975 L1.25426829,89.6174727 L69.6118902,89.6174727 L85.2902439,27.8392847 C85.7605945,25.962479 87.3284299,24.7112752 89.2098323,24.7112752 L89.2098323,24.7112752 C91.0912348,24.7112752 92.6590701,25.962479 93.1294207,27.8392847 L111.473095,102.911513 L114.295198,92.7454822 C114.765549,91.025077 116.333384,89.7738732 118.214787,89.7738732 L207.581402,89.7738732 L207.581402,97.9066979 L121.507241,97.9066979 L115.235899,120.115566 C114.765549,121.67957 113.197713,122.930774 111.316311,122.930774 Z" id="Shape" fill="#FFFFFF"></path>
                </g>
                <g id="Group" transform="translate(0.000000, 179.860547)" fill="#5286A4">
                    <path d="M4.07637195,57.3989747 C2.66532012,57.3989747 1.88140244,56.9297732 1.88140244,56.1477709 L1.88140244,23.4600714 C1.88140244,21.8960666 1.88140244,20.4884623 1.7246189,19.5500595 C1.56783537,18.4552562 1.56783537,17.6732538 1.41105183,17.0476519 C1.25426829,16.42205 1.25426829,16.109249 1.25426829,15.9528485 C1.25426829,15.6400476 1.41105183,15.4836471 1.7246189,15.3272466 C2.03818598,15.1708462 2.35175305,15.0144457 2.82210366,15.0144457 C3.13567073,14.8580452 3.60602134,14.8580452 3.91958841,14.8580452 L4.7035061,14.8580452 C5.48742378,14.8580452 5.95777439,15.3272466 6.11455793,16.109249 C6.27134146,16.8912514 6.428125,17.8296543 6.58490854,18.9244576 C7.52560976,17.5168533 8.46631098,16.2656495 9.72057927,15.6400476 C10.9748476,14.8580452 12.2291159,14.5452443 13.4833841,14.5452443 C15.3647866,14.5452443 17.0894055,15.1708462 18.5004573,16.5784504 C19.9115091,17.9860547 21.0089939,19.8628604 21.636128,22.2088676 C22.4200457,24.5548747 22.7336128,27.3700833 22.7336128,30.3416923 C22.7336128,35.3465076 21.7929116,39.100119 20.0682927,41.7589271 C18.3436738,44.4177352 15.9919207,45.8253394 13.0130335,45.8253394 C11.6019817,45.8253394 10.3477134,45.5125385 9.4070122,45.0433371 C8.46631098,44.4177352 7.68239329,43.7921333 6.89847561,42.8537304 L6.89847561,56.3041713 C6.89847561,57.0861737 6.11455793,57.5553751 4.7035061,57.5553751 L4.07637195,57.5553751 L4.07637195,57.3989747 Z M11.9155488,41.2897256 C13.7969512,41.2897256 15.208003,40.3513228 16.1487043,38.4745171 C17.0894055,36.5977114 17.5597561,33.7825028 17.5597561,30.1852919 C17.5597561,26.5880809 17.0894055,23.7728723 16.3054878,21.7396662 C15.3647866,19.70646 14.1105183,18.6116566 12.3858994,18.6116566 C11.4451982,18.6116566 10.504497,18.9244576 9.56379573,19.70646 C8.62309451,20.3320619 7.83917683,21.4268652 7.05525915,22.678069 L7.05525915,38.6309176 C7.68239329,39.5693204 8.46631098,40.1949223 9.25022866,40.6641237 C10.0341463,40.9769247 10.9748476,41.2897256 11.9155488,41.2897256 Z" id="Shape"></path>
                    <path d="M32.7677591,45.356138 C31.1999238,45.356138 30.4160061,44.8869366 30.4160061,44.1049342 L30.4160061,23.4600714 C30.4160061,21.8960666 30.4160061,20.4884623 30.2592226,19.5500595 C30.102439,18.4552562 30.102439,17.6732538 29.9456555,17.2040524 C29.788872,16.7348509 29.788872,16.2656495 29.788872,16.2656495 C29.788872,15.9528485 29.9456555,15.7964481 30.102439,15.6400476 C30.4160061,15.4836471 30.7295732,15.3272466 31.0431402,15.1708462 C31.3567073,15.0144457 31.6702744,15.0144457 32.140625,15.0144457 L32.9245427,15.0144457 C33.3948933,15.0144457 33.7084604,15.1708462 34.0220274,15.6400476 C34.3355945,16.109249 34.492378,16.5784504 34.6491616,17.2040524 C34.8059451,17.8296543 34.9627287,18.4552562 34.9627287,18.9244576 C35.9034299,17.5168533 36.8441311,16.42205 37.9416159,15.6400476 C39.0391006,14.8580452 40.1365854,14.5452443 41.2340701,14.5452443 C41.8612043,14.5452443 42.4883384,14.7016447 42.958689,14.8580452 C43.4290396,15.0144457 43.7426067,15.3272466 44.0561738,15.6400476 C44.2129573,15.9528485 44.3697409,16.42205 44.3697409,16.7348509 C44.3697409,17.0476519 44.3697409,17.5168533 44.2129573,17.9860547 C44.0561738,18.4552562 44.0561738,18.9244576 43.7426067,19.2372585 C43.5858232,19.5500595 43.4290396,19.8628604 43.1154726,19.8628604 C42.8019055,19.8628604 42.4883384,19.70646 42.0179878,19.5500595 C41.5476372,19.393659 41.0772866,19.2372585 40.1365854,19.2372585 C39.3526677,19.2372585 38.56875,19.393659 37.9416159,19.8628604 C37.3144817,20.3320619 36.6873476,20.8012633 36.216997,21.4268652 C35.7466463,22.0524671 35.4330793,22.3652681 35.2762957,22.678069 L35.2762957,44.1049342 C35.2762957,44.8869366 34.492378,45.356138 32.9245427,45.356138 L32.7677591,45.356138 L32.7677591,45.356138 Z" id="Shape"></path>
                    <path d="M50.3275152,9.69682951 C49.386814,9.69682951 48.7596799,9.54042903 48.2893293,9.38402856 C47.8189787,9.22762808 47.6621951,8.91482713 47.6621951,8.4456257 L47.6621951,5.47401666 C47.6621951,5.16121571 47.8189787,4.84841475 48.2893293,4.5356138 C48.7596799,4.37921333 49.386814,4.22281285 50.3275152,4.22281285 C51.2682165,4.22281285 51.8953506,4.37921333 52.3657012,4.5356138 C52.8360518,4.69201428 52.9928354,5.00481523 52.9928354,5.47401666 L52.9928354,8.4456257 C52.9928354,8.75842665 52.8360518,9.0712276 52.3657012,9.38402856 C51.8953506,9.54042903 51.2682165,9.69682951 50.3275152,9.69682951 Z M50.1707317,45.356138 C48.6028963,45.356138 47.8189787,44.8869366 47.8189787,44.1049342 L47.8189787,15.7964481 C47.8189787,15.0144457 48.6028963,14.5452443 50.1707317,14.5452443 L50.3275152,14.5452443 C51.8953506,14.5452443 52.6792683,15.0144457 52.6792683,15.7964481 L52.6792683,44.1049342 C52.6792683,44.8869366 51.8953506,45.356138 50.3275152,45.356138 L50.1707317,45.356138 Z" id="Shape"></path>
                    <path d="M64.4380335,45.356138 C63.0269817,45.356138 62.243064,44.8869366 62.243064,44.1049342 L62.243064,23.4600714 C62.243064,21.8960666 62.243064,20.4884623 62.0862805,19.5500595 C61.929497,18.4552562 61.929497,17.6732538 61.7727134,17.2040524 C61.6159299,16.7348509 61.6159299,16.2656495 61.6159299,16.2656495 C61.6159299,15.9528485 61.7727134,15.7964481 62.0862805,15.6400476 C62.3998476,15.4836471 62.7134146,15.3272466 63.1837652,15.1708462 C63.4973323,15.0144457 63.9676829,15.0144457 64.28125,15.0144457 L65.0651677,15.0144457 C65.8490854,15.0144457 66.319436,15.4836471 66.4762195,16.2656495 C66.633003,17.0476519 66.7897866,17.9860547 66.9465701,18.9244576 C67.7304878,17.5168533 68.8279726,16.42205 70.2390244,15.6400476 C71.6500762,14.8580452 72.9043445,14.5452443 74.4721799,14.5452443 C76.8239329,14.5452443 78.7053354,15.3272466 80.1163872,17.0476519 C81.3706555,18.6116566 82.1545732,20.9576638 82.1545732,23.7728723 L82.1545732,44.4177352 C82.1545732,44.7305361 81.9977896,45.0433371 81.6842226,45.356138 C81.3706555,45.668939 80.7435213,45.668939 79.9596037,45.668939 L79.3324695,45.668939 C78.5485518,45.668939 77.9214177,45.5125385 77.6078506,45.356138 C77.2942835,45.1997375 76.9807165,44.8869366 76.9807165,44.4177352 L76.9807165,24.2420738 C76.9807165,22.5216685 76.6671494,21.2704647 75.8832317,20.3320619 C75.2560976,19.393659 74.1586128,18.9244576 72.747561,18.9244576 C71.6500762,18.9244576 70.5525915,19.2372585 69.6118902,20.0192609 C68.671189,20.8012633 67.8872713,21.7396662 67.2601372,22.99087 L67.2601372,44.4177352 C67.2601372,45.1997375 66.4762195,45.668939 65.0651677,45.668939 L64.4380335,45.668939 L64.4380335,45.356138 Z" id="Shape"></path>
                    <path d="M98.6168445,45.5125385 C97.6761433,45.5125385 96.7354421,45.356138 95.7947409,45.0433371 C94.8540396,44.7305361 93.9133384,43.9485337 93.1294207,43.0101309 C92.345503,42.071728 92.031936,40.5077233 92.031936,38.4745171 L92.031936,18.7680571 L90.1505335,18.7680571 C89.3666159,18.7680571 89.0530488,18.1424552 89.0530488,17.0476519 L89.0530488,16.42205 C89.0530488,15.3272466 89.3666159,14.7016447 90.1505335,14.7016447 L92.031936,14.7016447 L92.6590701,8.60202618 C92.6590701,7.8200238 93.2862043,7.35082237 94.5404726,7.35082237 L95.1676067,7.35082237 C96.2650915,7.35082237 96.8922256,7.8200238 96.8922256,8.60202618 L96.8922256,14.7016447 L100.811814,14.7016447 C101.595732,14.7016447 101.909299,15.3272466 101.909299,16.42205 L101.909299,17.0476519 C101.909299,18.1424552 101.595732,18.7680571 100.811814,18.7680571 L96.8922256,18.7680571 L96.8922256,37.5361142 C96.8922256,39.100119 97.0490091,40.0385218 97.5193598,40.5077233 C97.9897104,40.9769247 98.460061,41.1333252 99.0871951,41.1333252 C99.7143293,41.1333252 100.18468,41.1333252 100.341463,40.9769247 C100.65503,40.8205242 100.811814,40.8205242 100.968598,40.8205242 C101.282165,40.8205242 101.438948,40.9769247 101.595732,41.4461261 C101.752515,41.9153275 101.909299,42.2281285 102.066082,42.6973299 C102.222866,43.1665314 102.222866,43.4793323 102.222866,43.6357328 C102.222866,44.1049342 102.066082,44.5741356 101.595732,44.7305361 C101.125381,44.8869366 100.65503,45.0433371 100.027896,45.1997375 C99.5575457,45.5125385 99.0871951,45.5125385 98.6168445,45.5125385 Z" id="Shape"></path>
                    <path d="M124.642912,45.356138 C123.545427,45.356138 122.918293,44.8869366 122.918293,44.1049342 L122.918293,35.502908 L108.494207,35.502908 C108.337424,35.502908 108.023857,35.3465076 107.867073,35.0337066 C107.71029,34.7209057 107.396723,34.2517042 107.239939,33.7825028 C107.083155,33.3133014 107.083155,32.8440999 107.083155,32.531299 L107.083155,32.218498 C107.083155,32.0620976 107.083155,32.0620976 107.239939,31.9056971 L122.918293,5.00481523 C123.075076,4.69201428 123.388643,4.5356138 123.70221,4.37921333 C124.015777,4.22281285 124.486128,4.22281285 124.799695,4.22281285 L125.89718,4.22281285 C126.994665,4.22281285 127.621799,4.69201428 127.621799,5.47401666 L127.621799,31.2800952 L130.914253,31.2800952 C131.698171,31.2800952 132.011738,31.9056971 132.011738,33.0005004 L132.011738,33.6261023 C132.011738,34.7209057 131.698171,35.3465076 130.914253,35.3465076 L127.621799,35.3465076 L127.621799,43.9485337 C127.621799,44.7305361 126.994665,45.1997375 125.89718,45.1997375 L124.642912,45.1997375 L124.642912,45.356138 Z M112.257012,31.2800952 L122.918293,31.2800952 L122.918293,19.5500595 C122.918293,17.8296543 122.918293,16.42205 123.075076,15.3272466 C123.23186,14.2324433 123.23186,13.2940405 123.388643,12.3556376 L123.23186,12.1992371 L112.257012,31.2800952 Z" id="Shape"></path>
                    <path d="M146.74939,45.5125385 C145.965473,45.5125385 145.024771,45.356138 144.08407,45.0433371 C143.143369,44.7305361 142.202668,43.9485337 141.575534,43.0101309 C140.948399,42.071728 140.478049,40.5077233 140.478049,38.4745171 L140.478049,2.50240761 C140.478049,1.72040524 141.261966,1.25120381 142.829802,1.25120381 L142.986585,1.25120381 C144.554421,1.25120381 145.338338,1.72040524 145.338338,2.50240761 L145.338338,38.0053156 C145.338338,39.4129199 145.495122,40.1949223 145.965473,40.6641237 C146.435823,41.1333252 146.906174,41.2897256 147.533308,41.2897256 C148.003659,41.2897256 148.474009,41.2897256 148.787576,41.1333252 C149.101143,40.9769247 149.257927,40.9769247 149.41471,40.9769247 C149.728277,40.9769247 149.885061,41.1333252 150.041845,41.6025266 C150.198628,41.9153275 150.355412,42.384529 150.512195,42.8537304 C150.668979,43.3229318 150.668979,43.6357328 150.668979,43.7921333 C150.668979,44.2613347 150.512195,44.5741356 150.041845,44.8869366 C149.571494,45.1997375 149.101143,45.356138 148.474009,45.5125385 C147.846875,45.5125385 147.219741,45.5125385 146.74939,45.5125385 Z" id="Shape"></path>
                    <path d="M158.664939,9.69682951 C157.724238,9.69682951 157.097104,9.54042903 156.626753,9.38402856 C156.156402,9.22762808 155.999619,8.91482713 155.999619,8.4456257 L155.999619,5.47401666 C155.999619,5.16121571 156.156402,4.84841475 156.626753,4.5356138 C157.097104,4.22281285 157.724238,4.22281285 158.664939,4.22281285 C159.60564,4.22281285 160.232774,4.37921333 160.703125,4.5356138 C161.173476,4.69201428 161.330259,5.00481523 161.330259,5.47401666 L161.330259,8.4456257 C161.330259,8.75842665 161.173476,9.0712276 160.703125,9.38402856 C160.389558,9.54042903 159.60564,9.69682951 158.664939,9.69682951 Z M158.508155,45.356138 C156.94032,45.356138 156.156402,44.8869366 156.156402,44.1049342 L156.156402,15.7964481 C156.156402,15.0144457 156.94032,14.5452443 158.508155,14.5452443 L158.664939,14.5452443 C160.232774,14.5452443 161.016692,15.0144457 161.016692,15.7964481 L161.016692,44.1049342 C161.016692,44.8869366 160.232774,45.356138 158.664939,45.356138 L158.508155,45.356138 Z" id="Shape"></path>
                    <path d="M173.872942,45.356138 C172.305107,45.356138 171.521189,44.8869366 171.521189,44.1049342 L171.521189,18.9244576 L169.79657,18.9244576 C169.012652,18.9244576 168.699085,18.2988557 168.699085,17.2040524 L168.699085,16.5784504 C168.699085,15.4836471 169.012652,14.8580452 169.79657,14.8580452 L171.521189,14.8580452 L171.521189,8.60202618 C171.521189,6.41241951 171.834756,4.84841475 172.618674,3.75361142 C173.402591,2.65880809 174.343293,2.03320619 175.283994,1.72040524 C176.381479,1.40760428 177.32218,1.25120381 178.106098,1.25120381 C178.733232,1.25120381 179.360366,1.25120381 179.9875,1.40760428 C180.614634,1.56400476 181.084985,1.72040524 181.555335,2.03320619 C182.025686,2.34600714 182.18247,2.65880809 182.18247,3.12800952 C182.18247,3.28440999 182.18247,3.59721095 182.025686,4.06641237 C181.868902,4.5356138 181.712119,5.00481523 181.555335,5.31761618 C181.398552,5.63041713 181.084985,5.94321809 180.771418,5.94321809 C180.614634,5.94321809 180.301067,5.94321809 179.9875,5.78681761 C179.673933,5.63041713 179.203582,5.63041713 178.576448,5.63041713 C177.949314,5.63041713 177.32218,5.78681761 176.851829,6.25601904 C176.381479,6.72522046 176.067912,7.66362332 176.067912,9.38402856 L176.067912,15.1708462 L179.9875,15.1708462 C180.771418,15.1708462 181.084985,15.7964481 181.084985,16.8912514 L181.084985,17.5168533 C181.084985,18.6116566 180.771418,19.2372585 179.9875,19.2372585 L176.067912,19.2372585 L176.067912,44.4177352 C176.067912,45.1997375 175.283994,45.668939 173.716159,45.668939 L173.872942,45.668939 L173.872942,45.356138 Z" id="Shape"></path>
                    <path d="M198.331174,45.5125385 C194.254802,45.5125385 191.119131,44.2613347 189.080945,41.7589271 C187.042759,39.2565195 186.102058,35.3465076 186.102058,30.1852919 C186.102058,26.7444814 186.572409,23.9292728 187.356326,21.4268652 C188.140244,19.0808581 189.551296,17.3604528 191.275915,16.109249 C193.000534,14.8580452 195.195503,14.2324433 197.70404,14.2324433 C201.153277,14.2324433 203.661814,15.4836471 205.386433,18.1424552 C207.111052,20.8012633 207.89497,24.5548747 207.89497,29.5596899 C207.89497,29.7160904 207.738186,30.0288914 207.581402,30.4980928 C207.424619,30.8108938 207.111052,31.2800952 206.797485,31.5928961 C206.483918,31.9056971 206.170351,32.0620976 206.013567,32.0620976 L191.432698,32.0620976 C191.589482,35.3465076 192.216616,37.6925147 193.314101,39.2565195 C194.411585,40.8205242 195.979421,41.6025266 198.331174,41.6025266 C199.742226,41.6025266 200.996494,41.4461261 201.937195,40.9769247 C202.877896,40.5077233 203.661814,40.1949223 204.132165,39.7257209 C204.602515,39.2565195 204.916082,39.100119 205.229649,39.100119 C205.543216,39.100119 205.856784,39.2565195 206.170351,39.7257209 C206.483918,40.1949223 206.797485,40.5077233 206.954268,40.9769247 C207.267835,41.4461261 207.267835,41.7589271 207.267835,42.071728 C207.267835,42.384529 207.111052,42.8537304 206.640701,43.1665314 C206.170351,43.6357328 205.543216,43.9485337 204.759299,44.4177352 C203.975381,44.8869366 203.03468,45.1997375 201.937195,45.356138 C200.83971,45.5125385 199.585442,45.5125385 198.331174,45.5125385 Z M191.432698,27.6828842 L202.721113,27.6828842 C202.721113,24.5548747 202.250762,22.3652681 201.466845,20.8012633 C200.526143,19.2372585 199.271875,18.4552562 197.547256,18.4552562 C195.665854,18.4552562 194.098018,19.2372585 193.157317,20.8012633 C192.059832,22.3652681 191.589482,24.7112752 191.432698,27.6828842 Z" id="Shape"></path>
                </g>
            </g>
        </g>
    </g>
</svg>