<?xml version="1.0" encoding="UTF-8"?>
<svg width="97px" height="112px" viewBox="0 0 97 112" version="1.1" xmlns="http://www.w3.org/2000/svg" xmlns:xlink="http://www.w3.org/1999/xlink">
    <title>Page 1</title>
    <defs>
        <polygon id="path-1" points="7.96724324e-20 0.321778947 7.96724324e-20 20.6313579 10.0868977 20.6313579 10.0868977 0.321778947 0 0.321778947"></polygon>
    </defs>
    <g id="Page-1" stroke="none" stroke-width="1" fill="none" fill-rule="evenodd">
        <g id="Print4Life---Landingpage-Copy-8" transform="translate(-388.000000, -32.000000)">
            <g id="Page-1" transform="translate(388.000000, 32.000000)">
                <path d="M96.6577076,45.6838421 L96.6577076,45.7582632 L56.3145258,45.7582632 L53.3751318,56.2214211 C53.1546773,56.9582632 52.4198288,57.5477368 51.5380106,57.5477368 C50.6561924,57.5477368 49.9213439,56.9582632 49.7008894,56.0740526 L41.176647,21.0740526 L35.3713439,44.2101579 C35.1508894,45.0943684 34.4160409,45.6838421 33.5342227,45.6838421 L6.49179848,45.6838421 L0.0251318182,45.6838421 L0.0251318182,49.3680526 L14.6486167,49.3680526 L14.6486167,49.5154211 C14.6486167,53.9364737 16.926647,58.0635263 20.6743742,60.347 L42.4258894,73.6838421 C42.9402833,74.0522632 43.601647,74.1996316 44.2630106,74.1996316 L48.451647,74.1996316 L52.6402833,74.1996316 C53.301647,74.1996316 53.8895258,74.0522632 54.4774045,73.6838421 L76.2289197,60.347 C79.976647,58.0635263 82.2546773,53.9364737 82.2546773,49.5154211 L82.2546773,49.3680526 L96.7311924,49.3680526 L96.7311924,45.6838421 L96.6577076,45.6838421 Z" id="Fill-1" fill="#FFFFFF"></path>
                <path d="M39.3395258,12.7475895 C39.5599803,11.8633789 40.2948288,11.2739053 41.176647,11.2739053 C42.0584652,11.2739053 42.7933136,11.8633789 43.0137682,12.7475895 L51.6114955,48.1160105 L52.9342227,43.3265368 C53.1546773,42.5152737 53.8895258,41.9265368 54.7713439,41.9265368 L90.4114955,41.9265368 L90.4114955,41.8528526 L90.4114955,38.0942211 L82.2546773,38.0942211 L82.2546773,24.8310632 L82.2546773,24.6844316 C82.2546773,20.2633789 79.976647,16.1370632 76.2289197,13.8528526 L54.4774045,0.515273684 C53.9630106,0.146852632 53.301647,0.000221052632 52.6402833,0.000221052632 L48.451647,0.000221052632 L44.2630106,0.000221052632 C43.601647,0.000221052632 43.0137682,0.146852632 42.4258894,0.515273684 L20.6743742,13.8528526 C16.926647,16.1370632 14.6486167,20.2633789 14.6486167,24.6844316 L14.6486167,24.8310632 L14.6486167,38.0942211 L6.49179848,38.0942211 L6.49179848,41.8528526 L31.9910409,41.8528526 L39.3395258,12.7475895 Z" id="Fill-3" fill="#FFFFFF"></path>
                <g id="Group-7" transform="translate(0.000000, 90.737684)">
                    <mask id="mask-2" fill="white">
                        <use xlink:href="#path-1"></use>
                    </mask>
                    <g id="Clip-6"></g>
                    <path d="M4.97455682,13.0256737 C5.87254167,13.0256737 6.54125379,12.5806211 6.98069318,11.6890421 C7.42086742,10.7982 7.64058712,9.49841053 7.64058712,7.78967368 C7.64058712,6.08093684 7.4340947,4.74430526 7.02257955,3.77977895 C6.61032955,2.81598947 6.0004053,2.33262105 5.19427652,2.33262105 C4.73646591,2.33262105 4.28747348,2.49841053 3.84803409,2.82925263 C3.40785985,3.15935789 3.00442803,3.62798947 2.63847348,4.23441053 L2.63847348,11.7848316 C2.95004924,12.2085158 3.30277652,12.5202 3.6966553,12.7220947 C4.09053409,12.9247263 4.51601136,13.0256737 4.97455682,13.0256737 L4.97455682,13.0256737 Z M1.31942045,20.6313579 C0.622784091,20.6313579 0.274465909,20.4294632 0.274465909,20.0249368 L0.274465909,4.62051579 C0.274465909,3.86672632 0.251685606,3.24262105 0.206125,2.74672632 C0.160564394,2.25009474 0.114268939,1.86914737 0.0687083333,1.60241053 C0.0231477273,1.33714737 -0.000367424242,1.17577895 -0.000367424242,1.12051579 C-0.000367424242,0.992305263 0.0687083333,0.890621053 0.206125,0.817673684 C0.343541667,0.743989474 0.503738636,0.684305263 0.687450758,0.637884211 C0.87042803,0.592936842 1.04899621,0.560515789 1.2231553,0.542094737 C1.39731439,0.523673684 1.52076894,0.514831579 1.59425379,0.514831579 C1.94183712,0.514831579 2.15788258,0.707147368 2.24018561,1.09325263 C2.32248864,1.47862105 2.40038258,1.91041053 2.47386742,2.38788421 C2.89493561,1.69009474 3.38948864,1.17135789 3.95752652,0.830936842 C4.52556439,0.491252632 5.12079167,0.321778947 5.74394318,0.321778947 C6.64192803,0.321778947 7.41572348,0.637884211 8.06679924,1.27230526 C8.7164053,1.90598947 9.21610227,2.78356842 9.56442045,3.90356842 C9.91200379,5.02504211 10.0868977,6.31083158 10.0868977,7.76167368 C10.0868977,10.0952526 9.6650947,11.8960947 8.82222348,13.1634632 C7.97935227,14.4308316 6.88001894,15.0652526 5.52422348,15.0652526 C4.84595833,15.0652526 4.28747348,14.9311474 3.84803409,14.6651474 C3.40785985,14.3991474 3.00442803,14.0638842 2.63847348,13.6593579 L2.63847348,20.0249368 C2.63847348,20.4294632 2.2901553,20.6313579 1.59425379,20.6313579 L1.31942045,20.6313579 Z" id="Fill-5" fill="#FFFFFF" mask="url(#mask-2)"></path>
                </g>
                <path d="M14.7310667,105.692558 C13.9976879,105.692558 13.6317333,105.490663 13.6317333,105.086137 L13.6317333,95.3583474 C13.6317333,94.6045579 13.6045439,93.9797158 13.5494303,93.4845579 C13.4943167,92.9879263 13.439203,92.6114 13.3840894,92.3542421 C13.3297106,92.0970842 13.3017864,91.9408737 13.3017864,91.8856105 C13.3017864,91.7574 13.3613091,91.6512947 13.4803545,91.5687684 C13.5994,91.4862421 13.7419606,91.4221368 13.9065667,91.3757158 C14.0719076,91.3307684 14.2365136,91.2983474 14.4011197,91.2791895 C14.5664606,91.2615053 14.6943242,91.2519263 14.7861803,91.2519263 C15.0059,91.2519263 15.1749152,91.3580316 15.2946955,91.5687684 C15.4137409,91.7802421 15.5048621,92.0329789 15.5695288,92.3262421 C15.6334606,92.6209789 15.6929833,92.8869789 15.748097,93.1257158 C16.1691652,92.4647684 16.6225667,91.9541368 17.1083015,91.5960316 C17.5940364,91.2386632 18.1018167,91.0596105 18.633847,91.0596105 C18.9446879,91.0596105 19.210703,91.1052947 19.4311576,91.1966632 C19.6508773,91.2887684 19.8110742,91.4169789 19.9117485,91.5827684 C20.0124227,91.7478211 20.0631273,91.9320316 20.0631273,92.1339263 C20.0631273,92.3181368 20.0396121,92.5244526 19.9940515,92.7536105 C19.9484909,92.9835053 19.8845591,93.1854 19.8015212,93.3600316 C19.7192182,93.5346632 19.622953,93.6216105 19.5134606,93.6216105 C19.3481197,93.6216105 19.1835136,93.5715053 19.0181727,93.4705579 C18.8535667,93.3696105 18.5691803,93.3187684 18.1664833,93.3187684 C17.7997939,93.3187684 17.4610288,93.4285579 17.1501879,93.6496105 C16.8378773,93.8699263 16.572597,94.1138211 16.3528773,94.3790842 C16.1331576,94.6465579 15.9957409,94.8528737 15.9406273,94.9995053 L15.9406273,105.086137 C15.9406273,105.490663 15.573203,105.692558 14.8412939,105.692558 L14.7310667,105.692558 Z" id="Fill-8" fill="#FFFFFF"></path>
                <path d="M22.9205856,105.692558 C22.1872068,105.692558 21.8212523,105.490663 21.8212523,105.086137 L21.8212523,91.7750842 C21.8212523,91.3712947 22.1872068,91.1694 22.9205856,91.1694 L23.0308129,91.1694 C23.7634568,91.1694 24.1301462,91.3712947 24.1301462,91.7750842 L24.1301462,105.086137 C24.1301462,105.490663 23.7634568,105.692558 23.0308129,105.692558 L22.9205856,105.692558 Z M22.9756992,88.9095053 C22.5538962,88.9095053 22.2474644,88.8586632 22.0549341,88.7584526 C21.8624038,88.6575053 21.7661386,88.5057158 21.7661386,88.3030842 L21.7661386,86.8979263 C21.7661386,86.7144526 21.8624038,86.5670842 22.0549341,86.4572947 C22.2474644,86.3467684 22.5722674,86.2915053 23.0308129,86.2915053 C23.4518811,86.2915053 23.7590477,86.3467684 23.951578,86.4572947 C24.1441083,86.5670842 24.2396386,86.7144526 24.2396386,86.8979263 L24.2396386,88.3030842 C24.2396386,88.4865579 24.1441083,88.6339263 23.951578,88.7444526 C23.7590477,88.8542421 23.4335098,88.9095053 22.9756992,88.9095053 L22.9756992,88.9095053 Z" id="Fill-10" fill="#FFFFFF"></path>
                <path d="M29.5991826,105.692558 C28.9216523,105.692558 28.5821523,105.490663 28.5821523,105.086137 L28.5821523,95.3583474 C28.5821523,94.6045579 28.559372,93.9797158 28.5138114,93.4845579 C28.4675159,92.9879263 28.4219553,92.6114 28.3763947,92.3542421 C28.3300992,92.0970842 28.3073189,91.9408737 28.3073189,91.8856105 C28.3073189,91.7574 28.3763947,91.6512947 28.5138114,91.5687684 C28.651228,91.4862421 28.811425,91.4221368 28.9944023,91.3757158 C29.1773795,91.3307684 29.3559477,91.2983474 29.5308417,91.2791895 C29.7050008,91.2615053 29.8284553,91.2519263 29.9019402,91.2519263 C30.2495235,91.2519263 30.4648341,91.4545579 30.547872,91.8583474 C30.630175,92.2621368 30.7073341,92.6850842 30.7808189,93.1257158 C31.1842508,92.4824526 31.6883568,91.9784526 32.2931371,91.6107684 C32.8971826,91.2430842 33.5475235,91.0596105 34.2441598,91.0596105 C35.3802356,91.0596105 36.2591144,91.4405579 36.8822659,92.2024526 C37.5054174,92.9658211 37.8169932,94.0172947 37.8169932,95.3583474 L37.8169932,105.086137 C37.8169932,105.270347 37.7346902,105.416979 37.5693492,105.526768 C37.4047432,105.637295 37.138728,105.692558 36.7727735,105.692558 L36.4979402,105.692558 C36.1312508,105.692558 35.8608265,105.637295 35.6866674,105.526768 C35.5125083,105.416979 35.4257962,105.270347 35.4257962,105.086137 L35.4257962,95.5779263 C35.4257962,94.7887684 35.2648644,94.1727684 34.9444705,93.7321368 C34.6240765,93.2915053 34.1339326,93.0704526 33.4740386,93.0704526 C32.9611144,93.0704526 32.4805235,93.2495053 32.0315311,93.6083474 C31.5825386,93.9664526 31.2209932,94.4306632 30.9461598,94.9995053 L30.9461598,105.086137 C30.9461598,105.490663 30.5978417,105.692558 29.9019402,105.692558 L29.5991826,105.692558 Z" id="Fill-12" fill="#FFFFFF"></path>
                <path d="M45.6219659,105.802642 C45.2001629,105.802642 44.7511705,105.720116 44.2749886,105.554326 C43.7988068,105.388537 43.3909659,105.068011 43.0522008,104.5898 C42.7134356,104.112326 42.5436856,103.404958 42.5436856,102.468432 L42.5436856,93.2085368 L41.6368826,93.2085368 C41.2701932,93.2085368 41.0872159,92.9329579 41.0872159,92.3818 L41.0872159,92.0509579 C41.0872159,91.4998 41.2701932,91.2242211 41.6368826,91.2242211 L42.5436856,91.2242211 L42.8736326,88.3306421 C42.910375,87.9268526 43.2028447,87.7249579 43.7532462,87.7249579 L44.0280795,87.7249579 C44.5777462,87.7249579 44.8525795,87.9268526 44.8525795,88.3306421 L44.8525795,91.2242211 L46.6661856,91.2242211 C47.0321402,91.2242211 47.2158523,91.4998 47.2158523,92.0509579 L47.2158523,92.3818 C47.2158523,92.9329579 47.0321402,93.2085368 46.6661856,93.2085368 L44.8525795,93.2085368 L44.8525795,102.082326 C44.8525795,102.798537 44.9576629,103.267168 45.1685644,103.487484 C45.3787311,103.7078 45.6307841,103.818326 45.9239886,103.818326 C46.1995568,103.818326 46.4053144,103.795484 46.5419962,103.7498 C46.6801477,103.703379 46.7852311,103.680537 46.8587159,103.680537 C46.9865795,103.680537 47.0916629,103.772642 47.1747008,103.956116 C47.2570038,104.139589 47.3209356,104.3378 47.3672311,104.548537 C47.4127917,104.760011 47.435572,104.9118 47.435572,105.003168 C47.435572,105.241905 47.3304886,105.417274 47.120322,105.527063 C46.9086856,105.636853 46.6573674,105.710537 46.3641629,105.747379 C46.0702235,105.784221 45.8233144,105.802642 45.6219659,105.802642" id="Fill-14" fill="#FFFFFF"></path>
                <path d="M51.9977318,99.0508842 L56.9726561,99.0508842 L56.9726561,93.5393053 C56.9726561,92.7309895 56.9954364,92.0788842 57.040997,91.5822526 C57.0865576,91.0863579 57.1468152,90.6184632 57.2195652,90.1770947 L57.1100727,90.1218316 L51.9977318,99.0508842 Z M57.7971561,105.692779 C57.2474894,105.692779 56.9726561,105.490147 56.9726561,105.085621 L56.9726561,101.034463 L50.1841258,101.034463 C50.0922697,101.034463 49.9923303,100.951937 49.8813682,100.786884 C49.7718758,100.621832 49.6851636,100.4332 49.6212318,100.222463 C49.5565652,100.010989 49.5249667,99.8135158 49.5249667,99.6293053 C49.5249667,99.5563579 49.5293758,99.4959368 49.5381939,99.4502526 C49.5470121,99.4045684 49.5609742,99.3633053 49.5793455,99.3264632 L56.9447318,86.6498316 C57.0182167,86.5216211 57.1468152,86.4295158 57.3297924,86.3742526 C57.5127697,86.3189895 57.6964818,86.2917263 57.8794591,86.2917263 L58.4291258,86.2917263 C58.9787924,86.2917263 59.2536258,86.4936211 59.2536258,86.8981474 L59.2536258,99.0508842 L60.7931333,99.0508842 C61.1590879,99.0508842 61.3428,99.3264632 61.3428,99.8776211 L61.3428,100.207726 C61.3428,100.758884 61.1590879,101.034463 60.7931333,101.034463 L59.2536258,101.034463 L59.2536258,105.085621 C59.2536258,105.490147 58.9787924,105.692779 58.4291258,105.692779 L57.7971561,105.692779 Z" id="Fill-16" fill="#FFFFFF"></path>
                <path d="M68.2124576,105.802642 C67.8457682,105.802642 67.4335182,105.720116 66.9757076,105.554326 C66.5171621,105.388537 66.1240182,105.068011 65.7940712,104.5898 C65.4641242,104.112326 65.2995182,103.404958 65.2995182,102.468432 L65.2995182,85.5203263 C65.2995182,85.1158 65.6654727,84.9131684 66.3988515,84.9131684 L66.5090788,84.9131684 C67.2417227,84.9131684 67.6084121,85.1158 67.6084121,85.5203263 L67.6084121,102.247379 C67.6084121,102.890642 67.7083515,103.312853 67.9104348,103.515484 C68.1117833,103.717379 68.3498742,103.818326 68.6254424,103.818326 C68.8811697,103.818326 69.0685561,103.795484 69.1883364,103.7498 C69.306647,103.703379 69.4124652,103.680537 69.5043212,103.680537 C69.6321848,103.680537 69.738003,103.772642 69.8203061,103.956116 C69.9026091,104.139589 69.9672758,104.3378 70.0128364,104.548537 C70.058397,104.760011 70.0811773,104.902221 70.0811773,104.975905 C70.0811773,105.1778 69.9716848,105.338432 69.7519652,105.4578 C69.5315106,105.577168 69.2750485,105.664853 68.9818439,105.720116 C68.6886394,105.774642 68.4329121,105.802642 68.2124576,105.802642" id="Fill-18" fill="#FFFFFF"></path>
                <path d="M73.7087568,105.692558 C72.9761129,105.692558 72.6094235,105.490663 72.6094235,105.086137 L72.6094235,91.7750842 C72.6094235,91.3712947 72.9761129,91.1694 73.7087568,91.1694 L73.8182492,91.1694 C74.5508932,91.1694 74.9183174,91.3712947 74.9183174,91.7750842 L74.9183174,105.086137 C74.9183174,105.490663 74.5508932,105.692558 73.8182492,105.692558 L73.7087568,105.692558 Z M73.7638705,88.9095053 C73.3420674,88.9095053 73.0356356,88.8586632 72.8431053,88.7584526 C72.6513098,88.6575053 72.5550447,88.5057158 72.5550447,88.3030842 L72.5550447,86.8979263 C72.5550447,86.7144526 72.6513098,86.5670842 72.8431053,86.4572947 C73.0356356,86.3467684 73.3604386,86.2915053 73.8182492,86.2915053 C74.2400523,86.2915053 74.5472189,86.3467684 74.7390144,86.4572947 C74.9315447,86.5670842 75.0278098,86.7144526 75.0278098,86.8979263 L75.0278098,88.3030842 C75.0278098,88.4865579 74.9315447,88.6339263 74.7390144,88.7444526 C74.5472189,88.8542421 74.2216811,88.9095053 73.7638705,88.9095053 L73.7638705,88.9095053 Z" id="Fill-20" fill="#FFFFFF"></path>
                <path d="M80.910125,105.692558 C80.1767462,105.692558 79.8107917,105.490663 79.8107917,105.086137 L79.8107917,93.2089789 L79.0134811,93.2089789 C78.6467917,93.2089789 78.4638144,92.9334 78.4638144,92.3822421 L78.4638144,92.0506632 C78.4638144,91.4995053 78.6467917,91.2239263 79.0134811,91.2239263 L79.8107917,91.2239263 L79.8107917,88.3030842 C79.8107917,87.2928737 79.9893598,86.5398211 80.3464962,86.0431895 C80.7043674,85.5472947 81.1298447,85.2164526 81.6251326,85.0514 C82.1196856,84.8863474 82.559125,84.8030842 82.9441856,84.8030842 C83.2190189,84.8030842 83.5019356,84.8355053 83.795875,84.8996105 C84.0883447,84.9644526 84.3359886,85.0558211 84.538072,85.1751895 C84.7394205,85.2945579 84.8400947,85.4559263 84.8400947,85.6578211 C84.8400947,85.7315053 84.8165795,85.8744526 84.7717538,86.0851895 C84.7254583,86.2966632 84.6607917,86.4934 84.5792235,86.6768737 C84.4969205,86.8610842 84.3822841,86.9524526 84.2353144,86.9524526 C84.125822,86.9524526 84.0060417,86.9251895 83.878178,86.8699263 C83.7495795,86.8154 83.538678,86.7874 83.2462083,86.7874 C82.9522689,86.7874 82.6921326,86.8839263 82.4628598,87.0769789 C82.2335871,87.2700316 82.1196856,87.7519263 82.1196856,88.5234 L82.1196856,91.2239263 L83.9604811,91.2239263 C84.3264356,91.2239263 84.5101477,91.4995053 84.5101477,92.0506632 L84.5101477,92.3822421 C84.5101477,92.9334 84.3264356,93.2089789 83.9604811,93.2089789 L82.1196856,93.2089789 L82.1196856,105.086137 C82.1196856,105.490663 81.7522614,105.692558 81.0196174,105.692558 L80.910125,105.692558 Z" id="Fill-22" fill="#FFFFFF"></path>
                <path d="M89.0996439,97.3973368 L94.4037803,97.3973368 C94.4037803,95.9457579 94.1972879,94.8581789 93.7857727,94.1316526 C93.3727879,93.4058632 92.7635985,93.0433368 91.9582045,93.0433368 C91.0594848,93.0433368 90.3775455,93.4058632 89.9109167,94.1316526 C89.4428182,94.8581789 89.1723939,95.9457579 89.0996439,97.3973368 M92.3697197,105.802495 C90.42825,105.802495 88.9850076,105.205653 88.0414621,104.011232 C87.0971818,102.816811 86.6261439,100.989442 86.6261439,98.5269158 C86.6261439,96.9110211 86.8274924,95.5463895 87.2309242,94.4344947 C87.6336212,93.3240737 88.2376667,92.4826 89.0445303,91.9137579 C89.8499242,91.3441789 90.8493182,91.0590211 92.0405076,91.0590211 C93.6343939,91.0590211 94.8344015,91.6706 95.6405303,92.8915474 C96.4466591,94.1139684 96.8500909,95.9000737 96.8500909,98.2513368 C96.8500909,98.3618632 96.7993864,98.5092316 96.6987121,98.6927053 C96.597303,98.8769158 96.4738485,99.0375474 96.3276136,99.1746 C96.1806439,99.3131263 96.0527803,99.3809158 95.9432879,99.3809158 L89.0996439,99.3809158 C89.1907652,100.906916 89.4795606,102.026916 89.9652955,102.743863 C90.4502955,103.460074 91.243197,103.818179 92.3425303,103.818179 C93.0384318,103.818179 93.6072045,103.721653 94.0459091,103.5286 C94.4860833,103.336284 94.8248485,103.143232 95.0629394,102.950179 C95.3010303,102.757126 95.4663712,102.661337 95.5582273,102.661337 C95.6860909,102.661337 95.8235076,102.753442 95.9704773,102.936916 C96.1167121,103.120389 96.2453106,103.322284 96.354803,103.5426 C96.4650303,103.763653 96.5201439,103.928705 96.5201439,104.039232 C96.5201439,104.204284 96.4143258,104.387758 96.2041591,104.590389 C95.9932576,104.792284 95.6993182,104.985337 95.3245455,105.168811 C94.9490379,105.352284 94.5088636,105.504074 94.0054924,105.623442 C93.5006515,105.742811 92.9561288,105.802495 92.3697197,105.802495" id="Fill-24" fill="#FFFFFF"></path>
            </g>
        </g>
    </g>
</svg>