<svg width="97" height="112" xmlns="http://www.w3.org/2000/svg" xmlns:xlink="http://www.w3.org/1999/xlink"><defs><path id="a" d="M0 .322v20.31h10.087V.321H0z"/></defs><g fill="none" fill-rule="evenodd"><path d="M96.658 45.684v.074H56.315l-2.94 10.463c-.22.737-.955 1.327-1.837 1.327s-1.617-.59-1.837-1.474l-8.524-35L35.37 44.21c-.22.884-.955 1.474-1.837 1.474H.025v3.684H14.65v.147c0 4.421 2.278 8.549 6.025 10.832l21.752 13.337c.514.368 1.176.516 1.837.516H52.64a3.31 3.31 0 001.837-.516L76.23 60.347c3.748-2.283 6.026-6.41 6.026-10.832v-.147H96.73v-3.684h-.073z" fill="#FFF"/><path d="M39.34 12.748c.22-.885.955-1.474 1.837-1.474.881 0 1.616.59 1.837 1.474l8.597 35.368 1.323-4.79c.22-.81.956-1.4 1.837-1.4h35.64v-3.832h-8.156v-13.41c0-4.42-2.278-8.547-6.026-10.831L54.477.515C53.963.147 53.302 0 52.64 0H44.263a3.31 3.31 0 00-1.837.515L20.674 13.853c-3.747 2.284-6.025 6.41-6.025 10.831v13.41H6.492v3.759H31.99l7.349-29.105z" fill="#FFF"/><g transform="translate(0 90.738)"><mask id="b" fill="#fff"><use xlink:href="#a"/></mask><path d="M4.975 13.026c.898 0 1.566-.445 2.006-1.337.44-.89.66-2.19.66-3.9 0-1.708-.207-3.045-.618-4.01C6.61 2.817 6 2.334 5.194 2.334c-.458 0-.907.165-1.346.496-.44.33-.844.799-1.21 1.405v7.55c.312.425.665.736 1.059.938.394.203.819.304 1.278.304zM1.319 20.63c-.696 0-1.045-.202-1.045-.606V4.62c0-.754-.022-1.378-.068-1.874A15.803 15.803 0 00.07 1.602a4.603 4.603 0 01-.07-.481C0 .992.07.89.207.818.344.744.504.684.687.638.87.593 1.05.56 1.223.542c.174-.018.298-.027.371-.027.348 0 .564.192.646.578.082.386.16.817.234 1.295.42-.698.915-1.217 1.484-1.557A3.428 3.428 0 015.744.32c.898 0 1.672.317 2.323.951.65.634 1.15 1.512 1.497 2.632.348 1.121.523 2.407.523 3.858 0 2.333-.422 4.134-1.265 5.401-.843 1.268-1.942 1.902-3.298 1.902-.678 0-1.237-.134-1.676-.4a5.385 5.385 0 01-1.21-1.006v6.366c0 .404-.348.606-1.044.606H1.32z" fill="#FFF" mask="url(#b)"/></g><path d="M14.731 105.693c-.733 0-1.1-.202-1.1-.607v-9.728c0-.753-.026-1.378-.082-1.873-.055-.497-.11-.874-.165-1.13a3.617 3.617 0 01-.082-.47c0-.128.06-.234.178-.316.12-.083.262-.147.427-.193.165-.045.33-.078.494-.097.165-.017.293-.027.385-.027.22 0 .389.106.509.317.119.211.21.464.275.757.063.295.123.561.178.8.421-.661.875-1.172 1.36-1.53.486-.357.994-.536 1.526-.536.31 0 .577.045.797.137.22.092.38.22.48.386.101.165.152.349.152.55 0 .185-.023.391-.069.62-.046.23-.11.432-.192.607-.083.175-.179.262-.289.262a.942.942 0 01-.495-.151c-.164-.101-.449-.152-.852-.152-.366 0-.705.11-1.016.33-.312.22-.577.465-.797.73-.22.268-.357.474-.412.62v10.087c0 .405-.368.607-1.1.607h-.11zM22.92 105.693c-.733 0-1.099-.202-1.099-.607v-13.31c0-.405.366-.607 1.1-.607h.11c.732 0 1.1.202 1.1.606v13.311c0 .405-.368.607-1.1.607h-.11zm.056-16.783c-.422 0-.729-.051-.921-.152-.193-.1-.289-.252-.289-.455v-1.405c0-.184.096-.33.289-.44.192-.111.517-.166.976-.166.42 0 .728.055.92.165.193.11.289.257.289.44v1.406c0 .184-.096.33-.288.441-.193.11-.518.166-.976.166zM29.6 105.693c-.678 0-1.018-.202-1.018-.607v-9.728c0-.753-.023-1.378-.068-1.873a14.97 14.97 0 00-.138-1.13 4.087 4.087 0 01-.069-.47c0-.128.07-.234.207-.316.137-.083.297-.147.48-.193a4.138 4.138 0 01.908-.124c.348 0 .563.203.646.606.082.404.16.827.233 1.268a4.591 4.591 0 011.512-1.515 3.686 3.686 0 011.951-.551c1.136 0 2.015.38 2.638 1.142.623.764.935 1.815.935 3.156v9.728c0 .184-.082.331-.248.44-.164.111-.43.167-.796.167h-.275c-.367 0-.637-.056-.811-.166-.174-.11-.261-.257-.261-.44v-9.51c0-.788-.161-1.404-.482-1.845-.32-.44-.81-.662-1.47-.662-.513 0-.993.18-1.442.538-.45.358-.811.823-1.086 1.392v10.086c0 .405-.348.607-1.044.607h-.303zM45.622 105.803c-.422 0-.87-.083-1.347-.249-.476-.165-.884-.486-1.223-.964-.339-.478-.508-1.185-.508-2.122v-9.26h-.907c-.367 0-.55-.275-.55-.826v-.331c0-.551.183-.827.55-.827h.907l.33-2.893c.036-.404.329-.606.88-.606h.274c.55 0 .825.202.825.606v2.893h1.813c.366 0 .55.276.55.827v.33c0 .552-.184.828-.55.828h-1.813v8.873c0 .717.105 1.185.316 1.405.21.22.462.331.755.331.276 0 .481-.023.618-.068.138-.047.243-.07.317-.07.128 0 .233.093.316.276.082.184.146.382.192.593.046.211.069.363.069.454a.552.552 0 01-.316.524c-.211.11-.463.184-.756.22-.294.037-.54.056-.742.056M51.998 99.05h4.975v-5.51c0-.809.022-1.461.068-1.958.046-.496.106-.964.179-1.405l-.11-.055-5.112 8.929zm5.8 6.643c-.55 0-.825-.203-.825-.607v-4.052h-6.789c-.092 0-.192-.082-.303-.247a2.138 2.138 0 01-.26-.565 2.031 2.031 0 01-.096-.593c0-.073.004-.133.013-.179a.48.48 0 01.041-.124l7.366-12.676c.073-.128.202-.22.385-.276.183-.055.366-.082.55-.082h.55c.549 0 .824.202.824.606v12.153h1.54c.365 0 .549.275.549.827v.33c0 .55-.184.826-.55.826h-1.54v4.052c0 .404-.274.607-.824.607h-.632zM68.212 105.803c-.366 0-.778-.083-1.236-.249-.459-.165-.852-.486-1.182-.964-.33-.478-.494-1.185-.494-2.122V85.52c0-.404.365-.607 1.099-.607h.11c.733 0 1.1.203 1.1.607v16.727c0 .644.1 1.066.301 1.268.202.202.44.303.715.303.256 0 .444-.023.563-.068a.88.88 0 01.316-.07c.128 0 .234.093.316.276.083.184.147.382.193.593.045.211.068.353.068.427 0 .202-.11.362-.329.482-.22.12-.477.207-.77.262a4.28 4.28 0 01-.77.083M73.709 105.693c-.733 0-1.1-.202-1.1-.607v-13.31c0-.405.367-.607 1.1-.607h.11c.732 0 1.1.202 1.1.606v13.311c0 .405-.368.607-1.1.607h-.11zm.055-16.783c-.422 0-.728-.051-.92-.152-.193-.1-.289-.252-.289-.455v-1.405c0-.184.096-.33.288-.44.193-.111.517-.166.975-.166.422 0 .73.055.921.165.193.11.289.257.289.44v1.406c0 .184-.096.33-.289.441-.192.11-.517.166-.975.166zM80.91 105.693c-.733 0-1.1-.202-1.1-.607V93.21h-.797c-.366 0-.55-.276-.55-.827v-.331c0-.551.184-.827.55-.827h.798v-2.92c0-1.011.178-1.764.535-2.26.358-.497.784-.828 1.28-.993.494-.165.933-.248 1.318-.248.275 0 .558.033.852.097.292.064.54.156.742.275.201.12.302.28.302.483 0 .074-.023.216-.068.427a3.065 3.065 0 01-.193.592c-.082.184-.197.275-.344.275a.907.907 0 01-.357-.082c-.128-.055-.34-.083-.632-.083a1.18 1.18 0 00-.783.29c-.23.193-.343.675-.343 1.446v2.7h1.84c.366 0 .55.277.55.828v.331c0 .551-.184.827-.55.827h-1.84v11.877c0 .405-.368.607-1.1.607h-.11zM89.1 97.397h5.304c0-1.451-.207-2.539-.618-3.265-.413-.726-1.022-1.089-1.828-1.089-.899 0-1.58.363-2.047 1.089-.468.726-.739 1.814-.811 3.265m3.27 8.405c-1.942 0-3.385-.596-4.329-1.79-.944-1.195-1.415-3.023-1.415-5.485 0-1.616.201-2.98.605-4.093.403-1.11 1.007-1.951 1.814-2.52.805-.57 1.804-.855 2.996-.855 1.593 0 2.793.612 3.6 1.833.806 1.222 1.21 3.008 1.21 5.36 0 .11-.052.257-.152.44a1.93 1.93 0 01-.371.483c-.147.138-.275.206-.385.206H89.1c.09 1.526.38 2.646.865 3.363.485.716 1.278 1.074 2.378 1.074.695 0 1.264-.096 1.703-.29.44-.192.779-.385 1.017-.578.238-.193.403-.289.495-.289.128 0 .266.092.412.276.147.183.275.385.385.606.11.22.165.386.165.496 0 .165-.106.349-.316.551-.21.202-.505.395-.88.579a6.346 6.346 0 01-1.319.454c-.504.12-1.049.18-1.635.18" fill="#FFF"/></g></svg>