<svg width="209" height="239" xmlns="http://www.w3.org/2000/svg"><g fill-rule="nonzero" fill="none"><path d="M194.255 97.594v-4.067h-75.883l-7.056 25.181-22.106-89.93-16.462 64.906h-57.54v4.066H1.411v7.82h31.2v.313c0 9.384 4.86 18.143 12.856 22.991l46.408 28.308c1.098.782 2.509 1.095 3.92 1.095H113.668c1.411 0 2.665-.313 3.92-1.095l46.408-28.308c7.996-4.848 12.856-13.607 12.856-22.99v-.314h30.886v-7.82l-13.483-.156z" fill="#DE5C47"/><path d="M194.255 89.617v-7.976h-17.403V53.176c0-9.384-4.86-18.142-12.856-22.99l-46.408-28.31c-1.098-.781-2.509-1.094-3.92-1.094H95.795c-1.411 0-2.666.313-3.92 1.095L45.467 30.185c-7.996 4.849-12.856 13.607-12.856 22.991v28.465H15.208v12.043h57.54L89.21 28.778l22.106 90.086 7.056-25.18h75.883v-4.067z" fill="#40B39F"/><path d="M111.316 122.93c-1.881 0-3.449-1.25-3.92-3.127L89.21 45.513l-12.386 49.11c-.47 1.876-2.038 3.127-3.92 3.127H1.254v-8.133h68.358L85.29 27.84c.47-1.877 2.038-3.128 3.92-3.128 1.881 0 3.45 1.251 3.92 3.128l18.343 75.073 2.822-10.167a4.043 4.043 0 013.92-2.971h89.366v8.133h-86.074l-6.271 22.209c-.47 1.564-2.038 2.815-3.92 2.815z" fill="#FFF"/><g fill="#5286A4"><path d="M4.076 237.26c-1.41 0-2.195-.47-2.195-1.252v-32.687c0-1.564 0-2.972-.156-3.91-.157-1.095-.157-1.877-.314-2.503-.157-.625-.157-.938-.157-1.095 0-.312.157-.469.47-.625.314-.157.628-.313 1.098-.313.314-.156.784-.156 1.098-.156h.784c.783 0 1.254.469 1.41 1.25.157.783.314 1.721.47 2.816.942-1.408 1.882-2.659 3.137-3.284 1.254-.782 2.508-1.095 3.762-1.095 1.882 0 3.606.625 5.017 2.033 1.412 1.408 2.509 3.284 3.136 5.63.784 2.346 1.098 5.162 1.098 8.133 0 5.005-.941 8.759-2.666 11.417-1.724 2.66-4.076 4.067-7.055 4.067-1.411 0-2.665-.313-3.606-.782-.94-.626-1.725-1.251-2.509-2.19v13.45c0 .783-.783 1.252-2.194 1.252h-.628v-.156zm7.84-16.11c1.881 0 3.292-.938 4.233-2.815.94-1.877 1.41-4.692 1.41-8.29 0-3.596-.47-6.412-1.254-8.445-.94-2.033-2.194-3.128-3.92-3.128-.94 0-1.88.313-2.821 1.095-.94.626-1.725 1.72-2.509 2.972v15.952c.627.939 1.411 1.564 2.195 2.034.784.312 1.725.625 2.666.625zM32.768 225.217c-1.568 0-2.352-.47-2.352-1.252v-20.644c0-1.564 0-2.972-.157-3.91-.157-1.095-.157-1.877-.313-2.346-.157-.47-.157-.939-.157-.939 0-.313.157-.469.313-.625l.941-.47c.314-.156.627-.156 1.098-.156h.784c.47 0 .783.156 1.097.626.314.469.47.938.627 1.564.157.625.314 1.25.314 1.72.94-1.408 1.881-2.502 2.979-3.284 1.097-.782 2.195-1.095 3.292-1.095.627 0 1.254.156 1.725.313.47.156.784.469 1.097.782.157.312.314.782.314 1.094 0 .313 0 .782-.157 1.252-.157.469-.157.938-.47 1.25-.157.314-.314.626-.628.626-.313 0-.627-.156-1.097-.312-.47-.157-.94-.313-1.881-.313-.784 0-1.568.156-2.195.625-.628.47-1.255.939-1.725 1.564-.47.626-.784.939-.94 1.252v21.426c0 .782-.785 1.252-2.352 1.252h-.157zM50.328 189.557c-.941 0-1.568-.156-2.039-.312-.47-.157-.627-.47-.627-.939v-2.971c0-.313.157-.626.627-.939.47-.156 1.098-.313 2.039-.313.94 0 1.567.157 2.038.313.47.157.627.47.627.939v2.971c0 .313-.157.626-.627.939-.47.156-1.098.312-2.038.312zm-.157 35.66c-1.568 0-2.352-.47-2.352-1.252v-28.308c0-.782.784-1.251 2.352-1.251h.157c1.567 0 2.351.469 2.351 1.251v28.308c0 .782-.784 1.252-2.351 1.252h-.157zM64.438 225.217c-1.411 0-2.195-.47-2.195-1.252v-20.644c0-1.564 0-2.972-.157-3.91-.157-1.095-.157-1.877-.313-2.346-.157-.47-.157-.939-.157-.939 0-.313.157-.469.47-.625.314-.157.627-.313 1.098-.47.313-.156.784-.156 1.097-.156h.784c.784 0 1.254.47 1.411 1.251.157.782.314 1.72.47 2.659a8.305 8.305 0 013.293-3.284c1.411-.782 2.665-1.095 4.233-1.095 2.352 0 4.233.782 5.644 2.502 1.255 1.564 2.039 3.91 2.039 6.725v20.645c0 .313-.157.626-.47.939-.314.312-.941.312-1.725.312h-.628c-.783 0-1.41-.156-1.724-.312-.314-.157-.627-.47-.627-.939v-20.175c0-1.72-.314-2.972-1.098-3.91-.627-.939-1.724-1.408-3.135-1.408-1.098 0-2.195.313-3.136 1.095a9.004 9.004 0 00-2.352 2.971v21.427c0 .782-.784 1.251-2.195 1.251h-.627v-.312zM98.617 225.373c-.94 0-1.882-.156-2.822-.47-.941-.312-1.882-1.094-2.666-2.032-.783-.939-1.097-2.503-1.097-4.536V198.63H90.15c-.784 0-1.098-.626-1.098-1.72v-.626c0-1.095.314-1.72 1.098-1.72h1.88l.628-6.1c0-.782.627-1.252 1.881-1.252h.628c1.097 0 1.724.47 1.724 1.252v6.1h3.92c.784 0 1.097.625 1.097 1.72v.625c0 1.095-.313 1.72-1.097 1.72h-3.92v18.769c0 1.564.157 2.502.627 2.971.47.47.941.626 1.568.626.627 0 1.098 0 1.254-.157.314-.156.47-.156.628-.156.313 0 .47.156.627.626.157.469.313.782.47 1.25.157.47.157.783.157.94 0 .468-.157.938-.627 1.094-.47.156-.941.313-1.568.47-.47.312-.94.312-1.411.312zM124.643 225.217c-1.098 0-1.725-.47-1.725-1.252v-8.602h-14.424c-.157 0-.47-.156-.627-.469-.157-.313-.47-.782-.627-1.251-.157-.47-.157-.938-.157-1.251v-.313c0-.156 0-.156.157-.313l15.678-26.9c.157-.313.47-.47.784-.626.314-.157.784-.157 1.098-.157h1.097c1.098 0 1.725.47 1.725 1.252v25.806h3.292c.784 0 1.098.625 1.098 1.72v.626c0 1.094-.314 1.72-1.098 1.72h-3.292v8.602c0 .782-.627 1.251-1.725 1.251h-1.254v.157zm-12.386-14.076h10.661v-11.73c0-1.72 0-3.128.157-4.223.157-1.095.157-2.033.314-2.972l-.157-.156-10.975 19.08zM146.75 225.373c-.785 0-1.725-.156-2.666-.47-.94-.312-1.881-1.094-2.508-2.032-.628-.939-1.098-2.503-1.098-4.536v-35.972c0-.782.784-1.251 2.352-1.251h.157c1.567 0 2.351.469 2.351 1.251v35.503c0 1.407.157 2.19.627 2.659.47.469.941.625 1.568.625.47 0 .941 0 1.255-.156.313-.157.47-.157.627-.157.313 0 .47.157.627.626.157.313.313.782.47 1.251.157.47.157.782.157.939 0 .469-.157.782-.627 1.094-.47.313-.94.47-1.568.626h-1.725zM158.665 189.557c-.94 0-1.568-.156-2.038-.312-.47-.157-.627-.47-.627-.939v-2.971c0-.313.156-.626.627-.939.47-.313 1.097-.313 2.038-.313.94 0 1.568.157 2.038.313.47.157.627.47.627.939v2.971c0 .313-.157.626-.627.939-.313.156-1.097.312-2.038.312zm-.157 35.66c-1.568 0-2.352-.47-2.352-1.252v-28.308c0-.782.784-1.251 2.352-1.251h.157c1.568 0 2.352.469 2.352 1.251v28.308c0 .782-.784 1.252-2.352 1.252h-.157zM173.873 225.217c-1.568 0-2.352-.47-2.352-1.252v-25.18h-1.724c-.784 0-1.098-.626-1.098-1.72v-.626c0-1.095.314-1.72 1.098-1.72h1.724v-6.256c0-2.19.314-3.754 1.098-4.849.784-1.095 1.724-1.72 2.665-2.033 1.097-.313 2.038-.47 2.822-.47.627 0 1.254 0 1.882.157.627.157 1.097.313 1.567.626s.627.625.627 1.095c0 .156 0 .469-.156.938-.157.47-.314.938-.47 1.251-.157.313-.471.626-.785.626-.156 0-.47 0-.783-.157-.314-.156-.784-.156-1.412-.156-.627 0-1.254.156-1.724.626-.47.469-.784 1.407-.784 3.128v5.786h3.92c.783 0 1.097.626 1.097 1.72v.626c0 1.095-.314 1.72-1.097 1.72h-3.92v25.181c0 .782-.784 1.251-2.352 1.251h.157v-.312zM198.331 225.373c-4.076 0-7.212-1.251-9.25-3.754-2.038-2.502-2.979-6.412-2.979-11.573 0-3.441.47-6.256 1.254-8.759.784-2.346 2.195-4.066 3.92-5.317 1.725-1.251 3.92-1.877 6.428-1.877 3.45 0 5.958 1.251 7.682 3.91 1.725 2.659 2.509 6.412 2.509 11.417 0 .157-.157.47-.314.939-.156.312-.47.782-.784 1.094-.313.313-.627.47-.783.47h-14.581c.156 3.284.784 5.63 1.881 7.194 1.098 1.564 2.665 2.346 5.017 2.346 1.411 0 2.665-.156 3.606-.626.94-.469 1.725-.782 2.195-1.25.47-.47.784-.626 1.098-.626.313 0 .627.156.94.625.314.47.627.782.784 1.251.314.47.314.782.314 1.095 0 .313-.157.782-.627 1.095-.47.47-1.098.782-1.882 1.251-.784.47-1.724.782-2.822.939-1.097.156-2.352.156-3.606.156zm-6.898-17.83h11.288c0-3.128-.47-5.317-1.254-6.881-.94-1.564-2.195-2.346-3.92-2.346-1.881 0-3.449.782-4.39 2.346-1.097 1.564-1.568 3.91-1.724 6.881z"/></g></g></svg>