<svg width="213" height="107" xmlns="http://www.w3.org/2000/svg" xmlns:xlink="http://www.w3.org/1999/xlink"><defs><filter x="-2.7%" y="-3.5%" width="105.3%" height="110.9%" filterUnits="objectBoundingBox" id="a"><feOffset dy="2" in="SourceAlpha" result="shadowOffsetOuter1"/><feGaussianBlur stdDeviation="1.5" in="shadowOffsetOuter1" result="shadowBlurOuter1"/><feColorMatrix values="0 0 0 0 0.68970557 0 0 0 0 0.68970557 0 0 0 0 0.68970557 0 0 0 0.5 0" in="shadowBlurOuter1"/></filter><path d="M108.292 97.364l-18.59-75.97L77 71.621a4.162 4.162 0 01-4.034 3.141H0v-8.324h69.728L85.736 3.14A4.161 4.161 0 0189.77 0a4.166 4.166 0 014.042 3.173l18.787 76.786 2.929-10.48a4.162 4.162 0 014.007-3.041h87.048v8.324h-83.891l-6.351 22.733a4.16 4.16 0 01-4.007 3.042c-1.959-.032-3.59-1.334-4.04-3.173z" id="b"/></defs><g transform="translate(3 1)" fill="none" fill-rule="evenodd"><use fill="#000" filter="url(#a)" xlink:href="#b"/><use fill="#FFF" xlink:href="#b"/></g></svg>