<?xml version="1.0" encoding="UTF-8"?>
<svg width="100px" height="20px" viewBox="0 0 100 20" version="1.1" xmlns="http://www.w3.org/2000/svg" xmlns:xlink="http://www.w3.org/1999/xlink">
    <title>r_line5</title>
    <g id="Page-1" stroke="none" stroke-width="1" fill="none" fill-rule="evenodd">
        <g id="Print4Life---Landingpage-Copy-8" transform="translate(-1419.000000, -499.000000)" fill="#DF5A49" fill-rule="nonzero">
            <g id="Group-25" transform="translate(-11.000000, 88.000000)">
                <g id="Group-26" transform="translate(1125.000000, 190.000000)">
                    <g id="Group-23" transform="translate(0.250000, 39.166117)">
                        <g id="Group-15">
                            <g id="Group-29" transform="translate(4.754630, 97.322346)">
                                <g id="r_line5" transform="translate(297.433919, 67.615829)">
                                    <path d="M91.9536309,12.780981 L94.0724313,12.780981 L95.2597645,14.6084893 L96.1094568,13.8415686 L98.5032891,15.1868754 L98.776085,16.9571843 L100.02443,16.2481021 L101.445588,19.1943561 L100.545745,19.4988876 L100.545745,20.8748713 C98.958162,21.4181069 97.7548571,22.7944101 95.957726,22.3237125 C95.852313,23.5434361 94.7378106,23.9444718 94.0302661,24.1020101 C92.3522835,24.4752449 90.9445415,25.7981832 89.3665415,25.8275819 C87.5243703,25.8636911 86.1265306,26.8763461 84.522976,27.3342617 C82.598391,27.8838882 80.6169469,28.4728195 78.7092919,29.2084244 C76.8469964,29.9264539 74.8901486,30.8652928 72.7537794,30.796909 C69.3764123,32.7560721 65.452495,32.9803965 61.8144703,34.0946685 C58.9798202,34.9628867 56.1218514,36.0439255 53.0671118,36.2676107 C52.004677,36.345581 50.990796,37.447071 49.8833212,35.8221575 C49.0777106,37.2981605 48.1302718,38.1126943 46.5468415,38.0590098 C45.4061903,38.0581782 44.273971,38.2545001 43.2001399,38.6393132 C40.4035023,39.5628137 37.4896327,39.8571195 34.6307056,40.4454117 C32.0072008,40.9854518 29.3079904,41.1711105 26.737192,41.7405492 C23.270703,42.50747 19.863948,41.9715841 16.4424991,42.1895174 C15.8397287,42.228183 15.2209866,41.7379928 14.5872311,41.6462818 C13.9010886,41.5453039 13.0063562,41.8862641 12.5329563,41.5577664 C11.9196445,41.1321254 11.46573,41.516864 10.9654976,41.4178034 C10.2260097,41.2714493 9.49961866,41.0592679 8.61958021,40.8381391 C8.29503609,40.2677417 7.20353287,40.0392632 7.20640777,38.9141265 C7.20640777,38.631644 6.66752397,38.0900062 6.40143612,38.1053446 C4.38900701,38.2213414 3.92231511,36.5635143 3.05185966,35.1654816 C2.71453821,32.4454692 4.0376305,30.5383928 6.58798511,29.361489 C6.92010708,29.1946169 7.27331837,29.0735759 7.63796201,29.0016753 C9.05368992,28.7779901 10.5636506,28.8246444 11.8704518,28.3277436 C13.3079012,27.7816321 14.7086157,27.8244519 16.1508566,27.7877036 C17.5355995,27.7522335 19.168542,28.1462391 20.2396015,27.5438867 C21.430129,26.872831 22.9174099,27.936614 23.7722131,26.6002546 C24.7107079,27.5908606 25.6370641,26.1087862 26.5730034,26.5861944 C27.5734681,25.7256453 28.8182993,26.1877151 29.9190661,25.9387854 C30.9380579,25.7083896 31.9889931,25.5757762 32.9677364,25.3175795 C36.1844261,24.5070167 39.4545969,23.9259974 42.7535723,23.5789062 C44.1817581,22.3272276 46.1536192,23.5149961 47.6881763,22.4103106 C49.0055187,21.4615657 50.7707066,21.6354011 52.3001527,21.2966777 C54.0362721,20.9132173 55.8576802,20.6198701 57.6436311,20.3281207 C59.3110724,20.0558638 60.950723,19.5957113 62.6267889,19.2841498 C65.0972853,18.8246364 67.4502301,17.7535037 70.0072929,17.5640103 C71.0828244,16.2944369 72.7777369,17.390175 74.0618584,16.422257 C75.139626,15.6102796 76.7348753,15.4715948 78.0410376,15.2619698 C81.2289809,14.7506892 84.0463817,13.196716 87.1477585,12.5218257 C87.8824549,12.3620505 88.6145958,12.1917302 89.4649269,12 C89.5776868,12.7349658 89.6623366,13.2881074 89.7958597,14.1592016 L91.9536309,12.780981 Z" id="Shape" transform="translate(52.222794, 27.095843) rotate(-166.000000) translate(-52.222794, -27.095843) "></path>
                                </g>
                            </g>
                        </g>
                    </g>
                </g>
            </g>
        </g>
    </g>
</svg>