<svg width="100" height="19" xmlns="http://www.w3.org/2000/svg"><path d="M7.898 13.776l-2.056-.512-.71-2.06-1.01.538-1.997-1.885.163-1.783-1.383.386L.24 5.257l.947-.078.333-1.335C3.19 3.701 4.69 2.657 6.32 3.548c.397-1.158 1.576-1.277 2.3-1.259 1.719.044 3.405-.9 4.943-.546 1.796.41 3.398-.234 5.064-.29 2-.068 4.066-.16 6.095-.412 1.98-.246 4.106-.684 6.163-.1 3.75-1.085 7.612-.353 11.412-.554 2.96-.157 5.995-.514 9.013.008 1.05.181 2.3-.642 2.981 1.202C55.432.36 56.548-.2 58.071.234a9.9 9.9 0 003.388.246c2.937-.219 5.835.2 8.751.321 2.677.11 5.34.584 7.973.653 3.549.095 6.725 1.439 10.097 2.055.595.108 1.076.734 1.669.976.641.264 1.592.15 1.972.583.492.561 1.026.298 1.487.515.682.32 1.336.702 2.136 1.13.177.632 1.18 1.117.906 2.208-.069.275.323.93.585.98 1.98.374 2.033 2.096 2.539 3.663-.33 2.72-2.076 4.251-4.835 4.776a4.11 4.11 0 01-1.106.095c-1.428-.125-2.882-.536-4.27-.37-1.527.182-2.876-.198-4.284-.511-1.352-.301-2.841-1.078-4.026-.753-1.318.363-2.503-1.029-3.656.061-.671-1.188-1.928.026-2.721-.664-1.179.593-2.275-.157-3.403-.181-1.045-.023-2.097-.149-3.109-.135-3.317.008-6.63-.22-9.916-.68-1.688.869-3.314-.761-5.07-.06-1.508.602-3.179.006-4.745-.036-1.777-.047-3.615-.203-5.419-.352-1.684-.14-3.386-.09-5.087-.193-2.509-.152-5.05.318-7.578-.116-1.35.971-2.73-.502-4.21.126-1.242.528-2.824.276-4.142.164-3.217-.276-6.326.55-9.499.455-.752-.022-1.503-.034-2.375-.054l.202-2.175-2.427.815z" fill="#DF5A49" fill-rule="nonzero"/></svg>