<?xml version="1.0" encoding="UTF-8"?>
<svg width="113px" height="11px" viewBox="0 0 113 11" version="1.1" xmlns="http://www.w3.org/2000/svg" xmlns:xlink="http://www.w3.org/1999/xlink">
    <title>r_line2</title>
    <g id="Page-1" stroke="none" stroke-width="1" fill="none" fill-rule="evenodd">
        <g id="Print4Life---Landingpage-Copy-8" transform="translate(-1330.000000, -446.000000)" fill="#DF5A49" fill-rule="nonzero">
            <g id="Group-25" transform="translate(-11.000000, 88.000000)">
                <g id="Group-26" transform="translate(1125.000000, 190.000000)">
                    <g id="Group-23" transform="translate(0.250000, 39.166117)">
                        <g id="Group-15">
                            <g id="Group-29" transform="translate(4.754630, 97.322346)">
                                <g id="r_line2" transform="translate(209.953488, 7.940594)">
                                    <path d="M43,-15.6584377 L43,-22.2068221 C43.5966283,-25.009842 44.2862474,-26.3695344 45.3266273,-25.9132673 C45.4235237,-25.1936738 45.6022518,-23.8637919 45.8131547,-22.2954257 C46.9690291,-25.4644529 47.4092471,-18.5889805 48.3179522,-19.6803779 C49.6218678,-15.8306764 50.5945506,-10.4714018 51.9317569,-7.11523056 C52.118829,-6.4945866 52.2864532,-5.76551604 52.430187,-4.94734102 C53.59257,0.159022908 54.856179,4.7874256 56.2056095,8.88144248 C57.1175876,11.8835812 57.9793409,15.1769422 58.7840557,18.7354858 C59.657409,22.5941328 60.6413138,25.9227319 61.7102871,28.6350731 C61.8973073,29.2546195 62.0650929,29.9816269 62.2092752,30.7971661 C62.8721129,33.6871334 63.4702291,36.9878239 64.2197341,39.326296 C64.8232438,41.2118134 65.2694132,43.7150716 65.8041097,45.822512 C66.7282513,49.4602273 67.4965405,53.8879223 68.320996,58.021652 C69.151031,62.1827082 70.0058015,66.2617853 70.7759505,70.6356556 C71.0971404,72.4574115 71.2273274,74.9515609 71.4531088,77.2279278 L69.8328388,83.5527331 C69.3379423,84.7998078 69.0889132,80.6602815 68.5047456,79.7071719 L68.0237977,81.3517207 L65.7440377,79.2533891 C63.8098311,72.2147867 61.5594561,64.728198 59.4563784,56.3423243 C58.4304015,52.2432146 57.3134817,48.6191598 56.1228478,45.5260626 C55.2619399,43.3035204 54.5888732,39.6310261 53.8084952,36.7112482 C51.7409399,28.9778944 49.6633417,21.0408351 47.9158604,11.9428205 C46.2749465,3.40292562 44.2669053,-3.86256819 43,-15.6584377 Z" id="Shape-Copy-3" transform="translate(57.226554, 28.892420) rotate(-75.000000) translate(-57.226554, -28.892420) "></path>
                                </g>
                            </g>
                        </g>
                    </g>
                </g>
            </g>
        </g>
    </g>
</svg>