<svg width="82" height="15" xmlns="http://www.w3.org/2000/svg"><path d="M48.867 11.24l-.364.559-1.729-1.724-.212 1.598c-.933.081-2.121.55-2.875.168-1.223-.62-1.649.73-2.623.603-.883-.116-1.996.521-2.692.183-1.135-.55-2.027.083-3.015.043a26.039 26.039 0 01-2.968-.449L30.6 13.23l-1.556-1.843-.189 2.032c-3.193-1.026-6.409.624-9.56-.2l-.588-1.28-.185 1.51-2.426-.115-.543-1.643-.635.7-1.412-.366-.298 1.4-2.536-1.083-.456-1.373-1.948 1.554c-1.423-1.34-3.8-1.595-4.946-3.559l.53-.902c-.72-.466-.958-.244-1.306 1.222-.195.067-.394.12-.597.158-.084.011-.181-.077-.488-.221l.332-1.616L.654 5.872l2.01.278L1.63 4.058l2.779.603-.41.794 1.92.511-.442-2.081 1.736-1.4 4.898.908c.627-.412 3.32-.632 4.624-.347l.605-.838 2.25.536-.436.776c.16.072.396.264.493.21 1.105-.619 2.027-1.756 3.57-.83.286.172 1.036-.415 1.567-.66 2.431-1.124 4.852-1.259 7.264-.045.454-.234.927-.61 1.452-.71.618-.12 1.72.23 1.853-.023.692-1.306 1.463-.058 2.157-.196a4.755 4.755 0 012.09-.057c1.325.291 2.778.104 4.166-.014a78.68 78.68 0 0113.986.05c3.611.336 7.247.473 10.802 1.19 2.395.483 4.966.856 7.017 2.037 1.854 1.067 3.961 1.912 5.6 3.647l-.412 1.094.662.498-1.844 2.667c-1.01-.085-2.084-.273-2.929-1.516.05.805.085 1.39.123 2.022l-.884.188-.67-1.03-.915.898-1.067-.492-1.2 1.698c-.95-.765-1.651-1.481-2.49-1.96-.813-.465-2.117.429-2.775-1.07l.442-1.155-2.09.333 1.263.927c-.794.127-1.414.412-1.906.268a14.98 14.98 0 00-3.506-.48c-1.1-.038-2.202.012-3.294.151-.981.102-1.99-.065-2.972.03-1.038.1-2.058.503-3.09.523-.915.019-1.84-.303-2.75-.472z" fill="#DF5A49" fill-rule="nonzero"/></svg>