<svg width="58" height="11" xmlns="http://www.w3.org/2000/svg"><path d="M5.242 9.445L4.03 9.253l-.527-1.066-.55.325-1.256-.922-.01-.954-.772.26L.347 5.22l.54-.079.115-.722c.952-.14 1.755-.754 2.743-.344.162-.63.832-.74 1.25-.759.99-.044 1.905-.61 2.81-.483 1.056.148 1.94-.257 2.894-.352 1.146-.114 2.328-.243 3.48-.457 1.125-.208 2.321-.523 3.537-.294 2.094-.722 4.356-.484 6.529-.74 1.693-.198 3.417-.506 5.182-.347.614.055 1.285-.431 1.783.522.583-.702 1.193-1.043 2.094-.872a6.195 6.195 0 001.961-.001C36.941.062 38.632.17 40.315.12c1.545-.045 3.104.102 4.62.036 2.047-.089 3.95.5 5.924.696.348.035.661.348 1.016.453.384.115.924.018 1.167.233.315.279.607.118.885.215.41.144.808.321 1.293.517.138.328.743.547.648 1.137-.024.148.24.481.393.497 1.16.122 1.29 1.034 1.67 1.846-.032 1.458-.947 2.339-2.503 2.725a2.527 2.527 0 01-.63.094c-.829-.01-1.688-.172-2.477-.03-.867.157-1.664.007-2.492-.104-.795-.107-1.695-.461-2.358-.242-.736.244-1.498-.449-2.098.175-.454-.605-1.107.089-1.603-.246-.643.36-1.316.005-1.967.036-.601.029-1.213.003-1.794.05a43.856 43.856 0 01-5.74.026c-.92.528-1.95-.274-2.918.166-.832.379-1.827.128-2.73.167-1.024.044-2.09.033-3.135.024-.976-.008-1.952.085-2.936.097-1.451.017-2.885.366-4.363.234-.72.569-1.599-.16-2.413.232-.684.328-1.607.257-2.372.248-1.865-.02-3.605.54-5.434.613-.434.018-.866.04-1.368.064l-.01-1.163-1.348.528z" fill="#DF5A49" fill-rule="nonzero"/></svg>