<?xml version="1.0" encoding="UTF-8"?>
<svg width="82px" height="14px" viewBox="0 0 82 14" version="1.1" xmlns="http://www.w3.org/2000/svg" xmlns:xlink="http://www.w3.org/1999/xlink">
    <title>r_line6b</title>
    <g id="Page-1" stroke="none" stroke-width="1" fill="none" fill-rule="evenodd">
        <g id="Print4Life---Landingpage-Copy-8" transform="translate(-1120.000000, -589.000000)" fill="#DF5A49" fill-rule="nonzero">
            <g id="Group-25" transform="translate(-11.000000, 88.000000)">
                <g id="Group-26" transform="translate(1125.000000, 190.000000)">
                    <g id="Group-23" transform="translate(0.250000, 39.166117)">
                        <g id="Group-15">
                            <g id="Group-29" transform="translate(4.754630, 97.322346)">
                                <g id="r_line6b" transform="translate(0.975746, 161.805914)">
                                    <path d="M48.0430975,25.2243555 C47.8691056,25.3977348 47.7197289,25.5465855 47.5710266,25.6947643 L46.2384379,23.6494939 C46.0361218,24.2180166 45.9073139,24.5842635 45.6989283,25.1675704 C44.7689486,25.0533283 43.5091937,25.2643402 42.8516664,24.7341223 C41.784449,23.8732741 41.0864585,25.1064173 40.1605251,24.7791471 C39.3205761,24.4821176 38.0999357,24.8742369 37.4889411,24.398788 C36.4932087,23.6239574 35.4890464,24.0577416 34.5310797,23.813801 C33.5749256,23.515935 32.6368605,23.1632114 31.7215835,22.7573972 L29.7608033,23.3719527 L28.6214265,21.2453688 C28.296372,22.2893404 28.1891444,22.6334108 28.0144782,23.1942054 C25.1048355,21.5269421 21.6162316,22.4717918 18.7042286,21.0101643 C18.630046,20.6791981 18.5656421,20.3925847 18.3956965,19.6358985 C18.1377435,20.3865366 18.0284928,20.7050706 17.9010337,21.0760216 L15.5521438,20.458106 C15.4978556,19.9645127 15.4425559,19.4665514 15.3619667,18.7380897 L14.5955258,19.2914921 L13.2902498,18.6393038 L12.7079167,19.9473764 C11.9998103,19.450087 11.291704,18.9501097 10.4524294,18.3604186 C10.41871,18.065741 10.3644219,17.5677797 10.2925996,16.9223116 L8.06307625,18.0375165 C6.95033771,16.4317424 4.67900233,15.6874884 3.96550089,13.5279758 L4.67090968,12.7551613 C4.06396139,12.1503499 3.78510237,12.3183531 3.14005121,13.6798507 C2.93555684,13.7043391 2.72957599,13.7143324 2.5236615,13.7097552 C2.43902593,13.7033711 2.36214581,13.5971931 2.09137944,13.3922293 C2.28942442,12.9404128 2.50983657,12.4364033 2.75261588,11.8802009 L2,9.94917261 L3.90851519,10.6393296 C3.71631489,9.88566742 3.57368205,9.32520889 3.33191431,8.37733509 L5.92392071,9.54529302 L5.35811003,10.236458 L7.13006185,11.1359469 L7.13006185,9.00801893 L9.11950347,8 L13.7215203,9.90649981 C14.4205224,9.63366268 17.1015479,9.97806915 18.3167933,10.5277755 L19.0828969,9.83392244 L21.1714734,10.8258131 L20.5847567,11.4948016 C20.7253664,11.5982916 20.9165551,11.835512 21.0231083,11.8022474 C22.2322841,11.4269284 23.3706494,10.5066071 24.6880644,11.7333661 C24.9318553,11.9605064 25.786978,11.5425145 26.3578466,11.4128161 C28.969073,10.819429 31.3655072,11.1907159 33.4726293,12.8794836 C33.965269,12.7450811 34.505453,12.4762761 35.0402419,12.4863563 C35.6697822,12.4984525 36.6742816,13.0689912 36.8573776,12.8499151 C37.8059029,11.7165658 38.300903,13.0972157 39.0079978,13.1059519 C39.7134195,13.0781863 40.4161571,13.2077925 41.0648781,13.485303 C42.2993435,14.0454255 43.7600657,14.1643718 45.1422218,14.337751 C49.7782181,14.915727 54.3531247,15.9052792 58.8123834,17.2946066 C62.2746862,18.3735228 65.8024045,19.2639396 69.1305043,20.7043986 C71.3728411,21.6744488 73.8104129,22.5742737 75.5709001,24.1561914 C77.1627906,25.5848903 79.0480394,26.849618 80.2892487,28.8868243 C80.1149197,29.1599974 79.9041737,29.4916356 79.6600456,29.8716588 L80.2039387,30.4969665 L77.8456074,32.7213283 C76.8755017,32.4290028 75.8639213,32.0214272 75.2957502,30.630025 C75.1763837,31.427368 75.0893878,32.0076509 74.995648,32.6336307 L74.0916322,32.6336307 C73.9328141,32.2206789 73.7935532,31.8577921 73.6512575,31.4871771 L72.5685292,32.174646 L71.627085,31.4717208 L70.1002728,32.8829473 C69.3304601,31.9377616 68.793648,31.0910257 68.0734027,30.4482456 C67.3744006,29.8242819 65.913004,30.4274132 65.5812056,28.8239911 C65.7093391,28.6260834 65.9221082,28.2974692 66.2535694,27.7864036 L64.1393662,27.6782096 L65.1823057,28.8471755 C64.379448,28.8061828 63.7134908,28.9560416 63.2619887,28.712773 C62.2038031,28.1836069 61.0862647,27.7816132 59.9328773,27.5152465 C58.8646688,27.2483846 57.7764382,27.0685879 56.6789601,26.9776364 C55.6980642,26.8734745 54.7468414,26.5005075 53.7662827,26.3889534 C52.7300871,26.2706791 51.6487075,26.4527946 50.6347667,26.2585829 C49.736146,26.0865477 48.897883,25.5791782 48.0430975,25.2243555 Z" id="Shape" transform="translate(41.144624, 20.441474) rotate(-12.000000) translate(-41.144624, -20.441474) "></path>
                                </g>
                            </g>
                        </g>
                    </g>
                </g>
            </g>
        </g>
    </g>
</svg>