<svg width="101" height="20" xmlns="http://www.w3.org/2000/svg"><path d="M8.996 18.706l-2.092-.332-.887-1.99-.96.624-2.153-1.703.007-1.791-1.344.505-.942-3.133.936-.16.215-1.359c1.653-.288 3.057-1.459 4.758-.713.295-1.188 1.459-1.41 2.182-1.455 1.716-.106 3.313-1.192 4.877-.975 1.825.253 3.364-.529 5.02-.73 1.986-.242 4.035-.513 6.034-.942 1.952-.417 4.032-1.039 6.131-.637 3.642-1.407 7.553-1.014 11.32-1.546 2.936-.414 5.928-1.034 8.98-.778 1.062.09 2.236-.84 3.075.938C55.18 1.198 56.243.541 57.8.842a9.9 9.9 0 003.396-.05C64.1.318 67.025.483 69.94.35c2.676-.123 5.371.116 8-.044 3.543-.215 6.824.847 10.237 1.167.602.056 1.136.637 1.748.827.662.207 1.599.01 2.015.408.54.517 1.048.208 1.526.384.708.26 1.392.583 2.227.94.23.613 1.273 1.01 1.094 2.12-.044.28.404.899.669.925 2.006.2 2.207 1.911 2.848 3.428-.092 2.74-1.697 4.416-4.4 5.18a4.11 4.11 0 01-1.094.19c-1.433 0-2.917-.282-4.285.004-1.506.315-2.882.053-4.313-.136-1.373-.182-2.924-.826-4.076-.399-1.28.477-2.583-.807-3.637.38-.772-1.126-1.919.193-2.768-.425-1.123.694-2.28.043-3.406.116-1.043.068-2.102.035-3.109.137-3.304.297-6.624.36-9.937.186-1.607 1.013-3.368-.468-5.057.383-1.45.73-3.166.283-4.73.378-1.774.107-3.619.112-5.428.12-1.69.009-3.381.207-5.085.252-2.512.068-5.004.758-7.56.545-1.26 1.085-2.763-.262-4.182.493-1.192.634-2.79.521-4.112.524-3.229.006-6.255 1.1-9.423 1.281-.751.043-1.5.097-2.37.153l.01-2.184-2.347 1.024z" fill="#DF5A49" fill-rule="nonzero"/></svg>