<svg width="113" height="11" xmlns="http://www.w3.org/2000/svg"><path d="M9.47 7.533L3.144 5.838C.591 4.536-.543 3.518.167 2.63l3.62.467C1.025 1.16 7.78 2.515 6.961 1.355c4.056-.263 9.485.184 13.073-.239.647-.02 1.395.007 2.223.08 5.233.199 10.03.176 14.334-.068 3.136-.103 6.54-.083 10.186.06 3.953.155 7.423.066 10.32-.264a19.07 19.07 0 012.217.078c2.963.107 6.306.384 8.759.265 1.977-.095 4.51.122 6.685.151 3.753.049 8.229.453 12.435.726 4.234.275 8.395.506 12.82.894 1.842.161 4.285.68 6.542 1.052l5.69 3.202c1.077.8-2.986-.03-4.058.287l1.464.89-2.617 1.66c-7.3.046-15.113.282-23.758.143-4.225-.07-8.014.071-11.31.42-2.37.257-6.091-.043-9.114-.045-8.005-.005-16.209-.052-25.45-.719-8.673-.625-16.21-.566-27.932-2.395z" fill="#DF5A49" fill-rule="nonzero"/></svg>