<?xml version="1.0" encoding="UTF-8"?>
<svg width="58px" height="11px" viewBox="0 0 58 11" version="1.1" xmlns="http://www.w3.org/2000/svg" xmlns:xlink="http://www.w3.org/1999/xlink">
    <title>r_line3</title>
    <g id="Page-1" stroke="none" stroke-width="1" fill="none" fill-rule="evenodd">
        <g id="Print4Life---Landingpage-Copy-8" transform="translate(-1158.000000, -524.000000)" fill="#DF5A49" fill-rule="nonzero">
            <g id="Group-25" transform="translate(-11.000000, 88.000000)">
                <g id="Group-26" transform="translate(1125.000000, 190.000000)">
                    <g id="Group-23" transform="translate(0.250000, 39.166117)">
                        <g id="Group-15">
                            <g id="Group-29" transform="translate(4.754630, 97.322346)">
                                <g id="r_line3" transform="translate(38.648573, 102.024830)">
                                    <path d="M52.4936377,5.41487 L53.7201727,5.41487 L54.4074982,6.38567261 L54.8993696,5.97827162 L56.2851156,6.69292085 L56.4430322,7.63333813 L57.1656764,7.25666196 L57.988359,8.82176076 L57.4674561,8.9835329 L57.4674561,9.71447817 C56.5484332,10.0030539 55.851862,10.7341689 54.8115355,10.4841265 C54.7505138,11.1320638 54.1053487,11.3451006 53.695764,11.4287876 C52.7244105,11.627056 51.9094942,12.3298228 50.9960187,12.3454398 C49.9296193,12.3646216 49.1204354,12.9025606 48.1921668,13.145813 C47.0780596,13.4377837 45.9310377,13.7506337 44.8267309,14.1413991 C43.748682,14.5228283 42.6158984,15.021555 41.3791932,14.9852284 C39.4240968,16.0259682 37.1526125,16.145133 35.0466263,16.7370527 C33.4056989,17.1982645 31.7512728,17.7725302 29.9829396,17.8913555 C29.3679155,17.9327746 28.7809982,18.5179042 28.1399012,17.6547234 C27.6735479,18.4388005 27.1250928,18.8714943 26.2084738,18.8429763 C25.5481716,18.8425345 24.8927505,18.9468239 24.2711292,19.151243 C22.6522066,19.6418217 20.9654206,19.7981618 19.3104397,20.1106723 C17.7917405,20.3975505 16.2292167,20.4961755 14.7410284,20.7986708 C12.734341,21.2060717 10.7622325,20.9214003 8.78161803,21.0371701 C8.4326852,21.0577099 8.07450667,20.7973128 7.70763717,20.7485944 C7.31044177,20.6949533 6.79249748,20.8760769 6.51845485,20.7015735 C6.16341985,20.475466 5.90065697,20.6798455 5.61108155,20.6272228 C5.1830055,20.5494772 4.76251093,20.4367629 4.25307269,20.3192956 C4.06520001,20.0162911 3.43334866,19.8949196 3.43501289,19.2972284 C3.43501289,19.147169 3.12306287,18.8594421 2.96902945,18.8675901 C1.80407087,18.9292095 1.53391143,18.0485443 1.03002062,17.3058863 C0.834751368,15.8609708 1.60066541,14.8479003 3.07701927,14.2227096 C3.26927863,14.1340644 3.47374622,14.0697654 3.68483178,14.0315706 C4.5043709,13.9127453 5.37845966,13.9375289 6.13494308,13.673567 C6.96705636,13.3834636 7.77790451,13.4062101 8.6127915,13.3866888 C9.41439395,13.3678465 10.3596746,13.5771488 10.9796915,13.2571692 C11.6688662,12.9006934 12.529826,13.4657925 13.0246561,12.7558963 C13.5679336,13.2821226 14.1041844,12.4948202 14.6459825,12.7484273 C15.2251334,12.2912894 15.9457435,12.5367485 16.5829573,12.4045129 C17.1728332,12.2821229 17.7812004,12.2116765 18.3477771,12.0745181 C20.2098602,11.6439337 22.1029025,11.3352867 24.0126194,11.1509061 C24.8393701,10.4859938 25.9808446,11.1169561 26.8691718,10.5301289 C27.6317574,10.0261399 28.6535925,10.1184841 29.538961,9.93854871 C30.5439689,9.73484822 31.5983489,9.57901734 32.6322034,9.42403521 C33.5974548,9.27940786 34.5466187,9.03496727 35.5168627,8.86946062 C36.9469881,8.62535953 38.309065,8.05635615 39.7893021,7.95569416 C40.4119077,7.28127577 41.3930617,7.86334993 42.1364163,7.34917594 C42.7603163,6.91784014 43.6837771,6.84416847 44.4398907,6.7328122 C46.285333,6.46121154 47.9162751,5.63571529 49.7116057,5.27720242 C50.136908,5.19232722 50.560731,5.10185025 51.0529723,5 C51.1182469,5.39042595 51.1672492,5.68426391 51.2445432,6.14700353 L52.4936377,5.41487 Z" id="Shape-Copy" transform="translate(29.494180, 13.019161) rotate(-171.000000) translate(-29.494180, -13.019161) "></path>
                                </g>
                            </g>
                        </g>
                    </g>
                </g>
            </g>
        </g>
    </g>
</svg>