<?xml version="1.0" encoding="UTF-8"?>
<svg width="117px" height="27px" viewBox="0 0 117 27" version="1.1" xmlns="http://www.w3.org/2000/svg" xmlns:xlink="http://www.w3.org/1999/xlink">
    <title>r_line4</title>
    <g id="Page-1" stroke="none" stroke-width="1" fill="none" fill-rule="evenodd">
        <g id="Print4Life---Landingpage-Copy-8" transform="translate(-1264.000000, -517.000000)" fill="#DF5A49" fill-rule="nonzero">
            <g id="Group-25" transform="translate(-11.000000, 88.000000)">
                <g id="Group-26" transform="translate(1125.000000, 190.000000)">
                    <g id="Group-23" transform="translate(0.250000, 39.166117)">
                        <g id="Group-15">
                            <g id="Group-29" transform="translate(4.754630, 97.322346)">
                                <g id="r_line4" transform="translate(143.018579, 88.355455)">
                                    <path d="M106.676046,9.99541309 L109.145521,9.99541309 L110.529366,12.324696 L111.519688,11.3472036 L114.309716,13.0618882 L114.627661,15.3182665 L116.082615,14.4144933 L117.738985,18.1696932 L116.690211,18.5578392 L116.690211,20.3116235 C114.839873,21.0040139 113.437413,22.7582055 111.342845,22.1582695 C111.219985,23.7128897 109.921025,24.2240368 109.096378,24.42483 C107.140678,24.900543 105.499945,26.5867173 103.660776,26.6241879 C101.513713,26.6702115 99.8845216,27.9609087 98.0155681,28.5445532 C95.7724515,29.2450894 93.4630653,29.9957221 91.2396808,30.9333002 C89.069163,31.8484775 86.788444,33.0450911 84.2984916,32.9579313 C80.3621478,35.4550171 75.7887962,35.7409336 71.5486544,37.1611486 C68.2448509,38.2677515 64.9138694,39.6456085 61.3535501,39.9307104 C60.1152754,40.0300888 58.9335904,41.4340123 57.6428211,39.3629502 C56.7038767,41.2442158 55.5996305,42.2823942 53.7541319,42.2139697 C52.4246955,42.2129098 51.1050863,42.4631353 49.8535291,42.9536056 C46.5940295,44.1306694 43.1978952,44.5057821 39.8657968,45.2556002 C36.8080846,45.9439178 33.6621369,46.1805524 30.6658544,46.9063405 C26.6256385,47.8838329 22.655043,47.2008101 18.6673217,47.4785809 C17.9647887,47.5278628 17.2436407,46.9030822 16.5049946,46.7861904 C15.7052909,46.6574872 14.6624744,47.0920641 14.1107236,46.6733715 C13.3959047,46.1308632 12.8668643,46.6212386 12.2838401,46.4949791 C11.4219622,46.308441 10.5753486,46.0380014 9.54965793,45.7561578 C9.1713996,45.0291478 7.89924538,44.7379366 7.90259609,43.3038737 C7.90259609,42.9438307 7.27452346,42.2534767 6.96439631,42.2730266 C4.61889686,42.4208723 4.07496437,40.3078596 3.06044278,38.5259724 C2.6672924,35.0591327 4.20936521,32.6284349 7.18182039,31.1283914 C7.56891075,30.9157016 7.98058084,30.7614267 8.40557542,30.6697845 C10.0556157,30.3846826 11.8154849,30.4441467 13.3385703,29.8108131 C15.013927,29.1147571 16.6464691,29.1693337 18.3274104,29.1224955 C19.9413374,29.0772865 21.8445427,29.5794732 23.0928696,28.8117344 C24.4804373,27.9564286 26.2138731,29.312292 27.2101519,27.6090115 C28.3039737,28.8716058 29.383648,26.9826018 30.4744914,27.5910908 C31.6405397,26.4942629 33.0913987,27.083202 34.3743496,26.7659243 C35.5619914,26.4722693 36.7868634,26.3032446 37.9275952,25.9741554 C41.6766682,24.9410383 45.4880739,24.20049 49.3330516,23.7580987 C50.9976116,22.1627497 53.2958288,23.676641 55.0843652,22.2686447 C56.6197366,21.0594051 58.6770747,21.2809701 60.4596542,20.8492443 C62.4831129,20.3604981 64.6059761,19.9866072 66.6875137,19.6147528 C68.6309276,19.267743 70.5419512,18.6812476 72.4954171,18.2841413 C75.3747969,17.6984605 78.1171698,16.3332294 81.0974433,16.0917073 C82.3509824,14.4735501 84.3264142,15.8701424 85.8230662,14.6364655 C87.0792115,13.6015455 88.9384852,13.4247822 90.460826,13.157601 C94.176395,12.5059394 97.4600942,10.5252954 101.074769,9.66510212 C101.931063,9.46145787 102.784378,9.2443731 103.775445,9 C103.906867,9.93676355 104.005527,10.6417799 104.161149,11.7520484 L106.676046,9.99541309 Z" id="Shape" transform="translate(60.369492, 28.240672) rotate(-171.000000) translate(-60.369492, -28.240672) "></path>
                                </g>
                            </g>
                        </g>
                    </g>
                </g>
            </g>
        </g>
    </g>
</svg>