<svg width="117" height="27" xmlns="http://www.w3.org/2000/svg"><path d="M9.802 24.861l-2.439-.386-1.002-2.517-1.131.81-2.488-2.13.039-2.278-1.578.665-1.049-3.968 1.097-.22.274-1.731c1.936-.395 3.595-1.908 5.57-.988.365-1.516 1.728-1.818 2.574-1.887 2.006-.164 3.89-1.573 5.713-1.322 2.127.29 3.938-.73 5.876-1.014 2.325-.34 4.723-.72 7.066-1.299 2.287-.564 4.727-1.39 7.172-.914 4.279-1.85 8.84-1.417 13.25-2.157 3.437-.576 6.942-1.416 10.503-1.14 1.24.095 2.626-1.107 3.577 1.14 1.221-1.71 2.474-2.563 4.287-2.207 1.312.21 2.655.169 3.968-.12C74.484.545 77.897.706 81.306.487c3.127-.202 6.272.057 9.345-.192 4.143-.333 7.958.963 11.94 1.312.702.061 1.316.791 2.027 1.022.77.253 1.868-.014 2.347.486.622.648 1.22.246 1.777.462.822.32 1.616.719 2.585 1.158.26.777 1.47 1.264 1.243 2.68-.056.355.456 1.135.765 1.164 2.34.221 2.547 2.393 3.27 4.312-.154 3.486-2.057 5.645-5.228 6.662-.415.15-.846.237-1.28.261-1.674.024-3.403-.31-5.007.077-1.763.425-3.367.116-5.035-.1-1.601-.208-3.402-1.002-4.755-.44-1.505.629-3.005-.982-4.255.545-.883-1.418-2.245.278-3.227-.493-1.323.9-2.664.092-3.98.205-1.22.104-2.456.08-3.634.226-3.865.434-7.745.569-11.612.404-1.894 1.316-3.927-.539-5.913.572-1.706.954-3.703.413-5.532.56-2.075.167-4.23.204-6.344.246-1.974.039-3.953.319-5.944.406-2.936.128-5.858 1.047-8.84.82-1.49 1.402-3.223-.287-4.895.697-1.402.826-3.266.71-4.812.736-3.771.062-7.325 1.505-11.03 1.789-.877.067-1.754.148-2.77.234l.049-2.778-2.759 1.341z" fill="#DF5A49" fill-rule="nonzero"/></svg>