<svg width="82" height="14" xmlns="http://www.w3.org/2000/svg"><path d="M48.867 10.98l-.364.558-1.729-1.723-.212 1.597c-.933.081-2.121.55-2.875.168-1.223-.62-1.649.73-2.623.603-.883-.116-1.996.522-2.692.184-1.135-.551-2.027.082-3.015.043a26.039 26.039 0 01-2.968-.45l-1.79 1.01-1.556-1.844-.189 2.032c-3.193-1.026-6.409.624-9.56-.2l-.588-1.28-.185 1.511-2.426-.116-.543-1.643-.635.7-1.412-.366-.298 1.4c-.796-.338-1.593-.68-2.536-1.082l-.456-1.374-1.948 1.554c-1.423-1.339-3.8-1.595-4.946-3.559l.53-.902c-.72-.466-.958-.243-1.306 1.223-.195.066-.394.119-.597.157-.084.011-.181-.077-.488-.22l.332-1.617L.654 5.61l2.01.279L1.63 3.797l2.779.604-.41.793 1.92.512-.442-2.082 1.736-1.4 4.898.909c.627-.413 3.32-.633 4.624-.348l.605-.838 2.25.536-.436.776c.16.072.396.265.493.21 1.105-.619 2.027-1.755 3.57-.83.286.172 1.036-.415 1.567-.66C27.215.856 29.636.72 32.048 1.934c.454-.234.927-.609 1.452-.71.618-.12 1.72.23 1.853-.022.692-1.306 1.463-.059 2.157-.197A4.755 4.755 0 0139.6.948c1.325.291 2.778.104 4.166-.014a78.68 78.68 0 0113.986.05c3.611.336 7.247.473 10.802 1.19 2.395.483 4.966.856 7.017 2.038 1.854 1.066 3.961 1.911 5.6 3.646-.115.303-.252.672-.412 1.094l.662.499-1.844 2.666c-1.01-.084-2.084-.273-2.929-1.516.05.805.085 1.39.123 2.023l-.884.188-.67-1.03-.915.897-1.067-.492-1.2 1.698c-.95-.764-1.651-1.48-2.49-1.96-.813-.465-2.117.429-2.775-1.07l.442-1.155-2.09.334 1.263.926c-.794.127-1.414.412-1.906.268a14.98 14.98 0 00-3.506-.48c-1.1-.038-2.202.012-3.294.151-.981.102-1.99-.065-2.972.03-1.038.1-2.058.503-3.09.524-.915.018-1.84-.304-2.75-.473z" fill="#DF5A49" fill-rule="nonzero"/></svg>