<svg version="1.1" id="Ebene_1" xmlns="http://www.w3.org/2000/svg" x="0" y="0" viewBox="0 0 15640.3 3000" xml:space="preserve"><style>.st0{fill:none;stroke:#df5a49;stroke-width:5;stroke-miterlimit:10}</style><path class="st0" d="M10353.3 644.7c-44.4 1-90.1 12.7-130.2 45.3-107 87-171.2 129.1-325.4 29.5-154.2-99.5-369.2 48.5-587.2-56.5-218-105-315 94-441 94s-134-76.9-260-76.9-121.6 78.9-271 110.9c-132.4 28.4-192.9-22.9-266-66-236.2-139.5-390.4 0-390.4 0-72 44.9-133.6 94.4-266 66-149.4-32.1-145-110.9-271-110.9s-134 76.9-260 76.9-223-199-441-94-433-43-587.2 56.6c-154.2 99.6-218.4 57.5-325.4-29.5-42.8-34.8-92-45.7-139.1-45.3h-.3c-44.4 1-90.1 12.7-130.2 45.3-107 87-171.2 129.1-325.4 29.5-154.1-99.6-369.1 48.4-587.1-56.6s-315 94-441 94-134-76.9-260-76.9-121.6 78.9-271 110.9c-132.4 28.4-192.9-22.9-266-66-236.2-139.5-390.4 0-390.4 0-72 44.9-133.6 94.4-266 66-149.4-32.1-145-111-271-111s-134 76.9-260 76.9-223-199-441-94-433-43-587.2 56.6C741.6 819.1 677.4 777 570.4 690c-42.8-34.8-92-45.7-139.1-45.3M10353.3 1946.1c-44.4-1-90.1-12.7-130.2-45.3-107-87-171.2-129.1-325.4-29.5s-369.2-48.4-587.2 56.6c-218 105-315-94-441-94s-134 76.9-260 76.9-121.6-78.9-271-110.9c-132.4-28.4-192.9 22.9-266 66-236.2 139.5-390.4 0-390.4 0-72-44.9-133.6-94.4-266-66-149.4 32.1-145 110.9-271 110.9s-134-76.9-260-76.9-223 199-441 94-433 43-587.2-56.6c-154.2-99.6-218.4-57.5-325.4 29.5-42.8 34.8-92 45.7-139.1 45.3h-.3c-44.4-1-90.1-12.7-130.2-45.3-107-87-171.2-129.1-325.4-29.5s-369.2-48.4-587.2 56.6c-218 105-315-94-441-94s-134 76.9-260 76.9-121.6-78.9-271-110.9c-132.4-28.4-192.9 22.9-266 66-236.2 139.5-390.4 0-390.4 0-72-44.9-133.6-94.4-266-66-149.4 32.1-145 110.9-271 110.9s-134-76.9-260-76.9-223 199-441 94-433 43-587.2-56.6c-154.2-99.6-218.4-57.5-325.4 29.5-42.8 34.8-92 45.7-139.1 45.3M13268.2 1510.5c-57.5-1.8-116.7-21.6-168.7-77.2-138.6-148.2-221.9-219.9-421.7-50.3-199.8 169.6-478.4-82.5-760.9 96.4s-408.2-160.1-571.4-160.1c-163.3 0-173.6 131.1-336.9 131.1-163.3 0-157.6-134.4-351.2-189-171.5-48.4-250 38.9-344.7 112.4-306.1 237.5-505.8 0-505.8 0-93.3-76.6-173.1-160.8-344.7-112.4-193.6 54.6-187.9 189-351.2 189-163.3 0-173.6-131.1-336.9-131.1-163.3 0-289 339-571.4 160.1-282.5-178.9-561.1 73.2-760.9-96.4-199.8-169.6-283-97.9-421.7 50.3-55.5 59.3-119.2 77.8-180.3 77.2h-.3c-57.5-1.8-116.7-21.6-168.7-77.2-138.6-148.2-221.9-219.9-421.7-50.3-199.8 169.6-478.4-82.5-760.9 96.4s-408.2-160.1-571.4-160.1c-163.3 0-173.6 131.1-336.9 131.1-163.3 0-157.6-134.4-351.2-189-171.5-48.4-250 38.9-344.7 112.4-306.1 237.5-505.8 0-505.8 0-93.3-76.6-173.1-160.8-344.7-112.4-193.6 54.6-187.9 189-351.2 189-163.3 0-173.6-131.1-336.9-131.1-163.3 0-289 339-571.4 160.1-282.5-178.9-561.1 73.2-760.9-96.4-199.8-169.6-283-97.9-421.7 50.3-55.5 59.3-119.2 77.8-180.3 77.2"/></svg>