<?xml version="1.0" encoding="utf-8"?>
<!-- Generator: Adobe Illustrator 24.1.0, SVG Export Plug-In . SVG Version: 6.00 Build 0)  -->
<svg version="1.1" id="Ebene_1" xmlns="http://www.w3.org/2000/svg" xmlns:xlink="http://www.w3.org/1999/xlink" x="0px" y="0px"
	 viewBox="0 0 131.7 143.6" style="enable-background:new 0 0 131.7 143.6;" xml:space="preserve">
<style type="text/css">
	.st0{fill:#5286A4;}
	.st1{display:none;fill:#DE5C47;}
	.st2{fill:#DE5C47;}
	.st3{fill:#40B39F;}
	.st4{fill:#FFFFFF;}
	.st5{fill:none;}
</style>
<g>
	<path class="st0" d="M1.6,143.5c-0.9,0-1.4-0.3-1.4-0.8v-23.6c0-0.7,0.3-1.1,1-1.1h6c0.6,0,1.3,0.1,2.1,0.3c0.8,0.2,1.5,0.5,2.2,1
		c0.7,0.5,1.3,1.2,1.7,2.2c0.4,0.9,0.7,2.2,0.7,3.7c0,1.3-0.2,2.4-0.5,3.3c-0.3,0.9-0.8,1.6-1.3,2.2c-0.5,0.5-1.1,1-1.7,1.3
		c-0.6,0.3-1.1,0.5-1.6,0.6c-0.5,0.1-0.9,0.1-1.2,0.1h-4v10.1c0,0.5-0.5,0.8-1.4,0.8H1.6z M3.5,129.9h3.8c0.4,0,0.8-0.1,1.3-0.4
		c0.5-0.2,0.9-0.7,1.3-1.4c0.4-0.7,0.5-1.7,0.5-3c0-1.2-0.2-2.1-0.5-2.7c-0.4-0.6-0.8-1-1.3-1.3c-0.5-0.2-1-0.3-1.5-0.3H3.5V129.9z"
		/>
	<path class="st0" d="M18.1,143.5c-1,0-1.5-0.3-1.5-0.8v-12.8c0-1,0-1.8-0.1-2.5c-0.1-0.7-0.1-1.1-0.2-1.5s-0.1-0.5-0.1-0.6
		c0-0.2,0.1-0.3,0.2-0.4c0.2-0.1,0.3-0.2,0.6-0.3c0.2-0.1,0.4-0.1,0.7-0.1c0.2,0,0.4,0,0.5,0c0.3,0,0.5,0.1,0.7,0.4
		c0.2,0.3,0.3,0.6,0.4,1c0.1,0.4,0.2,0.7,0.2,1.1c0.6-0.9,1.2-1.5,1.8-2c0.6-0.5,1.3-0.7,2-0.7c0.4,0,0.8,0.1,1.1,0.2
		c0.3,0.1,0.5,0.3,0.6,0.5c0.1,0.2,0.2,0.5,0.2,0.7c0,0.2,0,0.5-0.1,0.8c-0.1,0.3-0.1,0.6-0.3,0.8s-0.2,0.3-0.4,0.3
		c-0.2,0-0.4-0.1-0.7-0.2c-0.2-0.1-0.6-0.2-1.1-0.2c-0.5,0-0.9,0.1-1.3,0.4c-0.4,0.3-0.8,0.6-1.1,1c-0.3,0.4-0.5,0.6-0.5,0.8v13.3
		c0,0.5-0.5,0.8-1.5,0.8H18.1z"/>
	<path class="st0" d="M29,121.4c-0.6,0-1-0.1-1.2-0.2c-0.3-0.1-0.4-0.3-0.4-0.6v-1.9c0-0.2,0.1-0.4,0.4-0.6c0.3-0.1,0.7-0.2,1.3-0.2
		c0.6,0,1,0.1,1.2,0.2c0.3,0.1,0.4,0.3,0.4,0.6v1.9c0,0.2-0.1,0.4-0.4,0.6C30.1,121.4,29.6,121.4,29,121.4z M28.9,143.5
		c-1,0-1.5-0.3-1.5-0.8v-17.5c0-0.5,0.5-0.8,1.5-0.8h0.1c1,0,1.5,0.3,1.5,0.8v17.5c0,0.5-0.5,0.8-1.5,0.8H28.9z"/>
	<path class="st0" d="M37.8,143.5c-0.9,0-1.3-0.3-1.3-0.8v-12.8c0-1,0-1.8-0.1-2.5c-0.1-0.7-0.1-1.1-0.2-1.5
		c-0.1-0.3-0.1-0.5-0.1-0.6c0-0.2,0.1-0.3,0.3-0.4c0.2-0.1,0.4-0.2,0.6-0.3c0.2-0.1,0.5-0.1,0.7-0.1c0.2,0,0.4,0,0.5,0
		c0.5,0,0.7,0.3,0.9,0.8s0.2,1.1,0.3,1.7c0.5-0.8,1.2-1.5,2-2c0.8-0.5,1.7-0.7,2.6-0.7c1.5,0,2.7,0.5,3.5,1.5c0.8,1,1.2,2.4,1.2,4.2
		v12.8c0,0.2-0.1,0.4-0.3,0.6c-0.2,0.1-0.6,0.2-1.1,0.2h-0.4c-0.5,0-0.8-0.1-1.1-0.2c-0.2-0.1-0.3-0.3-0.3-0.6v-12.5
		c0-1-0.2-1.9-0.6-2.4c-0.4-0.6-1.1-0.9-1.9-0.9c-0.7,0-1.3,0.2-1.9,0.7c-0.6,0.5-1.1,1.1-1.4,1.8v13.3c0,0.5-0.5,0.8-1.4,0.8H37.8z
		"/>
	<path class="st0" d="M59,143.7c-0.6,0-1.1-0.1-1.8-0.3c-0.6-0.2-1.2-0.6-1.6-1.3c-0.4-0.6-0.7-1.6-0.7-2.8v-12.2h-1.2
		c-0.5,0-0.7-0.4-0.7-1.1v-0.4c0-0.7,0.2-1.1,0.7-1.1H55l0.4-3.8c0-0.5,0.4-0.8,1.2-0.8h0.4c0.7,0,1.1,0.3,1.1,0.8v3.8h2.4
		c0.5,0,0.7,0.4,0.7,1.1v0.4c0,0.7-0.2,1.1-0.7,1.1H58v11.7c0,0.9,0.1,1.6,0.4,1.9c0.3,0.3,0.6,0.4,1,0.4c0.4,0,0.6,0,0.8-0.1
		c0.2-0.1,0.3-0.1,0.4-0.1c0.2,0,0.3,0.1,0.4,0.4c0.1,0.2,0.2,0.5,0.3,0.8c0.1,0.3,0.1,0.5,0.1,0.6c0,0.3-0.1,0.5-0.4,0.7
		c-0.3,0.1-0.6,0.2-1,0.3C59.6,143.7,59.3,143.7,59,143.7z"/>
	<path class="st0" d="M75.1,143.5c-0.7,0-1.1-0.3-1.1-0.8v-5.3h-9c-0.1,0-0.3-0.1-0.4-0.3c-0.1-0.2-0.3-0.5-0.3-0.7
		c-0.1-0.3-0.1-0.5-0.1-0.8c0-0.1,0-0.2,0-0.2c0-0.1,0-0.1,0.1-0.2l9.7-16.7c0.1-0.2,0.3-0.3,0.5-0.4c0.2-0.1,0.5-0.1,0.7-0.1H76
		c0.7,0,1.1,0.3,1.1,0.8v16h2c0.5,0,0.7,0.4,0.7,1.1v0.4c0,0.7-0.2,1.1-0.7,1.1h-2v5.3c0,0.5-0.4,0.8-1.1,0.8H75.1z M67.5,134.8H74
		v-7.3c0-1.1,0-1.9,0.1-2.6s0.1-1.3,0.2-1.9l-0.1-0.1L67.5,134.8z"/>
	<path class="st0" d="M85.5,143.5c-0.7,0-1-0.4-1-1.1v-23.6c0-0.2,0.1-0.4,0.3-0.6c0.2-0.1,0.6-0.2,1.1-0.2h0.5
		c0.5,0,0.8,0.1,1.1,0.2c0.2,0.1,0.3,0.3,0.3,0.6v21.9h7.6c0.5,0,0.7,0.4,0.7,1.1v0.6c0,0.7-0.2,1.1-0.7,1.1H85.5z"/>
	<path class="st0" d="M100.7,121.4c-0.6,0-1-0.1-1.2-0.2s-0.4-0.3-0.4-0.6v-1.9c0-0.2,0.1-0.4,0.4-0.6c0.3-0.1,0.7-0.2,1.3-0.2
		c0.6,0,1,0.1,1.2,0.2c0.3,0.1,0.4,0.3,0.4,0.6v1.9c0,0.2-0.1,0.4-0.4,0.6S101.4,121.4,100.7,121.4z M100.7,143.5
		c-1,0-1.5-0.3-1.5-0.8v-17.5c0-0.5,0.5-0.8,1.5-0.8h0.1c1,0,1.5,0.3,1.5,0.8v17.5c0,0.5-0.5,0.8-1.5,0.8H100.7z"/>
	<path class="st0" d="M110.3,143.5c-1,0-1.5-0.3-1.5-0.8v-15.6h-1.1c-0.5,0-0.7-0.4-0.7-1.1v-0.4c0-0.7,0.2-1.1,0.7-1.1h1.1v-3.8
		c0-1.3,0.2-2.3,0.7-3s1-1.1,1.7-1.3c0.7-0.2,1.2-0.3,1.7-0.3c0.4,0,0.7,0,1.1,0.1c0.4,0.1,0.7,0.2,1,0.4c0.3,0.2,0.4,0.4,0.4,0.6
		c0,0.1,0,0.3-0.1,0.6s-0.1,0.5-0.3,0.8c-0.1,0.2-0.3,0.4-0.5,0.4c-0.1,0-0.3,0-0.5-0.1c-0.2-0.1-0.4-0.1-0.8-0.1
		c-0.4,0-0.7,0.1-1,0.4s-0.5,0.9-0.5,1.9v3.6h2.4c0.5,0,0.7,0.4,0.7,1.1v0.4c0,0.7-0.2,1.1-0.7,1.1h-2.4v15.6c0,0.5-0.5,0.8-1.5,0.8
		H110.3z"/>
	<path class="st0" d="M125.8,143.7c-2.6,0-4.5-0.8-5.7-2.4c-1.2-1.6-1.9-4-1.9-7.2c0-2.1,0.3-3.9,0.8-5.4c0.5-1.5,1.3-2.6,2.4-3.3
		c1.1-0.8,2.4-1.1,4-1.1c2.1,0,3.7,0.8,4.8,2.4c1.1,1.6,1.6,4,1.6,7.1c0,0.1-0.1,0.3-0.2,0.6c-0.1,0.2-0.3,0.5-0.5,0.6
		c-0.2,0.2-0.4,0.3-0.5,0.3h-9c0.1,2,0.5,3.5,1.1,4.4c0.6,0.9,1.7,1.4,3.1,1.4c0.9,0,1.7-0.1,2.2-0.4c0.6-0.3,1-0.5,1.3-0.8
		c0.3-0.3,0.5-0.4,0.7-0.4c0.2,0,0.4,0.1,0.5,0.4c0.2,0.2,0.4,0.5,0.5,0.8c0.1,0.3,0.2,0.5,0.2,0.7c0,0.2-0.1,0.5-0.4,0.7
		c-0.3,0.3-0.7,0.5-1.2,0.8c-0.5,0.2-1.1,0.4-1.7,0.6C127.3,143.6,126.5,143.7,125.8,143.7z M121.4,132.6h7c0-1.9-0.3-3.3-0.8-4.3
		c-0.5-1-1.3-1.4-2.4-1.4c-1.2,0-2.1,0.5-2.7,1.4C121.9,129.3,121.5,130.7,121.4,132.6z"/>
</g>
<g>
	<g>
		<g>
			<path class="st1" d="M123,57v-5.1h-11.1v-18v-0.2c0-6-3.1-11.6-8.2-14.7L74.1,0.9c-0.7-0.5-1.6-0.7-2.5-0.7h-5.7h-5.7
				c-0.9,0-1.7,0.2-2.5,0.7L28.1,19c-5.1,3.1-8.2,8.7-8.2,14.7v0.2v18H8.8c0,0,0,5,0,5.1c-2.9,0-5.9,0-8.8,0v2.6h45.5L56,18.1
				l14.1,57.6l4.5-16.1H129V57H123z"/>
			<path class="st2" d="M123,62.2v-2.6H74.6l-4.5,16.1L56,18.1L45.5,59.6H8.8v2.6H0v5h19.9v0.2c0,6,3.1,11.6,8.2,14.7l29.6,18.1
				c0.7,0.5,1.6,0.7,2.5,0.7h5.7h5.7c0.9,0,1.7-0.2,2.5-0.7l29.6-18.1c5.1-3.1,8.2-8.7,8.2-14.7v-0.2h19.7v-5H123z"/>
		</g>
		<path class="st3" d="M123,57v-5.1h-11.1v-18v-0.2c0-6-3.1-11.6-8.2-14.7L74.1,0.9c-0.7-0.5-1.6-0.7-2.5-0.7h-5.7h-5.7
			c-0.9,0-1.7,0.2-2.5,0.7L28.1,19c-5.1,3.1-8.2,8.7-8.2,14.7v0.2v18H8.8c0,0,0,5,0,5.1c0,0,0,0,0,0v2.6h36.7L56,18.1l14.1,57.6
			l4.5-16.1H123L123,57L123,57z"/>
		<path class="st4" d="M70.1,78.3C70.1,78.3,70.1,78.3,70.1,78.3c-1.2,0-2.2-0.8-2.5-2L56,28.8L48,60.2c-0.3,1.2-1.3,2-2.5,2H-0.1
			V57h43.6l10-39.5c0.3-1.2,1.3-2,2.5-2c0,0,0,0,0,0c1.2,0,2.2,0.8,2.5,2l11.7,48l1.8-6.5c0.3-1.1,1.3-1.9,2.5-1.9h57v5.2H76.6
			l-4,14.2C72.3,77.5,71.3,78.3,70.1,78.3z"/>
	</g>
	<rect x="0" y="16.9" class="st5" width="131.7" height="73.2"/>
</g>
</svg>
