<?xml version="1.0" encoding="utf-8"?>
<!-- Generator: Adobe Illustrator 24.1.2, SVG Export Plug-In . SVG Version: 6.00 Build 0)  -->
<svg version="1.1" id="Ebene_1" xmlns="http://www.w3.org/2000/svg" xmlns:xlink="http://www.w3.org/1999/xlink" x="0px" y="0px"
	 viewBox="0 0 132.2 151.6" style="enable-background:new 0 0 132.2 151.6;" xml:space="preserve">
<style type="text/css">
	.st0{display:none;fill:#DE5C47;}
	.st1{fill:#DE5C47;}
	.st2{fill:#40B39F;}
	.st3{fill:#FFFFFF;}
	.st4{fill:none;}
	.st5{fill:#5286A4;}
</style>
<g>
	<g>
		<g>
			<path class="st0" d="M123.2,57.1V52h-11.1V34v-0.2c0-6-3.1-11.6-8.2-14.7L74.3,1c-0.7-0.5-1.6-0.7-2.5-0.7h-5.7h-5.7
				c-0.9,0-1.7,0.2-2.5,0.7L28.3,19.1c-5.1,3.1-8.2,8.7-8.2,14.7V34v18H9c0,0,0,5,0,5.1c-2.9,0-5.9,0-8.8,0v2.6h45.5l10.5-41.5
				l14.1,57.6l4.5-16.1h54.4v-2.6H123.2z"/>
			<path class="st1" d="M123.2,62.3v-2.6H74.8l-4.5,16.1L56.2,18.2L45.7,59.7H9v2.6H0.2v5h19.9v0.2c0,6,3.1,11.6,8.2,14.7l29.6,18.1
				c0.7,0.5,1.6,0.7,2.5,0.7h5.7h5.7c0.9,0,1.7-0.2,2.5-0.7l29.6-18.1c5.1-3.1,8.2-8.7,8.2-14.7v-0.2h19.7v-5H123.2z"/>
		</g>
		<path class="st2" d="M123.2,57.1V52h-11.1V34v-0.2c0-6-3.1-11.6-8.2-14.7L74.3,1c-0.7-0.5-1.6-0.7-2.5-0.7h-5.7h-5.7
			c-0.9,0-1.7,0.2-2.5,0.7L28.3,19.1c-5.1,3.1-8.2,8.7-8.2,14.7V34v18H9c0,0,0,5,0,5.1c0,0,0,0,0,0v2.6h36.7l10.5-41.5l14.1,57.6
			l4.5-16.1h48.4L123.2,57.1L123.2,57.1z"/>
		<path class="st3" d="M70.3,78.4C70.3,78.4,70.3,78.4,70.3,78.4c-1.2,0-2.2-0.8-2.5-2L56.1,28.9l-7.9,31.4c-0.3,1.2-1.3,2-2.5,2
			H0.1v-5.2h43.6l10-39.5c0.3-1.2,1.3-2,2.5-2c0,0,0,0,0,0c1.2,0,2.2,0.8,2.5,2l11.7,48l1.8-6.5c0.3-1.1,1.3-1.9,2.5-1.9h57v5.2
			H76.8l-4,14.2C72.5,77.6,71.5,78.4,70.3,78.4z"/>
	</g>
	<rect x="0.2" y="17" class="st4" width="131.7" height="73.2"/>
</g>
<g>
	<path class="st5" d="M2,151.5c-0.9,0-1.4-0.3-1.4-0.8v-20.9c0-1,0-1.9-0.1-2.5c-0.1-0.7-0.1-1.2-0.2-1.5c-0.1-0.4-0.1-0.6-0.1-0.7
		c0-0.2,0.1-0.3,0.3-0.4c0.2-0.1,0.4-0.2,0.7-0.2c0.2-0.1,0.5-0.1,0.7-0.1c0.2,0,0.4,0,0.5,0c0.5,0,0.8,0.3,0.9,0.8
		c0.1,0.5,0.2,1.1,0.3,1.8c0.6-0.9,1.2-1.6,2-2.1c0.8-0.5,1.6-0.7,2.4-0.7c1.2,0,2.3,0.4,3.2,1.3c0.9,0.9,1.6,2,2,3.6
		c0.5,1.5,0.7,3.3,0.7,5.2c0,3.2-0.6,5.6-1.7,7.3S9.5,144,7.7,144c-0.9,0-1.7-0.2-2.3-0.5c-0.6-0.4-1.1-0.8-1.6-1.4v8.6
		c0,0.5-0.5,0.8-1.4,0.8H2z M7,141.2c1.2,0,2.1-0.6,2.7-1.8c0.6-1.2,0.9-3,0.9-5.3s-0.3-4.1-0.8-5.4c-0.6-1.3-1.4-2-2.5-2
		c-0.6,0-1.2,0.2-1.8,0.7c-0.6,0.4-1.1,1.1-1.6,1.9v10.2c0.4,0.6,0.9,1,1.4,1.3C5.8,141.1,6.3,141.2,7,141.2z"/>
	<path class="st5" d="M20.3,143.8c-1,0-1.5-0.3-1.5-0.8v-13.2c0-1,0-1.9-0.1-2.5c-0.1-0.7-0.1-1.2-0.2-1.5c-0.1-0.3-0.1-0.6-0.1-0.6
		c0-0.2,0.1-0.3,0.2-0.4c0.2-0.1,0.4-0.2,0.6-0.3c0.2-0.1,0.4-0.1,0.7-0.1c0.2,0,0.4,0,0.5,0c0.3,0,0.5,0.1,0.7,0.4
		c0.2,0.3,0.3,0.6,0.4,1s0.2,0.8,0.2,1.1c0.6-0.9,1.2-1.6,1.8-2.1c0.7-0.5,1.3-0.7,2.1-0.7c0.4,0,0.8,0.1,1.1,0.2
		c0.3,0.1,0.5,0.3,0.7,0.5c0.1,0.2,0.2,0.5,0.2,0.7c0,0.2,0,0.5-0.1,0.8c-0.1,0.3-0.1,0.6-0.3,0.8c-0.1,0.2-0.2,0.4-0.4,0.4
		c-0.2,0-0.4-0.1-0.7-0.2s-0.6-0.2-1.2-0.2c-0.5,0-1,0.1-1.4,0.4c-0.4,0.3-0.8,0.6-1.1,1c-0.3,0.4-0.5,0.6-0.6,0.8V143
		c0,0.5-0.5,0.8-1.5,0.8H20.3z"/>
	<path class="st5" d="M31.5,121.1c-0.6,0-1-0.1-1.2-0.2c-0.3-0.1-0.4-0.3-0.4-0.6v-1.9c0-0.2,0.1-0.4,0.4-0.6s0.7-0.2,1.3-0.2
		c0.6,0,1,0.1,1.2,0.2c0.3,0.1,0.4,0.3,0.4,0.6v1.9c0,0.2-0.1,0.4-0.4,0.6C32.6,121,32.1,121.1,31.5,121.1z M31.4,143.8
		c-1,0-1.5-0.3-1.5-0.8v-18c0-0.5,0.5-0.8,1.5-0.8h0.1c1,0,1.5,0.3,1.5,0.8v18c0,0.5-0.5,0.8-1.5,0.8H31.4z"/>
	<path class="st5" d="M40.5,143.8c-0.9,0-1.4-0.3-1.4-0.8v-13.2c0-1,0-1.9-0.1-2.5c-0.1-0.7-0.1-1.2-0.2-1.5
		c-0.1-0.3-0.1-0.6-0.1-0.6c0-0.2,0.1-0.3,0.3-0.4c0.2-0.1,0.4-0.2,0.7-0.3c0.2-0.1,0.5-0.1,0.7-0.1c0.2,0,0.4,0,0.5,0
		c0.5,0,0.8,0.3,0.9,0.8c0.1,0.5,0.2,1.1,0.3,1.7c0.5-0.9,1.2-1.6,2.1-2.1s1.7-0.7,2.6-0.7c1.5,0,2.7,0.5,3.6,1.5
		c0.8,1,1.3,2.5,1.3,4.3V143c0,0.2-0.1,0.4-0.3,0.6s-0.6,0.2-1.1,0.2h-0.4c-0.5,0-0.9-0.1-1.1-0.2s-0.4-0.3-0.4-0.6v-12.9
		c0-1.1-0.2-1.9-0.7-2.5c-0.4-0.6-1.1-0.9-2-0.9c-0.7,0-1.3,0.2-2,0.7c-0.6,0.5-1.1,1.1-1.5,1.9V143c0,0.5-0.5,0.8-1.4,0.8H40.5z"/>
	<path class="st5" d="M62.3,144c-0.6,0-1.2-0.1-1.8-0.3c-0.6-0.2-1.2-0.7-1.7-1.3c-0.5-0.6-0.7-1.6-0.7-2.9v-12.5h-1.2
		c-0.5,0-0.7-0.4-0.7-1.1v-0.4c0-0.7,0.2-1.1,0.7-1.1h1.2l0.4-3.9c0-0.5,0.4-0.8,1.2-0.8h0.4c0.7,0,1.1,0.3,1.1,0.8v3.9h2.5
		c0.5,0,0.7,0.4,0.7,1.1v0.4c0,0.7-0.2,1.1-0.7,1.1h-2.5v12c0,1,0.1,1.6,0.4,1.9c0.3,0.3,0.6,0.4,1,0.4c0.4,0,0.7,0,0.8-0.1
		c0.2-0.1,0.3-0.1,0.4-0.1c0.2,0,0.3,0.1,0.4,0.4c0.1,0.2,0.2,0.5,0.3,0.8c0.1,0.3,0.1,0.5,0.1,0.6c0,0.3-0.1,0.6-0.4,0.7
		s-0.6,0.2-1,0.3C63,143.9,62.6,144,62.3,144z"/>
	<path class="st5" d="M78.9,143.8c-0.7,0-1.1-0.3-1.1-0.8v-5.5h-9.2c-0.1,0-0.3-0.1-0.4-0.3c-0.1-0.2-0.3-0.5-0.4-0.8
		s-0.1-0.6-0.1-0.8c0-0.1,0-0.2,0-0.2c0-0.1,0-0.1,0.1-0.2l10-17.2c0.1-0.2,0.3-0.3,0.5-0.4c0.2-0.1,0.5-0.1,0.7-0.1h0.7
		c0.7,0,1.1,0.3,1.1,0.8v16.4h2.1c0.5,0,0.7,0.4,0.7,1.1v0.4c0,0.7-0.2,1.1-0.7,1.1h-2.1v5.5c0,0.5-0.4,0.8-1.1,0.8H78.9z M71,134.8
		h6.8v-7.5c0-1.1,0-2,0.1-2.6c0.1-0.7,0.1-1.3,0.2-1.9l-0.1-0.1L71,134.8z"/>
	<path class="st5" d="M93.2,144c-0.5,0-1.1-0.1-1.7-0.3c-0.6-0.2-1.2-0.7-1.6-1.3c-0.4-0.6-0.7-1.6-0.7-2.9v-22.9
		c0-0.5,0.5-0.8,1.5-0.8h0.1c1,0,1.5,0.3,1.5,0.8v22.6c0,0.9,0.1,1.4,0.4,1.7s0.6,0.4,1,0.4c0.3,0,0.6,0,0.8-0.1
		c0.2-0.1,0.3-0.1,0.4-0.1c0.2,0,0.3,0.1,0.4,0.4c0.1,0.2,0.2,0.5,0.3,0.8c0.1,0.3,0.1,0.5,0.1,0.6c0,0.3-0.1,0.5-0.4,0.7
		c-0.3,0.2-0.6,0.3-1,0.4C93.8,143.9,93.4,144,93.2,144z"/>
	<path class="st5" d="M100.6,121.1c-0.6,0-1-0.1-1.2-0.2c-0.3-0.1-0.4-0.3-0.4-0.6v-1.9c0-0.2,0.1-0.4,0.4-0.6
		c0.3-0.1,0.7-0.2,1.3-0.2c0.6,0,1,0.1,1.2,0.2c0.3,0.1,0.4,0.3,0.4,0.6v1.9c0,0.2-0.1,0.4-0.4,0.6
		C101.7,121,101.2,121.1,100.6,121.1z M100.5,143.8c-1,0-1.5-0.3-1.5-0.8v-18c0-0.5,0.5-0.8,1.5-0.8h0.1c1,0,1.5,0.3,1.5,0.8v18
		c0,0.5-0.5,0.8-1.5,0.8H100.5z"/>
	<path class="st5" d="M110.3,143.8c-1,0-1.5-0.3-1.5-0.8v-16.1h-1.1c-0.5,0-0.7-0.4-0.7-1.1v-0.4c0-0.7,0.2-1.1,0.7-1.1h1.1v-4
		c0-1.4,0.2-2.4,0.7-3.1c0.5-0.7,1.1-1.1,1.7-1.3c0.7-0.2,1.3-0.3,1.8-0.3c0.4,0,0.8,0,1.2,0.1c0.4,0.1,0.7,0.2,1,0.4
		c0.3,0.2,0.4,0.4,0.4,0.7c0,0.1,0,0.3-0.1,0.6c-0.1,0.3-0.1,0.6-0.3,0.8c-0.1,0.2-0.3,0.4-0.5,0.4c-0.1,0-0.3,0-0.5-0.1
		c-0.2-0.1-0.5-0.1-0.9-0.1s-0.8,0.1-1.1,0.4c-0.3,0.3-0.5,0.9-0.5,2v3.7h2.5c0.5,0,0.7,0.4,0.7,1.1v0.4c0,0.7-0.2,1.1-0.7,1.1h-2.5
		V143c0,0.5-0.5,0.8-1.5,0.8H110.3z"/>
	<path class="st5" d="M125.9,144c-2.6,0-4.6-0.8-5.9-2.4c-1.3-1.6-1.9-4.1-1.9-7.4c0-2.2,0.3-4,0.8-5.5c0.5-1.5,1.4-2.6,2.5-3.4
		c1.1-0.8,2.4-1.2,4.1-1.2c2.2,0,3.8,0.8,4.9,2.5c1.1,1.7,1.6,4.1,1.6,7.3c0,0.1-0.1,0.3-0.2,0.6c-0.1,0.2-0.3,0.5-0.5,0.7
		s-0.4,0.3-0.5,0.3h-9.3c0.1,2.1,0.5,3.6,1.2,4.6c0.7,1,1.7,1.5,3.2,1.5c0.9,0,1.7-0.1,2.3-0.4s1.1-0.5,1.4-0.8s0.5-0.4,0.7-0.4
		c0.2,0,0.4,0.1,0.6,0.4c0.2,0.2,0.4,0.5,0.5,0.8c0.1,0.3,0.2,0.5,0.2,0.7c0,0.2-0.1,0.5-0.4,0.7s-0.7,0.5-1.2,0.8s-1.1,0.5-1.8,0.6
		C127.5,143.9,126.7,144,125.9,144z M121.5,132.6h7.2c0-2-0.3-3.4-0.8-4.4c-0.6-1-1.4-1.5-2.5-1.5c-1.2,0-2.1,0.5-2.8,1.5
		C122,129.1,121.6,130.6,121.5,132.6z"/>
</g>
</svg>
