<?xml version="1.0" encoding="utf-8"?>
<!-- Generator: Adobe Illustrator 24.1.2, SVG Export Plug-In . SVG Version: 6.00 Build 0)  -->
<svg version="1.1" id="Ebene_1" xmlns="http://www.w3.org/2000/svg" xmlns:xlink="http://www.w3.org/1999/xlink" x="0px" y="0px"
	 viewBox="0 0 372.2 100.9" style="enable-background:new 0 0 372.2 100.9;" xml:space="preserve">
<style type="text/css">
	.st0{display:none;fill:#DE5C47;}
	.st1{fill:#DE5C47;}
	.st2{fill:#40B39F;}
	.st3{fill:#FFFFFF;}
	.st4{fill:none;}
	.st5{fill:#5286A4;}
</style>
<g>
	<g>
		<g>
			<path class="st0" d="M123.1,57v-5.1H112v-18v-0.2c0-6-3.1-11.6-8.2-14.7L74.2,0.9c-0.7-0.5-1.6-0.7-2.5-0.7H66h-5.7
				c-0.9,0-1.7,0.2-2.5,0.7L28.2,19c-5.1,3.1-8.2,8.7-8.2,14.7v0.2v18H8.9c0,0,0,5,0,5.1C6,57,3,57,0.1,57v2.6h45.5l10.5-41.5
				l14.1,57.6l4.5-16.1h54.4V57H123.1z"/>
			<path class="st1" d="M123.1,62.1v-2.6H74.7l-4.5,16.1L56.1,18.1L45.6,59.6H8.9v2.6H0.1v5H20v0.2c0,6,3.1,11.6,8.2,14.7l29.6,18.1
				c0.7,0.5,1.6,0.7,2.5,0.7H66h5.7c0.9,0,1.7-0.2,2.5-0.7l29.6-18.1c5.1-3.1,8.2-8.7,8.2-14.7v-0.2h19.7v-5H123.1z"/>
		</g>
		<path class="st2" d="M123.1,57v-5.1H112v-18v-0.2c0-6-3.1-11.6-8.2-14.7L74.2,0.9c-0.7-0.5-1.6-0.7-2.5-0.7H66h-5.7
			c-0.9,0-1.7,0.2-2.5,0.7L28.2,19c-5.1,3.1-8.2,8.7-8.2,14.7v0.2v18H8.9c0,0,0,5,0,5.1c0,0,0,0,0,0v2.6h36.7l10.5-41.5l14.1,57.6
			l4.5-16.1h48.4L123.1,57L123.1,57z"/>
		<path class="st3" d="M70.2,78.3C70.2,78.3,70.2,78.3,70.2,78.3c-1.2,0-2.2-0.8-2.5-2L56.1,28.8l-7.9,31.4c-0.3,1.2-1.3,2-2.5,2H0
			V57h43.6l10-39.5c0.3-1.2,1.3-2,2.5-2c0,0,0,0,0,0c1.2,0,2.2,0.8,2.5,2l11.7,48l1.8-6.5c0.3-1.1,1.3-1.9,2.5-1.9h57v5.2H76.7
			l-4,14.2C72.4,77.5,71.4,78.3,70.2,78.3z"/>
	</g>
	<rect x="0.1" y="16.8" class="st4" width="131.7" height="73.2"/>
</g>
<g>
	<path class="st5" d="M162.5,80.4c-1.5,0-2.3-0.4-2.3-1.3V45.5c0-1.6-0.1-3-0.2-4.1s-0.2-1.9-0.3-2.5c-0.1-0.6-0.1-0.9-0.1-1
		c0-0.3,0.1-0.5,0.4-0.7c0.3-0.2,0.7-0.3,1.1-0.4c0.4-0.1,0.8-0.2,1.2-0.2c0.4,0,0.6-0.1,0.8-0.1c0.8,0,1.2,0.4,1.4,1.3
		c0.2,0.8,0.3,1.8,0.5,2.8c0.9-1.5,2-2.6,3.2-3.4c1.2-0.7,2.5-1.1,3.9-1.1c2,0,3.6,0.7,5.1,2.1s2.5,3.3,3.3,5.7
		c0.8,2.4,1.1,5.2,1.1,8.4c0,5.1-0.9,9-2.8,11.8c-1.8,2.8-4.2,4.1-7.2,4.1c-1.5,0-2.7-0.3-3.7-0.9c-1-0.6-1.8-1.3-2.6-2.2v13.9
		c0,0.9-0.8,1.3-2.3,1.3H162.5z M170.5,63.8c2,0,3.4-1,4.4-2.9c1-1.9,1.4-4.8,1.4-8.5c0-3.7-0.5-6.6-1.3-8.7c-0.9-2.1-2.2-3.2-4-3.2
		c-1,0-2,0.4-2.9,1.1c-1,0.7-1.8,1.7-2.6,3.1v16.4c0.7,0.9,1.4,1.6,2.3,2C168.6,63.6,169.5,63.8,170.5,63.8z"/>
	<path class="st5" d="M192,68c-1.6,0-2.4-0.4-2.4-1.3V45.5c0-1.6-0.1-3-0.2-4.1c-0.1-1.1-0.2-1.9-0.4-2.5c-0.1-0.6-0.2-0.9-0.2-1
		c0-0.3,0.1-0.5,0.4-0.7c0.3-0.2,0.6-0.3,0.9-0.4c0.4-0.1,0.7-0.2,1.1-0.2s0.6-0.1,0.8-0.1c0.5,0,0.8,0.2,1.1,0.7
		c0.3,0.5,0.5,1,0.6,1.6c0.1,0.6,0.3,1.2,0.4,1.7c0.9-1.4,1.9-2.5,3-3.3c1.1-0.8,2.2-1.2,3.3-1.2c0.7,0,1.3,0.1,1.7,0.3
		c0.5,0.2,0.8,0.5,1,0.8c0.2,0.4,0.3,0.8,0.3,1.2c0,0.4-0.1,0.9-0.2,1.4c-0.1,0.5-0.2,0.9-0.4,1.3c-0.2,0.4-0.4,0.6-0.6,0.6
		c-0.4,0-0.7-0.1-1.1-0.3c-0.4-0.2-1-0.3-1.9-0.3c-0.8,0-1.5,0.2-2.2,0.7c-0.7,0.5-1.3,1-1.7,1.6c-0.5,0.6-0.8,1-0.9,1.3v22
		c0,0.9-0.8,1.3-2.4,1.3H192z"/>
	<path class="st5" d="M210,31.5c-0.9,0-1.6-0.1-2-0.3c-0.4-0.2-0.6-0.5-0.6-1v-3.1c0-0.4,0.2-0.7,0.6-1s1.1-0.4,2.1-0.4
		c0.9,0,1.6,0.1,2,0.4s0.6,0.6,0.6,1v3.1c0,0.4-0.2,0.7-0.6,1C211.7,31.4,211,31.5,210,31.5z M209.9,68c-1.6,0-2.4-0.4-2.4-1.3v-29
		c0-0.9,0.8-1.3,2.4-1.3h0.2c1.6,0,2.4,0.4,2.4,1.3v29c0,0.9-0.8,1.3-2.4,1.3H209.9z"/>
	<path class="st5" d="M224.5,68c-1.5,0-2.2-0.4-2.2-1.3V45.5c0-1.6-0.1-3-0.1-4.1c-0.1-1.1-0.2-1.9-0.3-2.5c-0.1-0.6-0.2-0.9-0.2-1
		c0-0.3,0.2-0.5,0.5-0.7s0.6-0.3,1-0.4c0.4-0.1,0.8-0.2,1.2-0.2c0.4,0,0.6-0.1,0.8-0.1c0.8,0,1.2,0.4,1.4,1.3
		c0.2,0.9,0.3,1.8,0.5,2.8c0.9-1.4,2-2.5,3.3-3.3c1.3-0.8,2.7-1.2,4.3-1.2c2.5,0,4.4,0.8,5.8,2.5c1.4,1.7,2,4,2,6.9v21.2
		c0,0.4-0.2,0.7-0.5,1c-0.4,0.2-0.9,0.4-1.7,0.4h-0.6c-0.8,0-1.4-0.1-1.8-0.4c-0.4-0.2-0.6-0.6-0.6-1V46c0-1.7-0.4-3.1-1-4
		c-0.7-1-1.8-1.4-3.2-1.4c-1.1,0-2.2,0.4-3.2,1.2c-1,0.8-1.8,1.8-2.4,3v22c0,0.9-0.8,1.3-2.3,1.3H224.5z"/>
	<path class="st5" d="M259.6,68.3c-0.9,0-1.9-0.2-2.9-0.5c-1-0.4-1.9-1.1-2.7-2.1c-0.7-1-1.1-2.6-1.1-4.6V40.8h-2
		c-0.8,0-1.2-0.6-1.2-1.8v-0.7c0-1.2,0.4-1.8,1.2-1.8h2l0.7-6.3c0.1-0.9,0.7-1.3,1.9-1.3h0.6c1.2,0,1.8,0.4,1.8,1.3v6.3h4
		c0.8,0,1.2,0.6,1.2,1.8V39c0,1.2-0.4,1.8-1.2,1.8h-4v19.3c0,1.6,0.2,2.6,0.7,3.1c0.5,0.5,1,0.7,1.6,0.7c0.6,0,1,0,1.4-0.2
		c0.3-0.1,0.5-0.1,0.7-0.1c0.3,0,0.5,0.2,0.7,0.6c0.2,0.4,0.3,0.8,0.4,1.3c0.1,0.5,0.1,0.8,0.1,1c0,0.5-0.2,0.9-0.7,1.1
		c-0.5,0.2-1,0.4-1.7,0.5C260.6,68.2,260.1,68.3,259.6,68.3z"/>
	<path class="st5" d="M286.2,68c-1.2,0-1.8-0.4-1.8-1.3v-8.8h-14.8c-0.2,0-0.4-0.2-0.7-0.5c-0.2-0.4-0.4-0.8-0.6-1.2
		c-0.1-0.5-0.2-0.9-0.2-1.3c0-0.2,0-0.3,0-0.4c0-0.1,0-0.2,0.1-0.3l16.1-27.6c0.2-0.3,0.4-0.5,0.8-0.6c0.4-0.1,0.8-0.2,1.2-0.2h1.2
		c1.2,0,1.8,0.4,1.8,1.3v26.5h3.4c0.8,0,1.2,0.6,1.2,1.8v0.7c0,1.2-0.4,1.8-1.2,1.8h-3.4v8.8c0,0.9-0.6,1.3-1.8,1.3H286.2z
		 M273.5,53.6h10.9v-12c0-1.8,0-3.2,0.1-4.3c0.1-1.1,0.2-2.1,0.4-3.1l-0.2-0.1L273.5,53.6z"/>
	<path class="st5" d="M309.2,68.3c-0.8,0-1.7-0.2-2.7-0.5c-1-0.4-1.9-1.1-2.6-2.1c-0.7-1-1.1-2.6-1.1-4.6V24.1
		c0-0.9,0.8-1.3,2.4-1.3h0.2c1.6,0,2.4,0.4,2.4,1.3v36.4c0,1.4,0.2,2.3,0.7,2.8c0.4,0.4,1,0.7,1.6,0.7c0.6,0,1,0,1.2-0.2
		c0.3-0.1,0.5-0.1,0.7-0.1c0.3,0,0.5,0.2,0.7,0.6c0.2,0.4,0.3,0.8,0.4,1.3c0.1,0.5,0.2,0.8,0.2,0.9c0,0.4-0.2,0.8-0.7,1.1
		c-0.5,0.3-1,0.4-1.7,0.6S309.7,68.3,309.2,68.3z"/>
	<path class="st5" d="M321.2,31.5c-0.9,0-1.6-0.1-2-0.3c-0.4-0.2-0.6-0.5-0.6-1v-3.1c0-0.4,0.2-0.7,0.6-1s1.1-0.4,2.1-0.4
		c0.9,0,1.6,0.1,2,0.4s0.6,0.6,0.6,1v3.1c0,0.4-0.2,0.7-0.6,1C322.9,31.4,322.2,31.5,321.2,31.5z M321.1,68c-1.6,0-2.4-0.4-2.4-1.3
		v-29c0-0.9,0.8-1.3,2.4-1.3h0.2c1.6,0,2.4,0.4,2.4,1.3v29c0,0.9-0.8,1.3-2.4,1.3H321.1z"/>
	<path class="st5" d="M336.7,68c-1.6,0-2.4-0.4-2.4-1.3V40.8h-1.7c-0.8,0-1.2-0.6-1.2-1.8v-0.7c0-1.2,0.4-1.8,1.2-1.8h1.7v-6.4
		c0-2.2,0.4-3.8,1.2-4.9c0.8-1.1,1.7-1.8,2.8-2.2c1.1-0.4,2-0.5,2.9-0.5c0.6,0,1.2,0.1,1.9,0.2c0.6,0.1,1.2,0.3,1.6,0.6
		c0.4,0.3,0.7,0.6,0.7,1c0,0.2-0.1,0.5-0.1,0.9c-0.1,0.5-0.2,0.9-0.4,1.3c-0.2,0.4-0.4,0.6-0.8,0.6c-0.2,0-0.5-0.1-0.8-0.2
		c-0.3-0.1-0.7-0.2-1.4-0.2c-0.6,0-1.2,0.2-1.7,0.6c-0.5,0.4-0.8,1.5-0.8,3.2v5.9h4c0.8,0,1.2,0.6,1.2,1.8V39c0,1.2-0.4,1.8-1.2,1.8
		h-4v25.9c0,0.9-0.8,1.3-2.4,1.3H336.7z"/>
	<path class="st5" d="M361.9,68.3c-4.2,0-7.4-1.3-9.5-3.9c-2.1-2.6-3.1-6.6-3.1-11.9c0-3.5,0.4-6.5,1.3-8.9s2.2-4.2,4-5.5
		c1.8-1.2,3.9-1.9,6.5-1.9c3.5,0,6.1,1.3,7.9,4c1.8,2.7,2.6,6.6,2.6,11.7c0,0.2-0.1,0.6-0.3,1c-0.2,0.4-0.5,0.8-0.8,1
		c-0.3,0.3-0.6,0.5-0.8,0.5h-14.9c0.2,3.3,0.8,5.8,1.9,7.3c1.1,1.6,2.8,2.3,5.2,2.3c1.5,0,2.8-0.2,3.7-0.6c1-0.4,1.7-0.8,2.2-1.3
		c0.5-0.4,0.9-0.6,1.1-0.6c0.3,0,0.6,0.2,0.9,0.6c0.3,0.4,0.6,0.8,0.8,1.3c0.2,0.5,0.4,0.8,0.4,1.1c0,0.4-0.2,0.8-0.7,1.2
		c-0.5,0.4-1.1,0.9-1.9,1.3c-0.8,0.4-1.8,0.7-2.9,1C364.4,68.1,363.2,68.3,361.9,68.3z M354.8,50h11.6c0-3.2-0.5-5.5-1.3-7.1
		c-0.9-1.6-2.2-2.4-4-2.4c-2,0-3.5,0.8-4.5,2.4C355.5,44.4,354.9,46.8,354.8,50z"/>
</g>
</svg>
